G75*
%MOIN*%
%OFA0B0*%
%FSLAX25Y25*%
%IPPOS*%
%LPD*%
%AMOC8*
5,1,8,0,0,1.08239X$1,22.5*
%
%ADD10C,0.00000*%
%ADD11C,0.00500*%
%ADD12C,0.00200*%
%ADD13C,0.00400*%
%ADD14C,0.00236*%
%ADD15C,0.00800*%
%ADD16C,0.00600*%
D10*
X0001300Y0001500D02*
X0001300Y0257500D01*
X0129221Y0257500D01*
X0129221Y0001500D01*
X0001300Y0001500D01*
D11*
X0013050Y0002500D02*
X0013052Y0002570D01*
X0013058Y0002640D01*
X0013068Y0002709D01*
X0013081Y0002778D01*
X0013099Y0002846D01*
X0013120Y0002913D01*
X0013145Y0002978D01*
X0013174Y0003042D01*
X0013206Y0003105D01*
X0013242Y0003165D01*
X0013281Y0003223D01*
X0013323Y0003279D01*
X0013368Y0003333D01*
X0013416Y0003384D01*
X0013467Y0003432D01*
X0013521Y0003477D01*
X0013577Y0003519D01*
X0013635Y0003558D01*
X0013695Y0003594D01*
X0013758Y0003626D01*
X0013822Y0003655D01*
X0013887Y0003680D01*
X0013954Y0003701D01*
X0014022Y0003719D01*
X0014091Y0003732D01*
X0014160Y0003742D01*
X0014230Y0003748D01*
X0014300Y0003750D01*
X0014370Y0003748D01*
X0014440Y0003742D01*
X0014509Y0003732D01*
X0014578Y0003719D01*
X0014646Y0003701D01*
X0014713Y0003680D01*
X0014778Y0003655D01*
X0014842Y0003626D01*
X0014905Y0003594D01*
X0014965Y0003558D01*
X0015023Y0003519D01*
X0015079Y0003477D01*
X0015133Y0003432D01*
X0015184Y0003384D01*
X0015232Y0003333D01*
X0015277Y0003279D01*
X0015319Y0003223D01*
X0015358Y0003165D01*
X0015394Y0003105D01*
X0015426Y0003042D01*
X0015455Y0002978D01*
X0015480Y0002913D01*
X0015501Y0002846D01*
X0015519Y0002778D01*
X0015532Y0002709D01*
X0015542Y0002640D01*
X0015548Y0002570D01*
X0015550Y0002500D01*
X0015548Y0002430D01*
X0015542Y0002360D01*
X0015532Y0002291D01*
X0015519Y0002222D01*
X0015501Y0002154D01*
X0015480Y0002087D01*
X0015455Y0002022D01*
X0015426Y0001958D01*
X0015394Y0001895D01*
X0015358Y0001835D01*
X0015319Y0001777D01*
X0015277Y0001721D01*
X0015232Y0001667D01*
X0015184Y0001616D01*
X0015133Y0001568D01*
X0015079Y0001523D01*
X0015023Y0001481D01*
X0014965Y0001442D01*
X0014905Y0001406D01*
X0014842Y0001374D01*
X0014778Y0001345D01*
X0014713Y0001320D01*
X0014646Y0001299D01*
X0014578Y0001281D01*
X0014509Y0001268D01*
X0014440Y0001258D01*
X0014370Y0001252D01*
X0014300Y0001250D01*
X0014230Y0001252D01*
X0014160Y0001258D01*
X0014091Y0001268D01*
X0014022Y0001281D01*
X0013954Y0001299D01*
X0013887Y0001320D01*
X0013822Y0001345D01*
X0013758Y0001374D01*
X0013695Y0001406D01*
X0013635Y0001442D01*
X0013577Y0001481D01*
X0013521Y0001523D01*
X0013467Y0001568D01*
X0013416Y0001616D01*
X0013368Y0001667D01*
X0013323Y0001721D01*
X0013281Y0001777D01*
X0013242Y0001835D01*
X0013206Y0001895D01*
X0013174Y0001958D01*
X0013145Y0002022D01*
X0013120Y0002087D01*
X0013099Y0002154D01*
X0013081Y0002222D01*
X0013068Y0002291D01*
X0013058Y0002360D01*
X0013052Y0002430D01*
X0013050Y0002500D01*
X0014300Y0002500D02*
X0094300Y0002500D01*
X0094300Y0012500D01*
X0014300Y0012500D01*
X0014300Y0002500D01*
X0015000Y0014000D02*
X0015451Y0014000D01*
X0015901Y0014450D01*
X0015901Y0016702D01*
X0015451Y0016702D02*
X0016352Y0016702D01*
X0017497Y0016252D02*
X0017947Y0016702D01*
X0018848Y0016702D01*
X0019298Y0016252D01*
X0019298Y0015802D01*
X0017497Y0014000D01*
X0019298Y0014000D01*
X0015000Y0014000D02*
X0014550Y0014450D01*
X0024741Y0024941D02*
X0024741Y0080059D01*
X0024741Y0072185D01*
X0032615Y0072185D01*
X0032615Y0080059D01*
X0024741Y0080059D01*
X0079859Y0080059D01*
X0079859Y0024941D01*
X0024741Y0024941D01*
X0014648Y0056750D02*
X0014648Y0059452D01*
X0013297Y0058101D01*
X0015098Y0058101D01*
X0012152Y0057200D02*
X0011701Y0056750D01*
X0010800Y0056750D01*
X0010350Y0057200D01*
X0010350Y0059002D01*
X0010800Y0059452D01*
X0011701Y0059452D01*
X0012152Y0059002D01*
X0024741Y0072289D02*
X0032615Y0072289D01*
X0032615Y0072787D02*
X0024741Y0072787D01*
X0024741Y0073286D02*
X0032615Y0073286D01*
X0032615Y0073784D02*
X0024741Y0073784D01*
X0024741Y0074283D02*
X0032615Y0074283D01*
X0032615Y0074781D02*
X0024741Y0074781D01*
X0024741Y0075280D02*
X0032615Y0075280D01*
X0032615Y0075778D02*
X0024741Y0075778D01*
X0024741Y0076277D02*
X0032615Y0076277D01*
X0032615Y0076775D02*
X0024741Y0076775D01*
X0024741Y0077274D02*
X0032615Y0077274D01*
X0032615Y0077772D02*
X0024741Y0077772D01*
X0024741Y0078271D02*
X0032615Y0078271D01*
X0032615Y0078769D02*
X0024741Y0078769D01*
X0024741Y0079268D02*
X0032615Y0079268D01*
X0032615Y0079766D02*
X0024741Y0079766D01*
X0025441Y0082750D02*
X0026342Y0082750D01*
X0026792Y0083200D01*
X0026792Y0085452D01*
X0027937Y0084552D02*
X0028838Y0085452D01*
X0028838Y0082750D01*
X0027937Y0082750D02*
X0029739Y0082750D01*
X0025441Y0082750D02*
X0024991Y0083200D01*
X0024991Y0085452D01*
X0008300Y0095500D02*
X0008303Y0095745D01*
X0008312Y0095991D01*
X0008327Y0096236D01*
X0008348Y0096480D01*
X0008375Y0096724D01*
X0008408Y0096967D01*
X0008447Y0097210D01*
X0008492Y0097451D01*
X0008543Y0097691D01*
X0008600Y0097930D01*
X0008662Y0098167D01*
X0008731Y0098403D01*
X0008805Y0098637D01*
X0008885Y0098869D01*
X0008970Y0099099D01*
X0009061Y0099327D01*
X0009158Y0099552D01*
X0009260Y0099776D01*
X0009368Y0099996D01*
X0009481Y0100214D01*
X0009599Y0100429D01*
X0009723Y0100641D01*
X0009851Y0100850D01*
X0009985Y0101056D01*
X0010124Y0101258D01*
X0010268Y0101457D01*
X0010417Y0101652D01*
X0010570Y0101844D01*
X0010728Y0102032D01*
X0010890Y0102216D01*
X0011058Y0102395D01*
X0011229Y0102571D01*
X0011405Y0102742D01*
X0011584Y0102910D01*
X0011768Y0103072D01*
X0011956Y0103230D01*
X0012148Y0103383D01*
X0012343Y0103532D01*
X0012542Y0103676D01*
X0012744Y0103815D01*
X0012950Y0103949D01*
X0013159Y0104077D01*
X0013371Y0104201D01*
X0013586Y0104319D01*
X0013804Y0104432D01*
X0014024Y0104540D01*
X0014248Y0104642D01*
X0014473Y0104739D01*
X0014701Y0104830D01*
X0014931Y0104915D01*
X0015163Y0104995D01*
X0015397Y0105069D01*
X0015633Y0105138D01*
X0015870Y0105200D01*
X0016109Y0105257D01*
X0016349Y0105308D01*
X0016590Y0105353D01*
X0016833Y0105392D01*
X0017076Y0105425D01*
X0017320Y0105452D01*
X0017564Y0105473D01*
X0017809Y0105488D01*
X0018055Y0105497D01*
X0018300Y0105500D01*
X0018545Y0105497D01*
X0018791Y0105488D01*
X0019036Y0105473D01*
X0019280Y0105452D01*
X0019524Y0105425D01*
X0019767Y0105392D01*
X0020010Y0105353D01*
X0020251Y0105308D01*
X0020491Y0105257D01*
X0020730Y0105200D01*
X0020967Y0105138D01*
X0021203Y0105069D01*
X0021437Y0104995D01*
X0021669Y0104915D01*
X0021899Y0104830D01*
X0022127Y0104739D01*
X0022352Y0104642D01*
X0022576Y0104540D01*
X0022796Y0104432D01*
X0023014Y0104319D01*
X0023229Y0104201D01*
X0023441Y0104077D01*
X0023650Y0103949D01*
X0023856Y0103815D01*
X0024058Y0103676D01*
X0024257Y0103532D01*
X0024452Y0103383D01*
X0024644Y0103230D01*
X0024832Y0103072D01*
X0025016Y0102910D01*
X0025195Y0102742D01*
X0025371Y0102571D01*
X0025542Y0102395D01*
X0025710Y0102216D01*
X0025872Y0102032D01*
X0026030Y0101844D01*
X0026183Y0101652D01*
X0026332Y0101457D01*
X0026476Y0101258D01*
X0026615Y0101056D01*
X0026749Y0100850D01*
X0026877Y0100641D01*
X0027001Y0100429D01*
X0027119Y0100214D01*
X0027232Y0099996D01*
X0027340Y0099776D01*
X0027442Y0099552D01*
X0027539Y0099327D01*
X0027630Y0099099D01*
X0027715Y0098869D01*
X0027795Y0098637D01*
X0027869Y0098403D01*
X0027938Y0098167D01*
X0028000Y0097930D01*
X0028057Y0097691D01*
X0028108Y0097451D01*
X0028153Y0097210D01*
X0028192Y0096967D01*
X0028225Y0096724D01*
X0028252Y0096480D01*
X0028273Y0096236D01*
X0028288Y0095991D01*
X0028297Y0095745D01*
X0028300Y0095500D01*
X0028297Y0095255D01*
X0028288Y0095009D01*
X0028273Y0094764D01*
X0028252Y0094520D01*
X0028225Y0094276D01*
X0028192Y0094033D01*
X0028153Y0093790D01*
X0028108Y0093549D01*
X0028057Y0093309D01*
X0028000Y0093070D01*
X0027938Y0092833D01*
X0027869Y0092597D01*
X0027795Y0092363D01*
X0027715Y0092131D01*
X0027630Y0091901D01*
X0027539Y0091673D01*
X0027442Y0091448D01*
X0027340Y0091224D01*
X0027232Y0091004D01*
X0027119Y0090786D01*
X0027001Y0090571D01*
X0026877Y0090359D01*
X0026749Y0090150D01*
X0026615Y0089944D01*
X0026476Y0089742D01*
X0026332Y0089543D01*
X0026183Y0089348D01*
X0026030Y0089156D01*
X0025872Y0088968D01*
X0025710Y0088784D01*
X0025542Y0088605D01*
X0025371Y0088429D01*
X0025195Y0088258D01*
X0025016Y0088090D01*
X0024832Y0087928D01*
X0024644Y0087770D01*
X0024452Y0087617D01*
X0024257Y0087468D01*
X0024058Y0087324D01*
X0023856Y0087185D01*
X0023650Y0087051D01*
X0023441Y0086923D01*
X0023229Y0086799D01*
X0023014Y0086681D01*
X0022796Y0086568D01*
X0022576Y0086460D01*
X0022352Y0086358D01*
X0022127Y0086261D01*
X0021899Y0086170D01*
X0021669Y0086085D01*
X0021437Y0086005D01*
X0021203Y0085931D01*
X0020967Y0085862D01*
X0020730Y0085800D01*
X0020491Y0085743D01*
X0020251Y0085692D01*
X0020010Y0085647D01*
X0019767Y0085608D01*
X0019524Y0085575D01*
X0019280Y0085548D01*
X0019036Y0085527D01*
X0018791Y0085512D01*
X0018545Y0085503D01*
X0018300Y0085500D01*
X0018055Y0085503D01*
X0017809Y0085512D01*
X0017564Y0085527D01*
X0017320Y0085548D01*
X0017076Y0085575D01*
X0016833Y0085608D01*
X0016590Y0085647D01*
X0016349Y0085692D01*
X0016109Y0085743D01*
X0015870Y0085800D01*
X0015633Y0085862D01*
X0015397Y0085931D01*
X0015163Y0086005D01*
X0014931Y0086085D01*
X0014701Y0086170D01*
X0014473Y0086261D01*
X0014248Y0086358D01*
X0014024Y0086460D01*
X0013804Y0086568D01*
X0013586Y0086681D01*
X0013371Y0086799D01*
X0013159Y0086923D01*
X0012950Y0087051D01*
X0012744Y0087185D01*
X0012542Y0087324D01*
X0012343Y0087468D01*
X0012148Y0087617D01*
X0011956Y0087770D01*
X0011768Y0087928D01*
X0011584Y0088090D01*
X0011405Y0088258D01*
X0011229Y0088429D01*
X0011058Y0088605D01*
X0010890Y0088784D01*
X0010728Y0088968D01*
X0010570Y0089156D01*
X0010417Y0089348D01*
X0010268Y0089543D01*
X0010124Y0089742D01*
X0009985Y0089944D01*
X0009851Y0090150D01*
X0009723Y0090359D01*
X0009599Y0090571D01*
X0009481Y0090786D01*
X0009368Y0091004D01*
X0009260Y0091224D01*
X0009158Y0091448D01*
X0009061Y0091673D01*
X0008970Y0091901D01*
X0008885Y0092131D01*
X0008805Y0092363D01*
X0008731Y0092597D01*
X0008662Y0092833D01*
X0008600Y0093070D01*
X0008543Y0093309D01*
X0008492Y0093549D01*
X0008447Y0093790D01*
X0008408Y0094033D01*
X0008375Y0094276D01*
X0008348Y0094520D01*
X0008327Y0094764D01*
X0008312Y0095009D01*
X0008303Y0095255D01*
X0008300Y0095500D01*
X0018505Y0126610D02*
X0018505Y0140390D01*
X0044095Y0140390D01*
X0044095Y0126610D01*
X0018505Y0126610D01*
X0017494Y0147750D02*
X0016593Y0147750D01*
X0016143Y0148200D01*
X0017945Y0150002D01*
X0017945Y0148200D01*
X0017494Y0147750D01*
X0016143Y0148200D02*
X0016143Y0150002D01*
X0016593Y0150452D01*
X0017494Y0150452D01*
X0017945Y0150002D01*
X0014998Y0147750D02*
X0013197Y0147750D01*
X0014097Y0147750D02*
X0014097Y0150452D01*
X0013197Y0149552D01*
X0012052Y0150002D02*
X0011601Y0150452D01*
X0010700Y0150452D01*
X0010250Y0150002D01*
X0010250Y0148200D01*
X0010700Y0147750D01*
X0011601Y0147750D01*
X0012052Y0148200D01*
X0024752Y0168374D02*
X0025652Y0168374D01*
X0026103Y0168825D01*
X0027248Y0168825D02*
X0027248Y0169275D01*
X0027698Y0169726D01*
X0028599Y0169726D01*
X0029049Y0169275D01*
X0029049Y0168825D01*
X0028599Y0168374D01*
X0027698Y0168374D01*
X0027248Y0168825D01*
X0027698Y0169726D02*
X0027248Y0170176D01*
X0027248Y0170626D01*
X0027698Y0171077D01*
X0028599Y0171077D01*
X0029049Y0170626D01*
X0029049Y0170176D01*
X0028599Y0169726D01*
X0026103Y0170626D02*
X0025652Y0171077D01*
X0024752Y0171077D01*
X0024301Y0170626D01*
X0024301Y0168825D01*
X0024752Y0168374D01*
X0033348Y0171900D02*
X0033798Y0171450D01*
X0035600Y0171450D01*
X0036050Y0171900D01*
X0036050Y0172801D01*
X0035600Y0173252D01*
X0036050Y0174397D02*
X0036050Y0176198D01*
X0036050Y0175297D02*
X0033348Y0175297D01*
X0034248Y0174397D01*
X0033798Y0173252D02*
X0033348Y0172801D01*
X0033348Y0171900D01*
X0033798Y0177343D02*
X0033348Y0177793D01*
X0033348Y0178694D01*
X0033798Y0179145D01*
X0034248Y0179145D01*
X0034699Y0178694D01*
X0035149Y0179145D01*
X0035600Y0179145D01*
X0036050Y0178694D01*
X0036050Y0177793D01*
X0035600Y0177343D01*
X0034699Y0178244D02*
X0034699Y0178694D01*
X0043250Y0183750D02*
X0043250Y0186452D01*
X0044601Y0186452D01*
X0045052Y0186002D01*
X0045052Y0185101D01*
X0044601Y0184651D01*
X0043250Y0184651D01*
X0044151Y0184651D02*
X0045052Y0183750D01*
X0046197Y0183750D02*
X0047998Y0183750D01*
X0047097Y0183750D02*
X0047097Y0186452D01*
X0046197Y0185552D01*
X0049143Y0185101D02*
X0050044Y0185552D01*
X0050494Y0185552D01*
X0050945Y0185101D01*
X0050945Y0184200D01*
X0050494Y0183750D01*
X0049593Y0183750D01*
X0049143Y0184200D01*
X0049143Y0185101D02*
X0049143Y0186452D01*
X0050945Y0186452D01*
X0055426Y0179374D02*
X0057394Y0179374D01*
X0055426Y0179374D02*
X0055426Y0177406D01*
X0055426Y0165594D02*
X0055426Y0163626D01*
X0057394Y0163626D01*
X0051349Y0158426D02*
X0050899Y0158877D01*
X0049998Y0158877D01*
X0049548Y0158426D01*
X0049548Y0157976D01*
X0049998Y0157526D01*
X0051349Y0157526D01*
X0051349Y0158426D02*
X0051349Y0156625D01*
X0050899Y0156174D01*
X0049998Y0156174D01*
X0049548Y0156625D01*
X0048403Y0156625D02*
X0047952Y0156174D01*
X0047052Y0156174D01*
X0046601Y0156625D01*
X0046601Y0158426D01*
X0047052Y0158877D01*
X0047952Y0158877D01*
X0048403Y0158426D01*
X0049544Y0154652D02*
X0049544Y0151950D01*
X0048643Y0151950D02*
X0050445Y0151950D01*
X0048643Y0153752D02*
X0049544Y0154652D01*
X0047498Y0151950D02*
X0045697Y0151950D01*
X0046597Y0151950D02*
X0046597Y0154652D01*
X0045697Y0153752D01*
X0044552Y0154202D02*
X0044101Y0154652D01*
X0043200Y0154652D01*
X0042750Y0154202D01*
X0042750Y0152400D01*
X0043200Y0151950D01*
X0044101Y0151950D01*
X0044552Y0152400D01*
X0045867Y0150933D02*
X0053692Y0150933D01*
X0058908Y0150933D02*
X0066733Y0150933D01*
X0066733Y0133756D01*
X0063044Y0130067D01*
X0058908Y0130067D01*
X0059567Y0128494D02*
X0059117Y0128043D01*
X0059117Y0126242D01*
X0059567Y0125791D01*
X0060468Y0125791D01*
X0060918Y0126242D01*
X0062063Y0125791D02*
X0063865Y0125791D01*
X0062964Y0125791D02*
X0062964Y0128494D01*
X0062063Y0127593D01*
X0060918Y0128043D02*
X0060468Y0128494D01*
X0059567Y0128494D01*
X0065010Y0128494D02*
X0065010Y0127142D01*
X0065911Y0127593D01*
X0066361Y0127593D01*
X0066812Y0127142D01*
X0066812Y0126242D01*
X0066361Y0125791D01*
X0065460Y0125791D01*
X0065010Y0126242D01*
X0065010Y0128494D02*
X0066812Y0128494D01*
X0066858Y0111252D02*
X0065957Y0110352D01*
X0064812Y0110802D02*
X0064812Y0109901D01*
X0064362Y0109451D01*
X0063010Y0109451D01*
X0063010Y0108550D02*
X0063010Y0111252D01*
X0064362Y0111252D01*
X0064812Y0110802D01*
X0063911Y0109451D02*
X0064812Y0108550D01*
X0065957Y0108550D02*
X0067759Y0108550D01*
X0066858Y0108550D02*
X0066858Y0111252D01*
X0068903Y0109901D02*
X0070705Y0109901D01*
X0070255Y0108550D02*
X0070255Y0111252D01*
X0068903Y0109901D01*
X0055655Y0086652D02*
X0056105Y0086202D01*
X0056105Y0085752D01*
X0055655Y0085301D01*
X0056105Y0084851D01*
X0056105Y0084400D01*
X0055655Y0083950D01*
X0054754Y0083950D01*
X0054303Y0084400D01*
X0053159Y0084400D02*
X0052708Y0083950D01*
X0051807Y0083950D01*
X0051357Y0084400D01*
X0051357Y0086202D01*
X0051807Y0086652D01*
X0052708Y0086652D01*
X0053159Y0086202D01*
X0054303Y0086202D02*
X0054754Y0086652D01*
X0055655Y0086652D01*
X0055655Y0085301D02*
X0055204Y0085301D01*
X0035794Y0100750D02*
X0035794Y0103452D01*
X0034443Y0102101D01*
X0036245Y0102101D01*
X0033298Y0102101D02*
X0032848Y0101651D01*
X0031497Y0101651D01*
X0031497Y0100750D02*
X0031497Y0103452D01*
X0032848Y0103452D01*
X0033298Y0103002D01*
X0033298Y0102101D01*
X0030352Y0103452D02*
X0028550Y0103452D01*
X0029451Y0103452D02*
X0029451Y0100750D01*
X0049556Y0130067D02*
X0045867Y0133756D01*
X0045867Y0150933D01*
X0045601Y0165750D02*
X0046052Y0166200D01*
X0045601Y0165750D02*
X0044700Y0165750D01*
X0044250Y0166200D01*
X0044250Y0168002D01*
X0044700Y0168452D01*
X0045601Y0168452D01*
X0046052Y0168002D01*
X0047197Y0167552D02*
X0048097Y0168452D01*
X0048097Y0165750D01*
X0047197Y0165750D02*
X0048998Y0165750D01*
X0063000Y0194450D02*
X0062550Y0194900D01*
X0062550Y0196702D01*
X0063000Y0197152D01*
X0063901Y0197152D01*
X0064352Y0196702D01*
X0065497Y0196702D02*
X0065947Y0197152D01*
X0066848Y0197152D01*
X0067298Y0196702D01*
X0067298Y0196252D01*
X0065497Y0194450D01*
X0067298Y0194450D01*
X0064352Y0194900D02*
X0063901Y0194450D01*
X0063000Y0194450D01*
X0062250Y0203750D02*
X0062250Y0206452D01*
X0063601Y0206452D01*
X0064052Y0206002D01*
X0064052Y0205101D01*
X0063601Y0204651D01*
X0062250Y0204651D01*
X0063151Y0204651D02*
X0064052Y0203750D01*
X0065197Y0203750D02*
X0066998Y0203750D01*
X0066097Y0203750D02*
X0066097Y0206452D01*
X0065197Y0205552D01*
X0068143Y0206002D02*
X0068593Y0206452D01*
X0069494Y0206452D01*
X0069945Y0206002D01*
X0069945Y0205552D01*
X0068143Y0203750D01*
X0069945Y0203750D01*
X0076250Y0203750D02*
X0076250Y0206452D01*
X0077601Y0206452D01*
X0078052Y0206002D01*
X0078052Y0205101D01*
X0077601Y0204651D01*
X0076250Y0204651D01*
X0077151Y0204651D02*
X0078052Y0203750D01*
X0079197Y0204200D02*
X0079647Y0203750D01*
X0080548Y0203750D01*
X0080998Y0204200D01*
X0080998Y0204651D01*
X0080548Y0205101D01*
X0080097Y0205101D01*
X0080548Y0205101D02*
X0080998Y0205552D01*
X0080998Y0206002D01*
X0080548Y0206452D01*
X0079647Y0206452D01*
X0079197Y0206002D01*
X0082250Y0220750D02*
X0084052Y0220750D01*
X0085197Y0220750D02*
X0086998Y0222552D01*
X0086998Y0223002D01*
X0086548Y0223452D01*
X0085647Y0223452D01*
X0085197Y0223002D01*
X0085197Y0220750D02*
X0086998Y0220750D01*
X0082250Y0220750D02*
X0082250Y0223452D01*
X0075945Y0223002D02*
X0075945Y0222552D01*
X0075494Y0222101D01*
X0074593Y0222101D01*
X0074143Y0222552D01*
X0074143Y0223002D01*
X0074593Y0223452D01*
X0075494Y0223452D01*
X0075945Y0223002D01*
X0075494Y0222101D02*
X0075945Y0221651D01*
X0075945Y0221200D01*
X0075494Y0220750D01*
X0074593Y0220750D01*
X0074143Y0221200D01*
X0074143Y0221651D01*
X0074593Y0222101D01*
X0072998Y0220750D02*
X0071197Y0220750D01*
X0072097Y0220750D02*
X0072097Y0223452D01*
X0071197Y0222552D01*
X0070052Y0223002D02*
X0069601Y0223452D01*
X0068700Y0223452D01*
X0068250Y0223002D01*
X0068250Y0221200D01*
X0068700Y0220750D01*
X0069601Y0220750D01*
X0070052Y0221200D01*
X0063945Y0221200D02*
X0063494Y0220750D01*
X0062593Y0220750D01*
X0062143Y0221200D01*
X0060998Y0220750D02*
X0059197Y0220750D01*
X0060097Y0220750D02*
X0060097Y0223452D01*
X0059197Y0222552D01*
X0058052Y0223002D02*
X0058052Y0222101D01*
X0057601Y0221651D01*
X0056250Y0221651D01*
X0057151Y0221651D02*
X0058052Y0220750D01*
X0056250Y0220750D02*
X0056250Y0223452D01*
X0057601Y0223452D01*
X0058052Y0223002D01*
X0062143Y0223002D02*
X0062593Y0223452D01*
X0063494Y0223452D01*
X0063945Y0223002D01*
X0063945Y0222552D01*
X0063494Y0222101D01*
X0063945Y0221651D01*
X0063945Y0221200D01*
X0063494Y0222101D02*
X0063044Y0222101D01*
X0057494Y0206452D02*
X0056593Y0206452D01*
X0056143Y0206002D01*
X0056143Y0205552D01*
X0056593Y0205101D01*
X0057945Y0205101D01*
X0057945Y0204200D02*
X0057945Y0206002D01*
X0057494Y0206452D01*
X0057945Y0204200D02*
X0057494Y0203750D01*
X0056593Y0203750D01*
X0056143Y0204200D01*
X0054998Y0203750D02*
X0053197Y0203750D01*
X0054097Y0203750D02*
X0054097Y0206452D01*
X0053197Y0205552D01*
X0052052Y0206002D02*
X0051601Y0206452D01*
X0050700Y0206452D01*
X0050250Y0206002D01*
X0050250Y0204200D01*
X0050700Y0203750D01*
X0051601Y0203750D01*
X0052052Y0204200D01*
X0050945Y0202452D02*
X0050044Y0202002D01*
X0049143Y0201101D01*
X0050494Y0201101D01*
X0050945Y0200651D01*
X0050945Y0200200D01*
X0050494Y0199750D01*
X0049593Y0199750D01*
X0049143Y0200200D01*
X0049143Y0201101D01*
X0047998Y0199750D02*
X0046197Y0199750D01*
X0047097Y0199750D02*
X0047097Y0202452D01*
X0046197Y0201552D01*
X0045052Y0202002D02*
X0045052Y0201101D01*
X0044601Y0200651D01*
X0043250Y0200651D01*
X0044151Y0200651D02*
X0045052Y0199750D01*
X0043250Y0199750D02*
X0043250Y0202452D01*
X0044601Y0202452D01*
X0045052Y0202002D01*
X0035998Y0202200D02*
X0035548Y0201750D01*
X0034647Y0201750D01*
X0034197Y0202200D01*
X0034197Y0202651D01*
X0034647Y0203101D01*
X0035548Y0203101D01*
X0035998Y0202651D01*
X0035998Y0202200D01*
X0035548Y0203101D02*
X0035998Y0203552D01*
X0035998Y0204002D01*
X0035548Y0204452D01*
X0034647Y0204452D01*
X0034197Y0204002D01*
X0034197Y0203552D01*
X0034647Y0203101D01*
X0033052Y0203101D02*
X0033052Y0204002D01*
X0032601Y0204452D01*
X0031250Y0204452D01*
X0031250Y0201750D01*
X0031250Y0202651D02*
X0032601Y0202651D01*
X0033052Y0203101D01*
X0032151Y0202651D02*
X0033052Y0201750D01*
X0028349Y0215459D02*
X0026548Y0215459D01*
X0028349Y0215459D02*
X0029250Y0216360D01*
X0028349Y0217261D01*
X0026548Y0217261D01*
X0026548Y0218406D02*
X0026548Y0219757D01*
X0026998Y0220207D01*
X0027448Y0220207D01*
X0027899Y0219757D01*
X0027899Y0218406D01*
X0027899Y0219757D02*
X0028349Y0220207D01*
X0028800Y0220207D01*
X0029250Y0219757D01*
X0029250Y0218406D01*
X0026548Y0218406D01*
X0026548Y0221352D02*
X0028800Y0221352D01*
X0029250Y0221802D01*
X0029250Y0222703D01*
X0028800Y0223154D01*
X0026548Y0223154D01*
X0026998Y0224299D02*
X0027448Y0224299D01*
X0027899Y0224749D01*
X0027899Y0225650D01*
X0028349Y0226100D01*
X0028800Y0226100D01*
X0029250Y0225650D01*
X0029250Y0224749D01*
X0028800Y0224299D01*
X0029700Y0227245D02*
X0029700Y0229047D01*
X0028800Y0230192D02*
X0029250Y0230642D01*
X0029250Y0231543D01*
X0028800Y0231993D01*
X0028349Y0231993D01*
X0027899Y0231543D01*
X0027899Y0230642D01*
X0027448Y0230192D01*
X0026998Y0230192D01*
X0026548Y0230642D01*
X0026548Y0231543D01*
X0026998Y0231993D01*
X0026548Y0233138D02*
X0029250Y0233138D01*
X0028349Y0234039D01*
X0029250Y0234940D01*
X0026548Y0234940D01*
X0023166Y0237232D02*
X0031434Y0237232D01*
X0031434Y0253768D01*
X0023166Y0253768D01*
X0023166Y0255835D01*
X0031434Y0255835D01*
X0031434Y0253768D01*
X0023166Y0253768D01*
X0023166Y0237232D01*
X0022434Y0237232D02*
X0022434Y0253768D01*
X0014166Y0253768D01*
X0014166Y0255835D01*
X0022434Y0255835D01*
X0022434Y0253768D01*
X0014166Y0253768D01*
X0014166Y0237232D01*
X0022434Y0237232D01*
X0019349Y0234940D02*
X0020250Y0234039D01*
X0019349Y0233138D01*
X0017548Y0233138D01*
X0017998Y0231993D02*
X0018448Y0231993D01*
X0018899Y0231543D01*
X0019349Y0231993D01*
X0019800Y0231993D01*
X0020250Y0231543D01*
X0020250Y0230642D01*
X0019800Y0230192D01*
X0019800Y0229169D02*
X0020250Y0229169D01*
X0020250Y0228718D01*
X0019800Y0228718D01*
X0019800Y0229169D01*
X0019800Y0227573D02*
X0020250Y0227123D01*
X0020250Y0226222D01*
X0019800Y0225772D01*
X0018899Y0226673D02*
X0018899Y0227123D01*
X0019349Y0227573D01*
X0019800Y0227573D01*
X0018899Y0227123D02*
X0018448Y0227573D01*
X0017998Y0227573D01*
X0017548Y0227123D01*
X0017548Y0226222D01*
X0017998Y0225772D01*
X0017998Y0230192D02*
X0017548Y0230642D01*
X0017548Y0231543D01*
X0017998Y0231993D01*
X0018899Y0231543D02*
X0018899Y0231092D01*
X0019349Y0234940D02*
X0017548Y0234940D01*
X0013434Y0237232D02*
X0013434Y0253768D01*
X0005166Y0253768D01*
X0005166Y0255835D01*
X0013434Y0255835D01*
X0013434Y0253768D01*
X0005166Y0253768D01*
X0005166Y0237232D01*
X0013434Y0237232D01*
X0011250Y0234940D02*
X0008548Y0233138D01*
X0008998Y0231993D02*
X0009899Y0231993D01*
X0010349Y0231543D01*
X0010349Y0230192D01*
X0010349Y0231092D02*
X0011250Y0231993D01*
X0011250Y0233138D02*
X0008548Y0234940D01*
X0008998Y0231993D02*
X0008548Y0231543D01*
X0008548Y0230192D01*
X0011250Y0230192D01*
X0008548Y0229047D02*
X0011250Y0227245D01*
X0011250Y0226100D02*
X0008548Y0224299D01*
X0008548Y0223154D02*
X0008548Y0221352D01*
X0008548Y0222253D02*
X0011250Y0222253D01*
X0011250Y0224299D02*
X0008548Y0226100D01*
X0008601Y0217452D02*
X0007250Y0217452D01*
X0007250Y0214750D01*
X0007250Y0215651D02*
X0008601Y0215651D01*
X0009052Y0216101D01*
X0009052Y0217002D01*
X0008601Y0217452D01*
X0010197Y0217002D02*
X0010647Y0217452D01*
X0011548Y0217452D01*
X0011998Y0217002D01*
X0011998Y0216552D01*
X0010197Y0214750D01*
X0011998Y0214750D01*
X0009052Y0214750D02*
X0008151Y0215651D01*
X0016250Y0215651D02*
X0017601Y0215651D01*
X0018052Y0216101D01*
X0018052Y0217002D01*
X0017601Y0217452D01*
X0016250Y0217452D01*
X0016250Y0214750D01*
X0017151Y0215651D02*
X0018052Y0214750D01*
X0019197Y0214750D02*
X0020998Y0214750D01*
X0020097Y0214750D02*
X0020097Y0217452D01*
X0019197Y0216552D01*
X0026998Y0224299D02*
X0026548Y0224749D01*
X0026548Y0225650D01*
X0026998Y0226100D01*
X0032166Y0237232D02*
X0040434Y0237232D01*
X0040434Y0253768D01*
X0032166Y0253768D01*
X0032166Y0255835D01*
X0040434Y0255835D01*
X0040434Y0253768D01*
X0032166Y0253768D01*
X0032166Y0237232D01*
X0035548Y0234489D02*
X0035548Y0233589D01*
X0035998Y0233138D01*
X0036448Y0233138D01*
X0036899Y0233589D01*
X0036899Y0234489D01*
X0037349Y0234940D01*
X0037800Y0234940D01*
X0038250Y0234489D01*
X0038250Y0233589D01*
X0037800Y0233138D01*
X0037800Y0231993D02*
X0035548Y0231993D01*
X0035548Y0230192D02*
X0037800Y0230192D01*
X0038250Y0230642D01*
X0038250Y0231543D01*
X0037800Y0231993D01*
X0035548Y0234489D02*
X0035998Y0234940D01*
X0035998Y0229047D02*
X0036448Y0229047D01*
X0036899Y0228596D01*
X0036899Y0227245D01*
X0037349Y0226100D02*
X0035548Y0226100D01*
X0035548Y0227245D02*
X0035548Y0228596D01*
X0035998Y0229047D01*
X0036899Y0228596D02*
X0037349Y0229047D01*
X0037800Y0229047D01*
X0038250Y0228596D01*
X0038250Y0227245D01*
X0035548Y0227245D01*
X0037349Y0226100D02*
X0038250Y0225199D01*
X0037349Y0224299D01*
X0035548Y0224299D01*
X0035601Y0223452D02*
X0034250Y0223452D01*
X0034250Y0220750D01*
X0034250Y0221651D02*
X0035601Y0221651D01*
X0036052Y0222101D01*
X0036052Y0223002D01*
X0035601Y0223452D01*
X0037197Y0223452D02*
X0038998Y0223452D01*
X0038998Y0223002D01*
X0037197Y0221200D01*
X0037197Y0220750D01*
X0036052Y0220750D02*
X0035151Y0221651D01*
X0040250Y0221651D02*
X0041601Y0221651D01*
X0042052Y0222101D01*
X0042052Y0223002D01*
X0041601Y0223452D01*
X0040250Y0223452D01*
X0040250Y0220750D01*
X0041151Y0221651D02*
X0042052Y0220750D01*
X0043197Y0221200D02*
X0043197Y0222101D01*
X0044548Y0222101D01*
X0044998Y0221651D01*
X0044998Y0221200D01*
X0044548Y0220750D01*
X0043647Y0220750D01*
X0043197Y0221200D01*
X0043197Y0222101D02*
X0044097Y0223002D01*
X0044998Y0223452D01*
X0046250Y0223452D02*
X0046250Y0220750D01*
X0048052Y0220750D01*
X0049197Y0220750D02*
X0050998Y0220750D01*
X0050097Y0220750D02*
X0050097Y0223452D01*
X0049197Y0222552D01*
X0040434Y0254245D02*
X0032166Y0254245D01*
X0032166Y0254744D02*
X0040434Y0254744D01*
X0040434Y0255242D02*
X0032166Y0255242D01*
X0032166Y0255741D02*
X0040434Y0255741D01*
X0031434Y0255741D02*
X0023166Y0255741D01*
X0023166Y0255242D02*
X0031434Y0255242D01*
X0031434Y0254744D02*
X0023166Y0254744D01*
X0023166Y0254245D02*
X0031434Y0254245D01*
X0022434Y0254245D02*
X0014166Y0254245D01*
X0014166Y0254744D02*
X0022434Y0254744D01*
X0022434Y0255242D02*
X0014166Y0255242D01*
X0014166Y0255741D02*
X0022434Y0255741D01*
X0013434Y0255741D02*
X0005166Y0255741D01*
X0005166Y0255242D02*
X0013434Y0255242D01*
X0013434Y0254744D02*
X0005166Y0254744D01*
X0005166Y0254245D02*
X0013434Y0254245D01*
X0016900Y0198052D02*
X0016900Y0195800D01*
X0017350Y0195350D01*
X0018251Y0195350D01*
X0018702Y0195800D01*
X0018702Y0198052D01*
X0019847Y0198052D02*
X0021648Y0198052D01*
X0021648Y0197602D01*
X0019847Y0195800D01*
X0019847Y0195350D01*
X0005300Y0177500D02*
X0005303Y0177745D01*
X0005312Y0177991D01*
X0005327Y0178236D01*
X0005348Y0178480D01*
X0005375Y0178724D01*
X0005408Y0178967D01*
X0005447Y0179210D01*
X0005492Y0179451D01*
X0005543Y0179691D01*
X0005600Y0179930D01*
X0005662Y0180167D01*
X0005731Y0180403D01*
X0005805Y0180637D01*
X0005885Y0180869D01*
X0005970Y0181099D01*
X0006061Y0181327D01*
X0006158Y0181552D01*
X0006260Y0181776D01*
X0006368Y0181996D01*
X0006481Y0182214D01*
X0006599Y0182429D01*
X0006723Y0182641D01*
X0006851Y0182850D01*
X0006985Y0183056D01*
X0007124Y0183258D01*
X0007268Y0183457D01*
X0007417Y0183652D01*
X0007570Y0183844D01*
X0007728Y0184032D01*
X0007890Y0184216D01*
X0008058Y0184395D01*
X0008229Y0184571D01*
X0008405Y0184742D01*
X0008584Y0184910D01*
X0008768Y0185072D01*
X0008956Y0185230D01*
X0009148Y0185383D01*
X0009343Y0185532D01*
X0009542Y0185676D01*
X0009744Y0185815D01*
X0009950Y0185949D01*
X0010159Y0186077D01*
X0010371Y0186201D01*
X0010586Y0186319D01*
X0010804Y0186432D01*
X0011024Y0186540D01*
X0011248Y0186642D01*
X0011473Y0186739D01*
X0011701Y0186830D01*
X0011931Y0186915D01*
X0012163Y0186995D01*
X0012397Y0187069D01*
X0012633Y0187138D01*
X0012870Y0187200D01*
X0013109Y0187257D01*
X0013349Y0187308D01*
X0013590Y0187353D01*
X0013833Y0187392D01*
X0014076Y0187425D01*
X0014320Y0187452D01*
X0014564Y0187473D01*
X0014809Y0187488D01*
X0015055Y0187497D01*
X0015300Y0187500D01*
X0015545Y0187497D01*
X0015791Y0187488D01*
X0016036Y0187473D01*
X0016280Y0187452D01*
X0016524Y0187425D01*
X0016767Y0187392D01*
X0017010Y0187353D01*
X0017251Y0187308D01*
X0017491Y0187257D01*
X0017730Y0187200D01*
X0017967Y0187138D01*
X0018203Y0187069D01*
X0018437Y0186995D01*
X0018669Y0186915D01*
X0018899Y0186830D01*
X0019127Y0186739D01*
X0019352Y0186642D01*
X0019576Y0186540D01*
X0019796Y0186432D01*
X0020014Y0186319D01*
X0020229Y0186201D01*
X0020441Y0186077D01*
X0020650Y0185949D01*
X0020856Y0185815D01*
X0021058Y0185676D01*
X0021257Y0185532D01*
X0021452Y0185383D01*
X0021644Y0185230D01*
X0021832Y0185072D01*
X0022016Y0184910D01*
X0022195Y0184742D01*
X0022371Y0184571D01*
X0022542Y0184395D01*
X0022710Y0184216D01*
X0022872Y0184032D01*
X0023030Y0183844D01*
X0023183Y0183652D01*
X0023332Y0183457D01*
X0023476Y0183258D01*
X0023615Y0183056D01*
X0023749Y0182850D01*
X0023877Y0182641D01*
X0024001Y0182429D01*
X0024119Y0182214D01*
X0024232Y0181996D01*
X0024340Y0181776D01*
X0024442Y0181552D01*
X0024539Y0181327D01*
X0024630Y0181099D01*
X0024715Y0180869D01*
X0024795Y0180637D01*
X0024869Y0180403D01*
X0024938Y0180167D01*
X0025000Y0179930D01*
X0025057Y0179691D01*
X0025108Y0179451D01*
X0025153Y0179210D01*
X0025192Y0178967D01*
X0025225Y0178724D01*
X0025252Y0178480D01*
X0025273Y0178236D01*
X0025288Y0177991D01*
X0025297Y0177745D01*
X0025300Y0177500D01*
X0025297Y0177255D01*
X0025288Y0177009D01*
X0025273Y0176764D01*
X0025252Y0176520D01*
X0025225Y0176276D01*
X0025192Y0176033D01*
X0025153Y0175790D01*
X0025108Y0175549D01*
X0025057Y0175309D01*
X0025000Y0175070D01*
X0024938Y0174833D01*
X0024869Y0174597D01*
X0024795Y0174363D01*
X0024715Y0174131D01*
X0024630Y0173901D01*
X0024539Y0173673D01*
X0024442Y0173448D01*
X0024340Y0173224D01*
X0024232Y0173004D01*
X0024119Y0172786D01*
X0024001Y0172571D01*
X0023877Y0172359D01*
X0023749Y0172150D01*
X0023615Y0171944D01*
X0023476Y0171742D01*
X0023332Y0171543D01*
X0023183Y0171348D01*
X0023030Y0171156D01*
X0022872Y0170968D01*
X0022710Y0170784D01*
X0022542Y0170605D01*
X0022371Y0170429D01*
X0022195Y0170258D01*
X0022016Y0170090D01*
X0021832Y0169928D01*
X0021644Y0169770D01*
X0021452Y0169617D01*
X0021257Y0169468D01*
X0021058Y0169324D01*
X0020856Y0169185D01*
X0020650Y0169051D01*
X0020441Y0168923D01*
X0020229Y0168799D01*
X0020014Y0168681D01*
X0019796Y0168568D01*
X0019576Y0168460D01*
X0019352Y0168358D01*
X0019127Y0168261D01*
X0018899Y0168170D01*
X0018669Y0168085D01*
X0018437Y0168005D01*
X0018203Y0167931D01*
X0017967Y0167862D01*
X0017730Y0167800D01*
X0017491Y0167743D01*
X0017251Y0167692D01*
X0017010Y0167647D01*
X0016767Y0167608D01*
X0016524Y0167575D01*
X0016280Y0167548D01*
X0016036Y0167527D01*
X0015791Y0167512D01*
X0015545Y0167503D01*
X0015300Y0167500D01*
X0015055Y0167503D01*
X0014809Y0167512D01*
X0014564Y0167527D01*
X0014320Y0167548D01*
X0014076Y0167575D01*
X0013833Y0167608D01*
X0013590Y0167647D01*
X0013349Y0167692D01*
X0013109Y0167743D01*
X0012870Y0167800D01*
X0012633Y0167862D01*
X0012397Y0167931D01*
X0012163Y0168005D01*
X0011931Y0168085D01*
X0011701Y0168170D01*
X0011473Y0168261D01*
X0011248Y0168358D01*
X0011024Y0168460D01*
X0010804Y0168568D01*
X0010586Y0168681D01*
X0010371Y0168799D01*
X0010159Y0168923D01*
X0009950Y0169051D01*
X0009744Y0169185D01*
X0009542Y0169324D01*
X0009343Y0169468D01*
X0009148Y0169617D01*
X0008956Y0169770D01*
X0008768Y0169928D01*
X0008584Y0170090D01*
X0008405Y0170258D01*
X0008229Y0170429D01*
X0008058Y0170605D01*
X0007890Y0170784D01*
X0007728Y0170968D01*
X0007570Y0171156D01*
X0007417Y0171348D01*
X0007268Y0171543D01*
X0007124Y0171742D01*
X0006985Y0171944D01*
X0006851Y0172150D01*
X0006723Y0172359D01*
X0006599Y0172571D01*
X0006481Y0172786D01*
X0006368Y0173004D01*
X0006260Y0173224D01*
X0006158Y0173448D01*
X0006061Y0173673D01*
X0005970Y0173901D01*
X0005885Y0174131D01*
X0005805Y0174363D01*
X0005731Y0174597D01*
X0005662Y0174833D01*
X0005600Y0175070D01*
X0005543Y0175309D01*
X0005492Y0175549D01*
X0005447Y0175790D01*
X0005408Y0176033D01*
X0005375Y0176276D01*
X0005348Y0176520D01*
X0005327Y0176764D01*
X0005312Y0177009D01*
X0005303Y0177255D01*
X0005300Y0177500D01*
X0007348Y0187750D02*
X0007348Y0189552D01*
X0007348Y0188651D02*
X0010050Y0188651D01*
X0010050Y0190697D02*
X0007348Y0190697D01*
X0007348Y0192048D01*
X0007798Y0192498D01*
X0008699Y0192498D01*
X0009149Y0192048D01*
X0009149Y0190697D01*
X0009600Y0193643D02*
X0010050Y0194093D01*
X0010050Y0194994D01*
X0009600Y0195445D01*
X0009149Y0195445D01*
X0008699Y0194994D01*
X0008699Y0194544D01*
X0008699Y0194994D02*
X0008248Y0195445D01*
X0007798Y0195445D01*
X0007348Y0194994D01*
X0007348Y0194093D01*
X0007798Y0193643D01*
X0049556Y0130067D02*
X0053692Y0130067D01*
X0069206Y0163626D02*
X0071174Y0163626D01*
X0071174Y0165594D01*
X0069206Y0165594D01*
X0069206Y0163626D01*
X0069206Y0165594D01*
X0071174Y0165594D01*
X0071174Y0163626D01*
X0069206Y0163626D01*
X0069206Y0164015D02*
X0071174Y0164015D01*
X0071174Y0164513D02*
X0069206Y0164513D01*
X0069206Y0165012D02*
X0071174Y0165012D01*
X0071174Y0165510D02*
X0069206Y0165510D01*
X0071174Y0177406D02*
X0071174Y0179374D01*
X0069206Y0179374D01*
X0070126Y0181561D02*
X0071027Y0181561D01*
X0071478Y0182011D01*
X0071478Y0184263D01*
X0072623Y0183813D02*
X0073073Y0184263D01*
X0073974Y0184263D01*
X0074424Y0183813D01*
X0074424Y0183363D01*
X0072623Y0181561D01*
X0074424Y0181561D01*
X0070126Y0181561D02*
X0069676Y0182011D01*
X0069676Y0184263D01*
X0084457Y0160748D02*
X0104143Y0160748D01*
X0104143Y0146437D01*
X0100206Y0146437D01*
X0100206Y0138563D01*
X0104143Y0138563D01*
X0104143Y0124252D01*
X0084457Y0124252D01*
X0084457Y0160748D01*
X0076998Y0149452D02*
X0076998Y0149002D01*
X0075197Y0147200D01*
X0075197Y0146750D01*
X0074052Y0147200D02*
X0073601Y0146750D01*
X0072700Y0146750D01*
X0072250Y0147200D01*
X0072250Y0149002D01*
X0072700Y0149452D01*
X0073601Y0149452D01*
X0074052Y0149002D01*
X0075197Y0149452D02*
X0076998Y0149452D01*
X0093700Y0114452D02*
X0093250Y0114002D01*
X0093250Y0112200D01*
X0093700Y0111750D01*
X0094601Y0111750D01*
X0095052Y0112200D01*
X0096197Y0111750D02*
X0097998Y0111750D01*
X0097097Y0111750D02*
X0097097Y0114452D01*
X0096197Y0113552D01*
X0095052Y0114002D02*
X0094601Y0114452D01*
X0093700Y0114452D01*
X0099143Y0114002D02*
X0099593Y0114452D01*
X0100494Y0114452D01*
X0100945Y0114002D01*
X0100945Y0113552D01*
X0099143Y0111750D01*
X0100945Y0111750D01*
X0112250Y0130750D02*
X0112250Y0133452D01*
X0113601Y0133452D01*
X0114052Y0133002D01*
X0114052Y0132101D01*
X0113601Y0131651D01*
X0112250Y0131651D01*
X0113151Y0131651D02*
X0114052Y0130750D01*
X0115197Y0132101D02*
X0116998Y0132101D01*
X0116548Y0130750D02*
X0116548Y0133452D01*
X0115197Y0132101D01*
X0115647Y0148750D02*
X0115197Y0149200D01*
X0115647Y0148750D02*
X0116548Y0148750D01*
X0116998Y0149200D01*
X0116998Y0150101D01*
X0116548Y0150552D01*
X0116097Y0150552D01*
X0115197Y0150101D01*
X0115197Y0151452D01*
X0116998Y0151452D01*
X0114052Y0151002D02*
X0114052Y0150101D01*
X0113601Y0149651D01*
X0112250Y0149651D01*
X0113151Y0149651D02*
X0114052Y0148750D01*
X0114052Y0151002D02*
X0113601Y0151452D01*
X0112250Y0151452D01*
X0112250Y0148750D01*
X0109600Y0157750D02*
X0109600Y0160452D01*
X0108248Y0159101D01*
X0110050Y0159101D01*
X0107104Y0158200D02*
X0107104Y0160452D01*
X0107104Y0158200D02*
X0106653Y0157750D01*
X0105752Y0157750D01*
X0105302Y0158200D01*
X0105302Y0160452D01*
X0103151Y0163349D02*
X0103262Y0163666D01*
X0103300Y0164000D01*
X0103262Y0164334D01*
X0103151Y0164651D01*
X0102973Y0164935D01*
X0102735Y0165173D01*
X0102451Y0165351D01*
X0102134Y0165462D01*
X0101800Y0165500D01*
X0101466Y0165462D01*
X0101149Y0165351D01*
X0100865Y0165173D01*
X0100627Y0164935D01*
X0100449Y0164651D01*
X0100338Y0164334D01*
X0100300Y0164000D01*
X0100338Y0163666D01*
X0100449Y0163349D01*
X0100627Y0163065D01*
X0100865Y0162827D01*
X0101149Y0162649D01*
X0101466Y0162538D01*
X0101800Y0162500D01*
X0102134Y0162538D01*
X0102451Y0162649D01*
X0102735Y0162827D01*
X0102973Y0163065D01*
X0103151Y0163349D01*
X0103210Y0163516D02*
X0100390Y0163516D01*
X0100302Y0164015D02*
X0103298Y0164015D01*
X0103200Y0164513D02*
X0100400Y0164513D01*
X0100704Y0165012D02*
X0102896Y0165012D01*
X0102926Y0163018D02*
X0100674Y0163018D01*
X0101630Y0162519D02*
X0101970Y0162519D01*
X0104143Y0146437D02*
X0104143Y0138563D01*
X0083300Y0190500D02*
X0083303Y0190745D01*
X0083312Y0190991D01*
X0083327Y0191236D01*
X0083348Y0191480D01*
X0083375Y0191724D01*
X0083408Y0191967D01*
X0083447Y0192210D01*
X0083492Y0192451D01*
X0083543Y0192691D01*
X0083600Y0192930D01*
X0083662Y0193167D01*
X0083731Y0193403D01*
X0083805Y0193637D01*
X0083885Y0193869D01*
X0083970Y0194099D01*
X0084061Y0194327D01*
X0084158Y0194552D01*
X0084260Y0194776D01*
X0084368Y0194996D01*
X0084481Y0195214D01*
X0084599Y0195429D01*
X0084723Y0195641D01*
X0084851Y0195850D01*
X0084985Y0196056D01*
X0085124Y0196258D01*
X0085268Y0196457D01*
X0085417Y0196652D01*
X0085570Y0196844D01*
X0085728Y0197032D01*
X0085890Y0197216D01*
X0086058Y0197395D01*
X0086229Y0197571D01*
X0086405Y0197742D01*
X0086584Y0197910D01*
X0086768Y0198072D01*
X0086956Y0198230D01*
X0087148Y0198383D01*
X0087343Y0198532D01*
X0087542Y0198676D01*
X0087744Y0198815D01*
X0087950Y0198949D01*
X0088159Y0199077D01*
X0088371Y0199201D01*
X0088586Y0199319D01*
X0088804Y0199432D01*
X0089024Y0199540D01*
X0089248Y0199642D01*
X0089473Y0199739D01*
X0089701Y0199830D01*
X0089931Y0199915D01*
X0090163Y0199995D01*
X0090397Y0200069D01*
X0090633Y0200138D01*
X0090870Y0200200D01*
X0091109Y0200257D01*
X0091349Y0200308D01*
X0091590Y0200353D01*
X0091833Y0200392D01*
X0092076Y0200425D01*
X0092320Y0200452D01*
X0092564Y0200473D01*
X0092809Y0200488D01*
X0093055Y0200497D01*
X0093300Y0200500D01*
X0093545Y0200497D01*
X0093791Y0200488D01*
X0094036Y0200473D01*
X0094280Y0200452D01*
X0094524Y0200425D01*
X0094767Y0200392D01*
X0095010Y0200353D01*
X0095251Y0200308D01*
X0095491Y0200257D01*
X0095730Y0200200D01*
X0095967Y0200138D01*
X0096203Y0200069D01*
X0096437Y0199995D01*
X0096669Y0199915D01*
X0096899Y0199830D01*
X0097127Y0199739D01*
X0097352Y0199642D01*
X0097576Y0199540D01*
X0097796Y0199432D01*
X0098014Y0199319D01*
X0098229Y0199201D01*
X0098441Y0199077D01*
X0098650Y0198949D01*
X0098856Y0198815D01*
X0099058Y0198676D01*
X0099257Y0198532D01*
X0099452Y0198383D01*
X0099644Y0198230D01*
X0099832Y0198072D01*
X0100016Y0197910D01*
X0100195Y0197742D01*
X0100371Y0197571D01*
X0100542Y0197395D01*
X0100710Y0197216D01*
X0100872Y0197032D01*
X0101030Y0196844D01*
X0101183Y0196652D01*
X0101332Y0196457D01*
X0101476Y0196258D01*
X0101615Y0196056D01*
X0101749Y0195850D01*
X0101877Y0195641D01*
X0102001Y0195429D01*
X0102119Y0195214D01*
X0102232Y0194996D01*
X0102340Y0194776D01*
X0102442Y0194552D01*
X0102539Y0194327D01*
X0102630Y0194099D01*
X0102715Y0193869D01*
X0102795Y0193637D01*
X0102869Y0193403D01*
X0102938Y0193167D01*
X0103000Y0192930D01*
X0103057Y0192691D01*
X0103108Y0192451D01*
X0103153Y0192210D01*
X0103192Y0191967D01*
X0103225Y0191724D01*
X0103252Y0191480D01*
X0103273Y0191236D01*
X0103288Y0190991D01*
X0103297Y0190745D01*
X0103300Y0190500D01*
X0103297Y0190255D01*
X0103288Y0190009D01*
X0103273Y0189764D01*
X0103252Y0189520D01*
X0103225Y0189276D01*
X0103192Y0189033D01*
X0103153Y0188790D01*
X0103108Y0188549D01*
X0103057Y0188309D01*
X0103000Y0188070D01*
X0102938Y0187833D01*
X0102869Y0187597D01*
X0102795Y0187363D01*
X0102715Y0187131D01*
X0102630Y0186901D01*
X0102539Y0186673D01*
X0102442Y0186448D01*
X0102340Y0186224D01*
X0102232Y0186004D01*
X0102119Y0185786D01*
X0102001Y0185571D01*
X0101877Y0185359D01*
X0101749Y0185150D01*
X0101615Y0184944D01*
X0101476Y0184742D01*
X0101332Y0184543D01*
X0101183Y0184348D01*
X0101030Y0184156D01*
X0100872Y0183968D01*
X0100710Y0183784D01*
X0100542Y0183605D01*
X0100371Y0183429D01*
X0100195Y0183258D01*
X0100016Y0183090D01*
X0099832Y0182928D01*
X0099644Y0182770D01*
X0099452Y0182617D01*
X0099257Y0182468D01*
X0099058Y0182324D01*
X0098856Y0182185D01*
X0098650Y0182051D01*
X0098441Y0181923D01*
X0098229Y0181799D01*
X0098014Y0181681D01*
X0097796Y0181568D01*
X0097576Y0181460D01*
X0097352Y0181358D01*
X0097127Y0181261D01*
X0096899Y0181170D01*
X0096669Y0181085D01*
X0096437Y0181005D01*
X0096203Y0180931D01*
X0095967Y0180862D01*
X0095730Y0180800D01*
X0095491Y0180743D01*
X0095251Y0180692D01*
X0095010Y0180647D01*
X0094767Y0180608D01*
X0094524Y0180575D01*
X0094280Y0180548D01*
X0094036Y0180527D01*
X0093791Y0180512D01*
X0093545Y0180503D01*
X0093300Y0180500D01*
X0093055Y0180503D01*
X0092809Y0180512D01*
X0092564Y0180527D01*
X0092320Y0180548D01*
X0092076Y0180575D01*
X0091833Y0180608D01*
X0091590Y0180647D01*
X0091349Y0180692D01*
X0091109Y0180743D01*
X0090870Y0180800D01*
X0090633Y0180862D01*
X0090397Y0180931D01*
X0090163Y0181005D01*
X0089931Y0181085D01*
X0089701Y0181170D01*
X0089473Y0181261D01*
X0089248Y0181358D01*
X0089024Y0181460D01*
X0088804Y0181568D01*
X0088586Y0181681D01*
X0088371Y0181799D01*
X0088159Y0181923D01*
X0087950Y0182051D01*
X0087744Y0182185D01*
X0087542Y0182324D01*
X0087343Y0182468D01*
X0087148Y0182617D01*
X0086956Y0182770D01*
X0086768Y0182928D01*
X0086584Y0183090D01*
X0086405Y0183258D01*
X0086229Y0183429D01*
X0086058Y0183605D01*
X0085890Y0183784D01*
X0085728Y0183968D01*
X0085570Y0184156D01*
X0085417Y0184348D01*
X0085268Y0184543D01*
X0085124Y0184742D01*
X0084985Y0184944D01*
X0084851Y0185150D01*
X0084723Y0185359D01*
X0084599Y0185571D01*
X0084481Y0185786D01*
X0084368Y0186004D01*
X0084260Y0186224D01*
X0084158Y0186448D01*
X0084061Y0186673D01*
X0083970Y0186901D01*
X0083885Y0187131D01*
X0083805Y0187363D01*
X0083731Y0187597D01*
X0083662Y0187833D01*
X0083600Y0188070D01*
X0083543Y0188309D01*
X0083492Y0188549D01*
X0083447Y0188790D01*
X0083408Y0189033D01*
X0083375Y0189276D01*
X0083348Y0189520D01*
X0083327Y0189764D01*
X0083312Y0190009D01*
X0083303Y0190255D01*
X0083300Y0190500D01*
X0103550Y0198452D02*
X0105352Y0198452D01*
X0104451Y0198452D02*
X0104451Y0195750D01*
X0106497Y0195750D02*
X0106497Y0198452D01*
X0107848Y0198452D01*
X0108298Y0198002D01*
X0108298Y0197101D01*
X0107848Y0196651D01*
X0106497Y0196651D01*
X0109443Y0197101D02*
X0110344Y0197552D01*
X0110794Y0197552D01*
X0111245Y0197101D01*
X0111245Y0196200D01*
X0110794Y0195750D01*
X0109893Y0195750D01*
X0109443Y0196200D01*
X0109443Y0197101D02*
X0109443Y0198452D01*
X0111245Y0198452D01*
X0114250Y0197452D02*
X0114250Y0194750D01*
X0114250Y0195651D02*
X0115601Y0195651D01*
X0116052Y0196101D01*
X0116052Y0197002D01*
X0115601Y0197452D01*
X0114250Y0197452D01*
X0115151Y0195651D02*
X0116052Y0194750D01*
X0117197Y0195200D02*
X0117647Y0194750D01*
X0118548Y0194750D01*
X0118998Y0195200D01*
X0118998Y0197002D01*
X0118548Y0197452D01*
X0117647Y0197452D01*
X0117197Y0197002D01*
X0117197Y0196552D01*
X0117647Y0196101D01*
X0118998Y0196101D01*
X0111050Y0204415D02*
X0111050Y0205766D01*
X0110600Y0206217D01*
X0110149Y0206217D01*
X0109699Y0205766D01*
X0109699Y0204415D01*
X0111050Y0204415D02*
X0108348Y0204415D01*
X0108348Y0205766D01*
X0108798Y0206217D01*
X0109248Y0206217D01*
X0109699Y0205766D01*
X0108798Y0207362D02*
X0110600Y0207362D01*
X0111050Y0207812D01*
X0111050Y0208713D01*
X0110600Y0209163D01*
X0111050Y0210308D02*
X0111050Y0211660D01*
X0110600Y0212110D01*
X0108798Y0212110D01*
X0108348Y0211660D01*
X0108348Y0210308D01*
X0111050Y0210308D01*
X0112166Y0212232D02*
X0120434Y0212232D01*
X0120434Y0228768D01*
X0112166Y0228768D01*
X0112166Y0230835D01*
X0120434Y0230835D01*
X0120434Y0228768D01*
X0112166Y0228768D01*
X0112166Y0212232D01*
X0111500Y0213255D02*
X0111500Y0215056D01*
X0110600Y0216201D02*
X0111050Y0216652D01*
X0111050Y0217553D01*
X0110600Y0218003D01*
X0111050Y0219148D02*
X0108348Y0219148D01*
X0108798Y0218003D02*
X0108348Y0217553D01*
X0108348Y0216652D01*
X0108798Y0216201D01*
X0110600Y0216201D01*
X0109699Y0219148D02*
X0109699Y0220949D01*
X0109699Y0222094D02*
X0109699Y0223896D01*
X0109248Y0223896D02*
X0111050Y0223896D01*
X0111050Y0225041D02*
X0108348Y0225041D01*
X0108348Y0226392D01*
X0108798Y0226843D01*
X0109699Y0226843D01*
X0110149Y0226392D01*
X0110149Y0225041D01*
X0110149Y0225942D02*
X0111050Y0226843D01*
X0110600Y0227987D02*
X0111050Y0228438D01*
X0111050Y0229339D01*
X0110600Y0229789D01*
X0109699Y0229789D01*
X0109699Y0228888D01*
X0108798Y0227987D02*
X0110600Y0227987D01*
X0112166Y0228821D02*
X0120434Y0228821D01*
X0120434Y0229320D02*
X0112166Y0229320D01*
X0112166Y0229818D02*
X0120434Y0229818D01*
X0120434Y0230317D02*
X0112166Y0230317D01*
X0112166Y0230815D02*
X0120434Y0230815D01*
X0113245Y0244750D02*
X0111443Y0244750D01*
X0112344Y0244750D02*
X0112344Y0247452D01*
X0111443Y0246552D01*
X0110298Y0247002D02*
X0110298Y0246101D01*
X0109848Y0245651D01*
X0108497Y0245651D01*
X0108497Y0244750D02*
X0108497Y0247452D01*
X0109848Y0247452D01*
X0110298Y0247002D01*
X0107352Y0247452D02*
X0105550Y0247452D01*
X0106451Y0247452D02*
X0106451Y0244750D01*
X0108798Y0235682D02*
X0108348Y0235232D01*
X0108348Y0233881D01*
X0111050Y0233881D01*
X0110149Y0233881D02*
X0110149Y0235232D01*
X0109699Y0235682D01*
X0108798Y0235682D01*
X0110149Y0234781D02*
X0111050Y0235682D01*
X0111050Y0232736D02*
X0111050Y0230934D01*
X0108348Y0230934D01*
X0108348Y0232736D01*
X0109699Y0231835D02*
X0109699Y0230934D01*
X0108798Y0229789D02*
X0108348Y0229339D01*
X0108348Y0228438D01*
X0108798Y0227987D01*
X0109248Y0223896D02*
X0108348Y0222995D01*
X0109248Y0222094D01*
X0111050Y0222094D01*
X0111050Y0220949D02*
X0108348Y0220949D01*
X0108798Y0209163D02*
X0108348Y0208713D01*
X0108348Y0207812D01*
X0108798Y0207362D01*
X0085300Y0239500D02*
X0085303Y0239745D01*
X0085312Y0239991D01*
X0085327Y0240236D01*
X0085348Y0240480D01*
X0085375Y0240724D01*
X0085408Y0240967D01*
X0085447Y0241210D01*
X0085492Y0241451D01*
X0085543Y0241691D01*
X0085600Y0241930D01*
X0085662Y0242167D01*
X0085731Y0242403D01*
X0085805Y0242637D01*
X0085885Y0242869D01*
X0085970Y0243099D01*
X0086061Y0243327D01*
X0086158Y0243552D01*
X0086260Y0243776D01*
X0086368Y0243996D01*
X0086481Y0244214D01*
X0086599Y0244429D01*
X0086723Y0244641D01*
X0086851Y0244850D01*
X0086985Y0245056D01*
X0087124Y0245258D01*
X0087268Y0245457D01*
X0087417Y0245652D01*
X0087570Y0245844D01*
X0087728Y0246032D01*
X0087890Y0246216D01*
X0088058Y0246395D01*
X0088229Y0246571D01*
X0088405Y0246742D01*
X0088584Y0246910D01*
X0088768Y0247072D01*
X0088956Y0247230D01*
X0089148Y0247383D01*
X0089343Y0247532D01*
X0089542Y0247676D01*
X0089744Y0247815D01*
X0089950Y0247949D01*
X0090159Y0248077D01*
X0090371Y0248201D01*
X0090586Y0248319D01*
X0090804Y0248432D01*
X0091024Y0248540D01*
X0091248Y0248642D01*
X0091473Y0248739D01*
X0091701Y0248830D01*
X0091931Y0248915D01*
X0092163Y0248995D01*
X0092397Y0249069D01*
X0092633Y0249138D01*
X0092870Y0249200D01*
X0093109Y0249257D01*
X0093349Y0249308D01*
X0093590Y0249353D01*
X0093833Y0249392D01*
X0094076Y0249425D01*
X0094320Y0249452D01*
X0094564Y0249473D01*
X0094809Y0249488D01*
X0095055Y0249497D01*
X0095300Y0249500D01*
X0095545Y0249497D01*
X0095791Y0249488D01*
X0096036Y0249473D01*
X0096280Y0249452D01*
X0096524Y0249425D01*
X0096767Y0249392D01*
X0097010Y0249353D01*
X0097251Y0249308D01*
X0097491Y0249257D01*
X0097730Y0249200D01*
X0097967Y0249138D01*
X0098203Y0249069D01*
X0098437Y0248995D01*
X0098669Y0248915D01*
X0098899Y0248830D01*
X0099127Y0248739D01*
X0099352Y0248642D01*
X0099576Y0248540D01*
X0099796Y0248432D01*
X0100014Y0248319D01*
X0100229Y0248201D01*
X0100441Y0248077D01*
X0100650Y0247949D01*
X0100856Y0247815D01*
X0101058Y0247676D01*
X0101257Y0247532D01*
X0101452Y0247383D01*
X0101644Y0247230D01*
X0101832Y0247072D01*
X0102016Y0246910D01*
X0102195Y0246742D01*
X0102371Y0246571D01*
X0102542Y0246395D01*
X0102710Y0246216D01*
X0102872Y0246032D01*
X0103030Y0245844D01*
X0103183Y0245652D01*
X0103332Y0245457D01*
X0103476Y0245258D01*
X0103615Y0245056D01*
X0103749Y0244850D01*
X0103877Y0244641D01*
X0104001Y0244429D01*
X0104119Y0244214D01*
X0104232Y0243996D01*
X0104340Y0243776D01*
X0104442Y0243552D01*
X0104539Y0243327D01*
X0104630Y0243099D01*
X0104715Y0242869D01*
X0104795Y0242637D01*
X0104869Y0242403D01*
X0104938Y0242167D01*
X0105000Y0241930D01*
X0105057Y0241691D01*
X0105108Y0241451D01*
X0105153Y0241210D01*
X0105192Y0240967D01*
X0105225Y0240724D01*
X0105252Y0240480D01*
X0105273Y0240236D01*
X0105288Y0239991D01*
X0105297Y0239745D01*
X0105300Y0239500D01*
X0105297Y0239255D01*
X0105288Y0239009D01*
X0105273Y0238764D01*
X0105252Y0238520D01*
X0105225Y0238276D01*
X0105192Y0238033D01*
X0105153Y0237790D01*
X0105108Y0237549D01*
X0105057Y0237309D01*
X0105000Y0237070D01*
X0104938Y0236833D01*
X0104869Y0236597D01*
X0104795Y0236363D01*
X0104715Y0236131D01*
X0104630Y0235901D01*
X0104539Y0235673D01*
X0104442Y0235448D01*
X0104340Y0235224D01*
X0104232Y0235004D01*
X0104119Y0234786D01*
X0104001Y0234571D01*
X0103877Y0234359D01*
X0103749Y0234150D01*
X0103615Y0233944D01*
X0103476Y0233742D01*
X0103332Y0233543D01*
X0103183Y0233348D01*
X0103030Y0233156D01*
X0102872Y0232968D01*
X0102710Y0232784D01*
X0102542Y0232605D01*
X0102371Y0232429D01*
X0102195Y0232258D01*
X0102016Y0232090D01*
X0101832Y0231928D01*
X0101644Y0231770D01*
X0101452Y0231617D01*
X0101257Y0231468D01*
X0101058Y0231324D01*
X0100856Y0231185D01*
X0100650Y0231051D01*
X0100441Y0230923D01*
X0100229Y0230799D01*
X0100014Y0230681D01*
X0099796Y0230568D01*
X0099576Y0230460D01*
X0099352Y0230358D01*
X0099127Y0230261D01*
X0098899Y0230170D01*
X0098669Y0230085D01*
X0098437Y0230005D01*
X0098203Y0229931D01*
X0097967Y0229862D01*
X0097730Y0229800D01*
X0097491Y0229743D01*
X0097251Y0229692D01*
X0097010Y0229647D01*
X0096767Y0229608D01*
X0096524Y0229575D01*
X0096280Y0229548D01*
X0096036Y0229527D01*
X0095791Y0229512D01*
X0095545Y0229503D01*
X0095300Y0229500D01*
X0095055Y0229503D01*
X0094809Y0229512D01*
X0094564Y0229527D01*
X0094320Y0229548D01*
X0094076Y0229575D01*
X0093833Y0229608D01*
X0093590Y0229647D01*
X0093349Y0229692D01*
X0093109Y0229743D01*
X0092870Y0229800D01*
X0092633Y0229862D01*
X0092397Y0229931D01*
X0092163Y0230005D01*
X0091931Y0230085D01*
X0091701Y0230170D01*
X0091473Y0230261D01*
X0091248Y0230358D01*
X0091024Y0230460D01*
X0090804Y0230568D01*
X0090586Y0230681D01*
X0090371Y0230799D01*
X0090159Y0230923D01*
X0089950Y0231051D01*
X0089744Y0231185D01*
X0089542Y0231324D01*
X0089343Y0231468D01*
X0089148Y0231617D01*
X0088956Y0231770D01*
X0088768Y0231928D01*
X0088584Y0232090D01*
X0088405Y0232258D01*
X0088229Y0232429D01*
X0088058Y0232605D01*
X0087890Y0232784D01*
X0087728Y0232968D01*
X0087570Y0233156D01*
X0087417Y0233348D01*
X0087268Y0233543D01*
X0087124Y0233742D01*
X0086985Y0233944D01*
X0086851Y0234150D01*
X0086723Y0234359D01*
X0086599Y0234571D01*
X0086481Y0234786D01*
X0086368Y0235004D01*
X0086260Y0235224D01*
X0086158Y0235448D01*
X0086061Y0235673D01*
X0085970Y0235901D01*
X0085885Y0236131D01*
X0085805Y0236363D01*
X0085731Y0236597D01*
X0085662Y0236833D01*
X0085600Y0237070D01*
X0085543Y0237309D01*
X0085492Y0237549D01*
X0085447Y0237790D01*
X0085408Y0238033D01*
X0085375Y0238276D01*
X0085348Y0238520D01*
X0085327Y0238764D01*
X0085312Y0239009D01*
X0085303Y0239255D01*
X0085300Y0239500D01*
X0085402Y0252172D02*
X0085852Y0252172D01*
X0086303Y0252622D01*
X0086303Y0254874D01*
X0086753Y0254874D02*
X0085852Y0254874D01*
X0084952Y0252622D02*
X0085402Y0252172D01*
X0087898Y0252172D02*
X0089700Y0252172D01*
X0088799Y0252172D02*
X0088799Y0254874D01*
X0087898Y0253974D01*
X0107977Y0074763D02*
X0109778Y0072061D01*
X0110923Y0072061D02*
X0112725Y0072061D01*
X0111824Y0072061D02*
X0111824Y0074763D01*
X0110923Y0073863D01*
X0109778Y0074763D02*
X0107977Y0072061D01*
X0107564Y0068273D02*
X0109139Y0068273D01*
X0107564Y0068273D02*
X0107564Y0039927D01*
X0109139Y0039927D01*
X0117013Y0039927D02*
X0118587Y0039927D01*
X0126461Y0039927D02*
X0128036Y0039927D01*
X0128036Y0068273D01*
X0126461Y0068273D01*
X0118587Y0068273D02*
X0117013Y0068273D01*
X0095494Y0044452D02*
X0095494Y0041750D01*
X0095945Y0043101D02*
X0094143Y0043101D01*
X0095494Y0044452D01*
X0092998Y0041750D02*
X0091197Y0041750D01*
X0092097Y0041750D02*
X0092097Y0044452D01*
X0091197Y0043552D01*
X0090052Y0044002D02*
X0089601Y0044452D01*
X0088700Y0044452D01*
X0088250Y0044002D01*
X0088250Y0042200D01*
X0088700Y0041750D01*
X0089601Y0041750D01*
X0090052Y0042200D01*
X0090700Y0063750D02*
X0091601Y0063750D01*
X0092052Y0064200D01*
X0093197Y0064200D02*
X0093647Y0063750D01*
X0094548Y0063750D01*
X0094998Y0064200D01*
X0094998Y0064651D01*
X0094548Y0065101D01*
X0093197Y0065101D01*
X0093197Y0064200D01*
X0093197Y0065101D02*
X0094097Y0066002D01*
X0094998Y0066452D01*
X0092052Y0066002D02*
X0091601Y0066452D01*
X0090700Y0066452D01*
X0090250Y0066002D01*
X0090250Y0064200D01*
X0090700Y0063750D01*
X0046598Y0022752D02*
X0044797Y0022752D01*
X0044797Y0021401D01*
X0045697Y0021852D01*
X0046148Y0021852D01*
X0046598Y0021401D01*
X0046598Y0020500D01*
X0046148Y0020050D01*
X0045247Y0020050D01*
X0044797Y0020500D01*
X0043652Y0020500D02*
X0043201Y0020050D01*
X0042300Y0020050D01*
X0041850Y0020500D01*
X0041850Y0022302D01*
X0042300Y0022752D01*
X0043201Y0022752D01*
X0043652Y0022302D01*
D12*
X0047600Y0022800D02*
X0047600Y0016800D01*
X0060200Y0016800D01*
X0060200Y0022800D01*
X0047600Y0022800D01*
X0015300Y0043100D02*
X0009300Y0043100D01*
X0009300Y0055700D01*
X0015300Y0055700D01*
X0015300Y0043100D01*
X0044400Y0087900D02*
X0044400Y0093900D01*
X0057000Y0093900D01*
X0057000Y0087900D01*
X0044400Y0087900D01*
X0059000Y0112500D02*
X0059000Y0118500D01*
X0071600Y0118500D01*
X0071600Y0112500D01*
X0059000Y0112500D01*
X0071300Y0150200D02*
X0071300Y0162800D01*
X0077300Y0162800D01*
X0077300Y0150200D01*
X0071300Y0150200D01*
X0061600Y0184500D02*
X0055600Y0184500D01*
X0055600Y0197100D01*
X0061600Y0197100D01*
X0061600Y0184500D01*
X0053600Y0187500D02*
X0041000Y0187500D01*
X0041000Y0193500D01*
X0041000Y0199500D01*
X0053600Y0199500D01*
X0053600Y0193500D01*
X0041000Y0193500D01*
X0053600Y0193500D01*
X0053600Y0187500D01*
X0049300Y0181800D02*
X0049300Y0169200D01*
X0043300Y0169200D01*
X0037300Y0169200D01*
X0037300Y0181800D01*
X0043300Y0181800D01*
X0043300Y0169200D01*
X0043300Y0181800D01*
X0049300Y0181800D01*
X0045249Y0164531D02*
X0045249Y0155869D01*
X0026351Y0155869D01*
X0026351Y0164531D01*
X0045249Y0164531D01*
X0042100Y0155700D02*
X0042100Y0149700D01*
X0029500Y0149700D01*
X0029500Y0155700D01*
X0042100Y0155700D01*
X0025549Y0158269D02*
X0025549Y0166931D01*
X0006651Y0166931D01*
X0006651Y0158269D01*
X0025549Y0158269D01*
X0024600Y0157500D02*
X0024600Y0151500D01*
X0012000Y0151500D01*
X0012000Y0157500D01*
X0024600Y0157500D01*
X0024300Y0201200D02*
X0024300Y0213800D01*
X0030300Y0213800D01*
X0030300Y0201200D01*
X0024300Y0201200D01*
X0021300Y0201200D02*
X0015300Y0201200D01*
X0015300Y0213800D01*
X0021300Y0213800D01*
X0021300Y0201200D01*
X0012300Y0201200D02*
X0006300Y0201200D01*
X0006300Y0213800D01*
X0012300Y0213800D01*
X0012300Y0201200D01*
X0033300Y0207200D02*
X0033300Y0219800D01*
X0039300Y0219800D01*
X0039300Y0207200D01*
X0033300Y0207200D01*
X0039300Y0207200D02*
X0039300Y0219800D01*
X0045300Y0219800D01*
X0045300Y0207200D01*
X0039300Y0207200D01*
X0045300Y0207200D02*
X0045300Y0219800D01*
X0051300Y0219800D01*
X0051300Y0207200D01*
X0045300Y0207200D01*
X0051300Y0207200D02*
X0051300Y0219800D01*
X0057300Y0219800D01*
X0063300Y0219800D01*
X0063300Y0207200D01*
X0057300Y0207200D01*
X0057300Y0219800D01*
X0057300Y0207200D01*
X0051300Y0207200D01*
X0063300Y0207200D02*
X0069300Y0207200D01*
X0069300Y0219800D01*
X0063300Y0219800D01*
X0063300Y0207200D01*
X0069300Y0207200D02*
X0069300Y0219800D01*
X0075300Y0219800D01*
X0081300Y0219800D01*
X0081300Y0207200D01*
X0075300Y0207200D01*
X0075300Y0219800D01*
X0075300Y0207200D01*
X0069300Y0207200D01*
X0081300Y0207200D02*
X0081300Y0219800D01*
X0087300Y0219800D01*
X0087300Y0207200D01*
X0081300Y0207200D01*
X0105000Y0147500D02*
X0105000Y0141500D01*
X0117600Y0141500D01*
X0117600Y0147500D01*
X0105000Y0147500D01*
X0105000Y0140500D02*
X0105000Y0134500D01*
X0117600Y0134500D01*
X0117600Y0140500D01*
X0105000Y0140500D01*
X0105600Y0121500D02*
X0105600Y0115500D01*
X0093000Y0115500D01*
X0093000Y0121500D01*
X0105600Y0121500D01*
X0098600Y0062500D02*
X0086000Y0062500D01*
X0086000Y0056500D01*
X0098600Y0056500D01*
X0098600Y0062500D01*
X0098600Y0051500D02*
X0098600Y0045500D01*
X0086000Y0045500D01*
X0086000Y0051500D01*
X0098600Y0051500D01*
X0113300Y0198200D02*
X0113300Y0210800D01*
X0119300Y0210800D01*
X0119300Y0198200D01*
X0113300Y0198200D01*
D13*
X0052267Y0133002D02*
X0049198Y0133002D01*
X0050733Y0134537D02*
X0050733Y0131467D01*
D14*
X0050308Y0227177D02*
X0049048Y0227177D01*
X0045702Y0234264D02*
X0045702Y0244854D01*
X0045702Y0256272D02*
X0045702Y0257335D01*
X0062670Y0227177D02*
X0063930Y0227177D01*
X0076292Y0227177D02*
X0077552Y0227177D01*
X0080898Y0234264D02*
X0080898Y0244854D01*
X0080898Y0256272D02*
X0080898Y0257335D01*
D15*
X0017311Y0139820D02*
X0015910Y0139120D01*
X0014509Y0137718D01*
X0016610Y0137718D01*
X0017311Y0137018D01*
X0017311Y0136317D01*
X0016610Y0135617D01*
X0015209Y0135617D01*
X0014509Y0136317D01*
X0014509Y0137718D01*
X0012707Y0136317D02*
X0012707Y0139820D01*
X0012707Y0136317D02*
X0012007Y0135617D01*
X0010605Y0135617D01*
X0009905Y0136317D01*
X0009905Y0139820D01*
D16*
X0023350Y0185850D02*
X0023350Y0199550D01*
X0041050Y0199550D01*
X0041050Y0185850D01*
X0023350Y0185850D01*
M02*
