G75*
%MOIN*%
%OFA0B0*%
%FSLAX25Y25*%
%IPPOS*%
%LPD*%
%AMOC8*
5,1,8,0,0,1.08239X$1,22.5*
%
%ADD10C,0.00000*%
%ADD11C,0.04731*%
%ADD12C,0.08077*%
%ADD13C,0.05124*%
D10*
X0001300Y0001500D02*
X0001300Y0257500D01*
X0129221Y0257500D01*
X0129221Y0001500D01*
X0001300Y0001500D01*
D11*
X0046292Y0227531D02*
X0046292Y0231469D01*
X0046292Y0231469D01*
X0046292Y0227531D01*
X0046292Y0227531D01*
X0046292Y0247649D02*
X0046292Y0253555D01*
X0046292Y0253555D01*
X0046292Y0247649D01*
X0046292Y0247649D01*
X0046292Y0252379D02*
X0046292Y0252379D01*
X0080308Y0253555D02*
X0080308Y0247649D01*
X0080308Y0253555D02*
X0080308Y0253555D01*
X0080308Y0247649D01*
X0080308Y0247649D01*
X0080308Y0252379D02*
X0080308Y0252379D01*
X0080308Y0231469D02*
X0080308Y0227531D01*
X0080308Y0231469D02*
X0080308Y0231469D01*
X0080308Y0227531D01*
X0080308Y0227531D01*
D12*
X0095300Y0239500D03*
X0093300Y0190500D03*
X0018300Y0095500D03*
X0015300Y0177500D03*
D13*
X0019300Y0007500D03*
X0029300Y0007500D03*
X0039300Y0007500D03*
X0049300Y0007500D03*
X0059300Y0007500D03*
X0069300Y0007500D03*
X0079300Y0007500D03*
X0089300Y0007500D03*
M02*
