G75*
%MOIN*%
%OFA0B0*%
%FSLAX25Y25*%
%IPPOS*%
%LPD*%
%AMOC8*
5,1,8,0,0,1.08239X$1,22.5*
%
%ADD10C,0.00000*%
%ADD11C,0.00500*%
%ADD12R,0.03937X0.04331*%
%ADD13R,0.04331X0.03937*%
%ADD14R,0.02559X0.11811*%
%ADD15R,0.06299X0.07087*%
%ADD16R,0.01181X0.02756*%
%ADD17R,0.03937X0.02756*%
%ADD18C,0.04331*%
%ADD19R,0.01575X0.07480*%
%ADD20R,0.07480X0.01575*%
%ADD21R,0.01378X0.03543*%
%ADD22R,0.03543X0.01378*%
%ADD23R,0.01969X0.07874*%
%ADD24R,0.15748X0.05906*%
%ADD25R,0.03937X0.05906*%
%ADD26R,0.05512X0.03937*%
%ADD27R,0.05512X0.08661*%
%ADD28R,0.05512X0.09449*%
D10*
X0001300Y0001500D02*
X0001300Y0257500D01*
X0129221Y0257500D01*
X0129221Y0001500D01*
X0001300Y0001500D01*
D11*
X0060300Y0168500D02*
X0060300Y0170500D01*
X0062300Y0170500D01*
X0062300Y0168500D01*
X0060300Y0168500D01*
X0060300Y0168501D02*
X0062300Y0168501D01*
X0062300Y0169000D02*
X0060300Y0169000D01*
X0060300Y0169498D02*
X0062300Y0169498D01*
X0062300Y0169997D02*
X0060300Y0169997D01*
X0060300Y0170495D02*
X0062300Y0170495D01*
X0062300Y0172500D02*
X0060300Y0172500D01*
X0060300Y0174500D01*
X0062300Y0174500D01*
X0062300Y0172500D01*
X0062300Y0172988D02*
X0060300Y0172988D01*
X0060300Y0173486D02*
X0062300Y0173486D01*
X0062300Y0173985D02*
X0060300Y0173985D01*
X0060300Y0174483D02*
X0062300Y0174483D01*
X0064300Y0174483D02*
X0066300Y0174483D01*
X0066300Y0174500D02*
X0066300Y0172500D01*
X0064300Y0172500D01*
X0064300Y0174500D01*
X0066300Y0174500D01*
X0066300Y0173985D02*
X0064300Y0173985D01*
X0064300Y0173486D02*
X0066300Y0173486D01*
X0066300Y0172988D02*
X0064300Y0172988D01*
X0064300Y0170500D02*
X0066300Y0170500D01*
X0066300Y0168500D01*
X0064300Y0168500D01*
X0064300Y0170500D01*
X0064300Y0170495D02*
X0066300Y0170495D01*
X0066300Y0169997D02*
X0064300Y0169997D01*
X0064300Y0169498D02*
X0066300Y0169498D01*
X0066300Y0169000D02*
X0064300Y0169000D01*
X0064300Y0168501D02*
X0066300Y0168501D01*
X0038269Y0239201D02*
X0034331Y0239201D01*
X0034331Y0243531D01*
X0035119Y0243531D01*
X0035119Y0242350D01*
X0037481Y0242350D01*
X0037481Y0243531D01*
X0038269Y0243531D01*
X0038269Y0239201D01*
X0038269Y0239290D02*
X0034331Y0239290D01*
X0034331Y0239788D02*
X0038269Y0239788D01*
X0038269Y0240287D02*
X0034331Y0240287D01*
X0034331Y0240785D02*
X0038269Y0240785D01*
X0038269Y0241284D02*
X0034331Y0241284D01*
X0034331Y0241782D02*
X0038269Y0241782D01*
X0038269Y0242281D02*
X0034331Y0242281D01*
X0034331Y0242779D02*
X0035119Y0242779D01*
X0035119Y0243278D02*
X0034331Y0243278D01*
X0034331Y0247469D02*
X0034331Y0251799D01*
X0038269Y0251799D01*
X0038269Y0247469D01*
X0037481Y0247469D01*
X0037481Y0248650D01*
X0035119Y0248650D01*
X0035119Y0247469D01*
X0034331Y0247469D01*
X0034331Y0247765D02*
X0035119Y0247765D01*
X0035119Y0248263D02*
X0034331Y0248263D01*
X0034331Y0248762D02*
X0038269Y0248762D01*
X0038269Y0249260D02*
X0034331Y0249260D01*
X0034331Y0249759D02*
X0038269Y0249759D01*
X0038269Y0250257D02*
X0034331Y0250257D01*
X0034331Y0250756D02*
X0038269Y0250756D01*
X0038269Y0251254D02*
X0034331Y0251254D01*
X0034331Y0251753D02*
X0038269Y0251753D01*
X0038269Y0248263D02*
X0037481Y0248263D01*
X0037481Y0247765D02*
X0038269Y0247765D01*
X0038269Y0243278D02*
X0037481Y0243278D01*
X0037481Y0242779D02*
X0038269Y0242779D01*
X0029269Y0242779D02*
X0028481Y0242779D01*
X0028481Y0242350D02*
X0028481Y0243531D01*
X0029269Y0243531D01*
X0029269Y0239201D01*
X0025331Y0239201D01*
X0025331Y0243531D01*
X0026119Y0243531D01*
X0026119Y0242350D01*
X0028481Y0242350D01*
X0029269Y0242281D02*
X0025331Y0242281D01*
X0025331Y0242779D02*
X0026119Y0242779D01*
X0026119Y0243278D02*
X0025331Y0243278D01*
X0025331Y0241782D02*
X0029269Y0241782D01*
X0029269Y0241284D02*
X0025331Y0241284D01*
X0025331Y0240785D02*
X0029269Y0240785D01*
X0029269Y0240287D02*
X0025331Y0240287D01*
X0025331Y0239788D02*
X0029269Y0239788D01*
X0029269Y0239290D02*
X0025331Y0239290D01*
X0028481Y0243278D02*
X0029269Y0243278D01*
X0029269Y0247469D02*
X0028481Y0247469D01*
X0028481Y0248650D01*
X0026119Y0248650D01*
X0026119Y0247469D01*
X0025331Y0247469D01*
X0025331Y0251799D01*
X0029269Y0251799D01*
X0029269Y0247469D01*
X0029269Y0247765D02*
X0028481Y0247765D01*
X0028481Y0248263D02*
X0029269Y0248263D01*
X0029269Y0248762D02*
X0025331Y0248762D01*
X0025331Y0249260D02*
X0029269Y0249260D01*
X0029269Y0249759D02*
X0025331Y0249759D01*
X0025331Y0250257D02*
X0029269Y0250257D01*
X0029269Y0250756D02*
X0025331Y0250756D01*
X0025331Y0251254D02*
X0029269Y0251254D01*
X0029269Y0251753D02*
X0025331Y0251753D01*
X0025331Y0248263D02*
X0026119Y0248263D01*
X0026119Y0247765D02*
X0025331Y0247765D01*
X0020269Y0247765D02*
X0019481Y0247765D01*
X0019481Y0247469D02*
X0019481Y0248650D01*
X0017119Y0248650D01*
X0017119Y0247469D01*
X0016331Y0247469D01*
X0016331Y0251799D01*
X0020269Y0251799D01*
X0020269Y0247469D01*
X0019481Y0247469D01*
X0019481Y0248263D02*
X0020269Y0248263D01*
X0020269Y0248762D02*
X0016331Y0248762D01*
X0016331Y0249260D02*
X0020269Y0249260D01*
X0020269Y0249759D02*
X0016331Y0249759D01*
X0016331Y0250257D02*
X0020269Y0250257D01*
X0020269Y0250756D02*
X0016331Y0250756D01*
X0016331Y0251254D02*
X0020269Y0251254D01*
X0020269Y0251753D02*
X0016331Y0251753D01*
X0016331Y0248263D02*
X0017119Y0248263D01*
X0017119Y0247765D02*
X0016331Y0247765D01*
X0016331Y0243531D02*
X0017119Y0243531D01*
X0017119Y0242350D01*
X0019481Y0242350D01*
X0019481Y0243531D01*
X0020269Y0243531D01*
X0020269Y0239201D01*
X0016331Y0239201D01*
X0016331Y0243531D01*
X0016331Y0243278D02*
X0017119Y0243278D01*
X0017119Y0242779D02*
X0016331Y0242779D01*
X0016331Y0242281D02*
X0020269Y0242281D01*
X0020269Y0242779D02*
X0019481Y0242779D01*
X0019481Y0243278D02*
X0020269Y0243278D01*
X0020269Y0241782D02*
X0016331Y0241782D01*
X0016331Y0241284D02*
X0020269Y0241284D01*
X0020269Y0240785D02*
X0016331Y0240785D01*
X0016331Y0240287D02*
X0020269Y0240287D01*
X0020269Y0239788D02*
X0016331Y0239788D01*
X0016331Y0239290D02*
X0020269Y0239290D01*
X0011269Y0239290D02*
X0007331Y0239290D01*
X0007331Y0239201D02*
X0011269Y0239201D01*
X0011269Y0243531D01*
X0010481Y0243531D01*
X0010481Y0242350D01*
X0008119Y0242350D01*
X0008119Y0243531D01*
X0007331Y0243531D01*
X0007331Y0239201D01*
X0007331Y0239788D02*
X0011269Y0239788D01*
X0011269Y0240287D02*
X0007331Y0240287D01*
X0007331Y0240785D02*
X0011269Y0240785D01*
X0011269Y0241284D02*
X0007331Y0241284D01*
X0007331Y0241782D02*
X0011269Y0241782D01*
X0011269Y0242281D02*
X0007331Y0242281D01*
X0007331Y0242779D02*
X0008119Y0242779D01*
X0008119Y0243278D02*
X0007331Y0243278D01*
X0007331Y0247469D02*
X0007331Y0251799D01*
X0011269Y0251799D01*
X0011269Y0247469D01*
X0010481Y0247469D01*
X0010481Y0248650D01*
X0008119Y0248650D01*
X0008119Y0247469D01*
X0007331Y0247469D01*
X0007331Y0247765D02*
X0008119Y0247765D01*
X0008119Y0248263D02*
X0007331Y0248263D01*
X0007331Y0248762D02*
X0011269Y0248762D01*
X0011269Y0249260D02*
X0007331Y0249260D01*
X0007331Y0249759D02*
X0011269Y0249759D01*
X0011269Y0250257D02*
X0007331Y0250257D01*
X0007331Y0250756D02*
X0011269Y0250756D01*
X0011269Y0251254D02*
X0007331Y0251254D01*
X0007331Y0251753D02*
X0011269Y0251753D01*
X0011269Y0248263D02*
X0010481Y0248263D01*
X0010481Y0247765D02*
X0011269Y0247765D01*
X0011269Y0243278D02*
X0010481Y0243278D01*
X0010481Y0242779D02*
X0011269Y0242779D01*
X0114331Y0226799D02*
X0114331Y0222469D01*
X0115119Y0222469D01*
X0115119Y0223650D01*
X0117481Y0223650D01*
X0117481Y0222469D01*
X0118269Y0222469D01*
X0118269Y0226799D01*
X0114331Y0226799D01*
X0114331Y0226329D02*
X0118269Y0226329D01*
X0118269Y0225830D02*
X0114331Y0225830D01*
X0114331Y0225332D02*
X0118269Y0225332D01*
X0118269Y0224833D02*
X0114331Y0224833D01*
X0114331Y0224335D02*
X0118269Y0224335D01*
X0118269Y0223836D02*
X0114331Y0223836D01*
X0114331Y0223338D02*
X0115119Y0223338D01*
X0115119Y0222839D02*
X0114331Y0222839D01*
X0117481Y0222839D02*
X0118269Y0222839D01*
X0118269Y0223338D02*
X0117481Y0223338D01*
X0117481Y0218531D02*
X0118269Y0218531D01*
X0118269Y0214201D01*
X0114331Y0214201D01*
X0114331Y0218531D01*
X0115119Y0218531D01*
X0115119Y0217350D01*
X0117481Y0217350D01*
X0117481Y0218531D01*
X0117481Y0218352D02*
X0118269Y0218352D01*
X0118269Y0217854D02*
X0117481Y0217854D01*
X0117481Y0217355D02*
X0118269Y0217355D01*
X0118269Y0216857D02*
X0114331Y0216857D01*
X0114331Y0217355D02*
X0115119Y0217355D01*
X0115119Y0217854D02*
X0114331Y0217854D01*
X0114331Y0218352D02*
X0115119Y0218352D01*
X0114331Y0216358D02*
X0118269Y0216358D01*
X0118269Y0215860D02*
X0114331Y0215860D01*
X0114331Y0215361D02*
X0118269Y0215361D01*
X0118269Y0214863D02*
X0114331Y0214863D01*
X0114331Y0214364D02*
X0118269Y0214364D01*
D12*
X0116300Y0207846D03*
X0116300Y0201154D03*
X0084300Y0210154D03*
X0084300Y0216846D03*
X0078300Y0216846D03*
X0078300Y0210154D03*
X0072300Y0210154D03*
X0072300Y0216846D03*
X0066300Y0216846D03*
X0066300Y0210154D03*
X0060300Y0210154D03*
X0060300Y0216846D03*
X0054300Y0216846D03*
X0054300Y0210154D03*
X0048300Y0210154D03*
X0048300Y0216846D03*
X0042300Y0216846D03*
X0042300Y0210154D03*
X0036300Y0210154D03*
X0036300Y0216846D03*
X0027300Y0210846D03*
X0027300Y0204154D03*
X0018300Y0204154D03*
X0018300Y0210846D03*
X0009300Y0210846D03*
X0009300Y0204154D03*
X0040300Y0178846D03*
X0040300Y0172154D03*
X0046300Y0172154D03*
X0046300Y0178846D03*
X0058600Y0187454D03*
X0058600Y0194146D03*
X0074300Y0159846D03*
X0074300Y0153154D03*
X0012300Y0052746D03*
X0012300Y0046054D03*
D13*
X0047354Y0090900D03*
X0054046Y0090900D03*
X0061954Y0115500D03*
X0068646Y0115500D03*
X0095954Y0118500D03*
X0102646Y0118500D03*
X0107954Y0137500D03*
X0107954Y0144500D03*
X0114646Y0144500D03*
X0114646Y0137500D03*
X0095646Y0059500D03*
X0095646Y0048500D03*
X0088954Y0048500D03*
X0088954Y0059500D03*
X0057246Y0019800D03*
X0050554Y0019800D03*
X0039146Y0152700D03*
X0032454Y0152700D03*
X0021646Y0154500D03*
X0014954Y0154500D03*
X0043954Y0190500D03*
X0043954Y0196500D03*
X0050646Y0196500D03*
X0050646Y0190500D03*
D14*
X0056300Y0149358D03*
X0056300Y0131642D03*
D15*
X0041312Y0160200D03*
X0030288Y0160200D03*
X0021612Y0162600D03*
X0010588Y0162600D03*
D16*
X0051489Y0227886D03*
X0053457Y0227886D03*
X0055426Y0227886D03*
X0057394Y0227886D03*
X0059363Y0227886D03*
X0061331Y0227886D03*
X0060347Y0233004D03*
X0062316Y0233004D03*
X0064284Y0233004D03*
X0066253Y0233004D03*
X0068221Y0233004D03*
X0070190Y0233004D03*
X0072158Y0233004D03*
X0071174Y0227886D03*
X0069206Y0227886D03*
X0067237Y0227886D03*
X0065269Y0227886D03*
X0058379Y0233004D03*
X0056410Y0233004D03*
X0054442Y0233004D03*
X0073143Y0227886D03*
X0075111Y0227886D03*
D17*
X0075505Y0233004D03*
X0051095Y0233004D03*
D18*
X0046292Y0231469D02*
X0046292Y0227531D01*
X0046292Y0231469D02*
X0046292Y0231469D01*
X0046292Y0227531D01*
X0046292Y0227531D01*
X0046292Y0247649D02*
X0046292Y0253555D01*
X0046292Y0253555D01*
X0046292Y0247649D01*
X0046292Y0247649D01*
X0046292Y0251979D02*
X0046292Y0251979D01*
X0080308Y0253555D02*
X0080308Y0247649D01*
X0080308Y0253555D02*
X0080308Y0253555D01*
X0080308Y0247649D01*
X0080308Y0247649D01*
X0080308Y0251979D02*
X0080308Y0251979D01*
X0080308Y0231469D02*
X0080308Y0227531D01*
X0080308Y0231469D02*
X0080308Y0231469D01*
X0080308Y0227531D01*
X0080308Y0227531D01*
D19*
X0068048Y0074941D03*
X0064898Y0074941D03*
X0061749Y0074941D03*
X0058599Y0074941D03*
X0055450Y0074941D03*
X0052300Y0074941D03*
X0049150Y0074941D03*
X0046001Y0074941D03*
X0042851Y0074941D03*
X0039702Y0074941D03*
X0036552Y0074941D03*
X0036552Y0030059D03*
X0039702Y0030059D03*
X0042851Y0030059D03*
X0046001Y0030059D03*
X0049150Y0030059D03*
X0052300Y0030059D03*
X0055450Y0030059D03*
X0058599Y0030059D03*
X0061749Y0030059D03*
X0064898Y0030059D03*
X0068048Y0030059D03*
D20*
X0074741Y0036752D03*
X0074741Y0039902D03*
X0074741Y0043051D03*
X0074741Y0046201D03*
X0074741Y0049350D03*
X0074741Y0052500D03*
X0074741Y0055650D03*
X0074741Y0058799D03*
X0074741Y0061949D03*
X0074741Y0065098D03*
X0074741Y0068248D03*
X0029859Y0068248D03*
X0029859Y0065098D03*
X0029859Y0061949D03*
X0029859Y0058799D03*
X0029859Y0055650D03*
X0029859Y0052500D03*
X0029859Y0049350D03*
X0029859Y0046201D03*
X0029859Y0043051D03*
X0029859Y0039902D03*
X0029859Y0036752D03*
D21*
X0059461Y0163626D03*
X0062020Y0163626D03*
X0064580Y0163626D03*
X0067139Y0163626D03*
X0067139Y0179374D03*
X0064580Y0179374D03*
X0062020Y0179374D03*
X0059461Y0179374D03*
D22*
X0055426Y0175339D03*
X0055426Y0172780D03*
X0055426Y0170220D03*
X0055426Y0167661D03*
X0071174Y0167661D03*
X0071174Y0170220D03*
X0071174Y0172780D03*
X0071174Y0175339D03*
D23*
X0086800Y0155039D03*
X0091800Y0155039D03*
X0096800Y0155039D03*
X0101800Y0155039D03*
X0101800Y0129961D03*
X0096800Y0129961D03*
X0091800Y0129961D03*
X0086800Y0129961D03*
D24*
X0031300Y0120705D03*
D25*
X0031300Y0146295D03*
X0022245Y0146295D03*
X0040355Y0146295D03*
D26*
X0036531Y0188960D03*
X0036531Y0196440D03*
X0027869Y0192700D03*
D27*
X0112800Y0066502D03*
X0112800Y0041698D03*
X0122800Y0041698D03*
D28*
X0122800Y0066108D03*
M02*
