G75*
%MOIN*%
%OFA0B0*%
%FSLAX25Y25*%
%IPPOS*%
%LPD*%
%AMOC8*
5,1,8,0,0,1.08239X$1,22.5*
%
%ADD10C,0.00000*%
%ADD11R,0.05124X0.05124*%
%ADD12R,0.04337X0.04731*%
%ADD13R,0.04731X0.04337*%
%ADD14R,0.02959X0.12211*%
%ADD15R,0.06699X0.07487*%
%ADD16R,0.01581X0.03156*%
%ADD17R,0.04337X0.03156*%
%ADD18C,0.04731*%
%ADD19C,0.08077*%
%ADD20R,0.01975X0.07880*%
%ADD21R,0.07880X0.01975*%
%ADD22R,0.01778X0.03943*%
%ADD23R,0.08668X0.08668*%
%ADD24R,0.03943X0.01778*%
%ADD25R,0.02369X0.08274*%
%ADD26R,0.16148X0.06306*%
%ADD27R,0.04337X0.06306*%
%ADD28R,0.05912X0.04337*%
%ADD29R,0.05912X0.09061*%
%ADD30R,0.05912X0.09849*%
%ADD31C,0.05124*%
D10*
X0001300Y0001500D02*
X0001300Y0257500D01*
X0129221Y0257500D01*
X0129221Y0001500D01*
X0001300Y0001500D01*
D11*
X0116300Y0216366D03*
X0116300Y0224634D03*
X0036300Y0241366D03*
X0036300Y0249634D03*
X0027300Y0249634D03*
X0027300Y0241366D03*
X0018300Y0241366D03*
X0018300Y0249634D03*
X0009300Y0249634D03*
X0009300Y0241366D03*
D12*
X0009300Y0210846D03*
X0009300Y0204154D03*
X0018300Y0204154D03*
X0018300Y0210846D03*
X0027300Y0210846D03*
X0027300Y0204154D03*
X0036300Y0210154D03*
X0036300Y0216846D03*
X0042300Y0216846D03*
X0042300Y0210154D03*
X0048300Y0210154D03*
X0048300Y0216846D03*
X0054300Y0216846D03*
X0054300Y0210154D03*
X0060300Y0210154D03*
X0060300Y0216846D03*
X0066300Y0216846D03*
X0066300Y0210154D03*
X0072300Y0210154D03*
X0072300Y0216846D03*
X0078300Y0216846D03*
X0078300Y0210154D03*
X0084300Y0210154D03*
X0084300Y0216846D03*
X0058600Y0194146D03*
X0058600Y0187454D03*
X0046300Y0178846D03*
X0046300Y0172154D03*
X0040300Y0172154D03*
X0040300Y0178846D03*
X0074300Y0159846D03*
X0074300Y0153154D03*
X0116300Y0201154D03*
X0116300Y0207846D03*
X0012300Y0052746D03*
X0012300Y0046054D03*
D13*
X0047354Y0090900D03*
X0054046Y0090900D03*
X0061954Y0115500D03*
X0068646Y0115500D03*
X0095954Y0118500D03*
X0102646Y0118500D03*
X0107954Y0137500D03*
X0107954Y0144500D03*
X0114646Y0144500D03*
X0114646Y0137500D03*
X0095646Y0059500D03*
X0095646Y0048500D03*
X0088954Y0048500D03*
X0088954Y0059500D03*
X0057246Y0019800D03*
X0050554Y0019800D03*
X0039146Y0152700D03*
X0032454Y0152700D03*
X0021646Y0154500D03*
X0014954Y0154500D03*
X0043954Y0190500D03*
X0043954Y0196500D03*
X0050646Y0196500D03*
X0050646Y0190500D03*
D14*
X0056300Y0149358D03*
X0056300Y0131642D03*
D15*
X0041312Y0160200D03*
X0030288Y0160200D03*
X0021612Y0162600D03*
X0010588Y0162600D03*
D16*
X0051489Y0227886D03*
X0053457Y0227886D03*
X0055426Y0227886D03*
X0057394Y0227886D03*
X0059363Y0227886D03*
X0061331Y0227886D03*
X0060347Y0233004D03*
X0062316Y0233004D03*
X0064284Y0233004D03*
X0066253Y0233004D03*
X0068221Y0233004D03*
X0070190Y0233004D03*
X0072158Y0233004D03*
X0071174Y0227886D03*
X0069206Y0227886D03*
X0067237Y0227886D03*
X0065269Y0227886D03*
X0058379Y0233004D03*
X0056410Y0233004D03*
X0054442Y0233004D03*
X0073143Y0227886D03*
X0075111Y0227886D03*
D17*
X0075505Y0233004D03*
X0051095Y0233004D03*
D18*
X0046292Y0231469D02*
X0046292Y0227531D01*
X0046292Y0231469D02*
X0046292Y0231469D01*
X0046292Y0227531D01*
X0046292Y0227531D01*
X0046292Y0247649D02*
X0046292Y0253555D01*
X0046292Y0253555D01*
X0046292Y0247649D01*
X0046292Y0247649D01*
X0046292Y0252379D02*
X0046292Y0252379D01*
X0080308Y0253555D02*
X0080308Y0247649D01*
X0080308Y0253555D02*
X0080308Y0253555D01*
X0080308Y0247649D01*
X0080308Y0247649D01*
X0080308Y0252379D02*
X0080308Y0252379D01*
X0080308Y0231469D02*
X0080308Y0227531D01*
X0080308Y0231469D02*
X0080308Y0231469D01*
X0080308Y0227531D01*
X0080308Y0227531D01*
D19*
X0095300Y0239500D03*
X0093300Y0190500D03*
X0018300Y0095500D03*
X0015300Y0177500D03*
D20*
X0036552Y0074941D03*
X0039702Y0074941D03*
X0042851Y0074941D03*
X0046001Y0074941D03*
X0049150Y0074941D03*
X0052300Y0074941D03*
X0055450Y0074941D03*
X0058599Y0074941D03*
X0061749Y0074941D03*
X0064898Y0074941D03*
X0068048Y0074941D03*
X0068048Y0030059D03*
X0064898Y0030059D03*
X0061749Y0030059D03*
X0058599Y0030059D03*
X0055450Y0030059D03*
X0052300Y0030059D03*
X0049150Y0030059D03*
X0046001Y0030059D03*
X0042851Y0030059D03*
X0039702Y0030059D03*
X0036552Y0030059D03*
D21*
X0029859Y0036752D03*
X0029859Y0039902D03*
X0029859Y0043051D03*
X0029859Y0046201D03*
X0029859Y0049350D03*
X0029859Y0052500D03*
X0029859Y0055650D03*
X0029859Y0058799D03*
X0029859Y0061949D03*
X0029859Y0065098D03*
X0029859Y0068248D03*
X0074741Y0068248D03*
X0074741Y0065098D03*
X0074741Y0061949D03*
X0074741Y0058799D03*
X0074741Y0055650D03*
X0074741Y0052500D03*
X0074741Y0049350D03*
X0074741Y0046201D03*
X0074741Y0043051D03*
X0074741Y0039902D03*
X0074741Y0036752D03*
D22*
X0067139Y0163626D03*
X0064580Y0163626D03*
X0062020Y0163626D03*
X0059461Y0163626D03*
X0059461Y0179374D03*
X0062020Y0179374D03*
X0064580Y0179374D03*
X0067139Y0179374D03*
D23*
X0063300Y0171500D03*
D24*
X0055426Y0170220D03*
X0055426Y0167661D03*
X0055426Y0172780D03*
X0055426Y0175339D03*
X0071174Y0175339D03*
X0071174Y0172780D03*
X0071174Y0170220D03*
X0071174Y0167661D03*
D25*
X0086800Y0155039D03*
X0091800Y0155039D03*
X0096800Y0155039D03*
X0101800Y0155039D03*
X0101800Y0129961D03*
X0096800Y0129961D03*
X0091800Y0129961D03*
X0086800Y0129961D03*
D26*
X0031300Y0120705D03*
D27*
X0031300Y0146295D03*
X0022245Y0146295D03*
X0040355Y0146295D03*
D28*
X0036531Y0188960D03*
X0036531Y0196440D03*
X0027869Y0192700D03*
D29*
X0112800Y0066502D03*
X0112800Y0041698D03*
X0122800Y0041698D03*
D30*
X0122800Y0066108D03*
D31*
X0089300Y0007500D03*
X0079300Y0007500D03*
X0069300Y0007500D03*
X0059300Y0007500D03*
X0049300Y0007500D03*
X0039300Y0007500D03*
X0029300Y0007500D03*
X0019300Y0007500D03*
M02*
