G75*
%MOIN*%
%OFA0B0*%
%FSLAX25Y25*%
%IPPOS*%
%LPD*%
%AMOC8*
5,1,8,0,0,1.08239X$1,22.5*
%
%ADD10C,0.00000*%
%ADD11C,0.00236*%
D10*
X0001300Y0001500D02*
X0001300Y0257500D01*
X0129221Y0257500D01*
X0129221Y0001500D01*
X0001300Y0001500D01*
D11*
X0045111Y0227531D02*
X0045111Y0231469D01*
X0045113Y0231535D01*
X0045118Y0231601D01*
X0045128Y0231667D01*
X0045141Y0231732D01*
X0045157Y0231796D01*
X0045177Y0231859D01*
X0045201Y0231921D01*
X0045228Y0231981D01*
X0045258Y0232040D01*
X0045292Y0232097D01*
X0045329Y0232152D01*
X0045369Y0232205D01*
X0045411Y0232256D01*
X0045457Y0232304D01*
X0045505Y0232350D01*
X0045556Y0232392D01*
X0045609Y0232432D01*
X0045664Y0232469D01*
X0045721Y0232503D01*
X0045780Y0232533D01*
X0045840Y0232560D01*
X0045902Y0232584D01*
X0045965Y0232604D01*
X0046029Y0232620D01*
X0046094Y0232633D01*
X0046160Y0232643D01*
X0046226Y0232648D01*
X0046292Y0232650D01*
X0046358Y0232648D01*
X0046424Y0232643D01*
X0046490Y0232633D01*
X0046555Y0232620D01*
X0046619Y0232604D01*
X0046682Y0232584D01*
X0046744Y0232560D01*
X0046804Y0232533D01*
X0046863Y0232503D01*
X0046920Y0232469D01*
X0046975Y0232432D01*
X0047028Y0232392D01*
X0047079Y0232350D01*
X0047127Y0232304D01*
X0047173Y0232256D01*
X0047215Y0232205D01*
X0047255Y0232152D01*
X0047292Y0232097D01*
X0047326Y0232040D01*
X0047356Y0231981D01*
X0047383Y0231921D01*
X0047407Y0231859D01*
X0047427Y0231796D01*
X0047443Y0231732D01*
X0047456Y0231667D01*
X0047466Y0231601D01*
X0047471Y0231535D01*
X0047473Y0231469D01*
X0047473Y0227531D01*
X0046292Y0226350D02*
X0046226Y0226352D01*
X0046160Y0226357D01*
X0046094Y0226367D01*
X0046029Y0226380D01*
X0045965Y0226396D01*
X0045902Y0226416D01*
X0045840Y0226440D01*
X0045780Y0226467D01*
X0045721Y0226497D01*
X0045664Y0226531D01*
X0045609Y0226568D01*
X0045556Y0226608D01*
X0045505Y0226650D01*
X0045457Y0226696D01*
X0045411Y0226744D01*
X0045369Y0226795D01*
X0045329Y0226848D01*
X0045292Y0226903D01*
X0045258Y0226960D01*
X0045228Y0227019D01*
X0045201Y0227079D01*
X0045177Y0227141D01*
X0045157Y0227204D01*
X0045141Y0227268D01*
X0045128Y0227333D01*
X0045118Y0227399D01*
X0045113Y0227465D01*
X0045111Y0227531D01*
X0046292Y0226350D02*
X0046358Y0226352D01*
X0046424Y0226357D01*
X0046490Y0226367D01*
X0046555Y0226380D01*
X0046619Y0226396D01*
X0046682Y0226416D01*
X0046744Y0226440D01*
X0046804Y0226467D01*
X0046863Y0226497D01*
X0046920Y0226531D01*
X0046975Y0226568D01*
X0047028Y0226608D01*
X0047079Y0226650D01*
X0047127Y0226696D01*
X0047173Y0226744D01*
X0047215Y0226795D01*
X0047255Y0226848D01*
X0047292Y0226903D01*
X0047326Y0226960D01*
X0047356Y0227019D01*
X0047383Y0227079D01*
X0047407Y0227141D01*
X0047427Y0227204D01*
X0047443Y0227268D01*
X0047456Y0227333D01*
X0047466Y0227399D01*
X0047471Y0227465D01*
X0047473Y0227531D01*
X0047473Y0247650D02*
X0047473Y0253555D01*
X0046292Y0254736D02*
X0046226Y0254734D01*
X0046160Y0254729D01*
X0046094Y0254719D01*
X0046029Y0254706D01*
X0045965Y0254690D01*
X0045902Y0254670D01*
X0045840Y0254646D01*
X0045780Y0254619D01*
X0045721Y0254589D01*
X0045664Y0254555D01*
X0045609Y0254518D01*
X0045556Y0254478D01*
X0045505Y0254436D01*
X0045457Y0254390D01*
X0045411Y0254342D01*
X0045369Y0254291D01*
X0045329Y0254238D01*
X0045292Y0254183D01*
X0045258Y0254126D01*
X0045228Y0254067D01*
X0045201Y0254007D01*
X0045177Y0253945D01*
X0045157Y0253882D01*
X0045141Y0253818D01*
X0045128Y0253753D01*
X0045118Y0253687D01*
X0045113Y0253621D01*
X0045111Y0253555D01*
X0045111Y0247650D01*
X0045113Y0247584D01*
X0045118Y0247518D01*
X0045128Y0247452D01*
X0045141Y0247387D01*
X0045157Y0247323D01*
X0045177Y0247260D01*
X0045201Y0247198D01*
X0045228Y0247138D01*
X0045258Y0247079D01*
X0045292Y0247022D01*
X0045329Y0246967D01*
X0045369Y0246914D01*
X0045411Y0246863D01*
X0045457Y0246815D01*
X0045505Y0246769D01*
X0045556Y0246727D01*
X0045609Y0246687D01*
X0045664Y0246650D01*
X0045721Y0246616D01*
X0045780Y0246586D01*
X0045840Y0246559D01*
X0045902Y0246535D01*
X0045965Y0246515D01*
X0046029Y0246499D01*
X0046094Y0246486D01*
X0046160Y0246476D01*
X0046226Y0246471D01*
X0046292Y0246469D01*
X0046358Y0246471D01*
X0046424Y0246476D01*
X0046490Y0246486D01*
X0046555Y0246499D01*
X0046619Y0246515D01*
X0046682Y0246535D01*
X0046744Y0246559D01*
X0046804Y0246586D01*
X0046863Y0246616D01*
X0046920Y0246650D01*
X0046975Y0246687D01*
X0047028Y0246727D01*
X0047079Y0246769D01*
X0047127Y0246815D01*
X0047173Y0246863D01*
X0047215Y0246914D01*
X0047255Y0246967D01*
X0047292Y0247022D01*
X0047326Y0247079D01*
X0047356Y0247138D01*
X0047383Y0247198D01*
X0047407Y0247260D01*
X0047427Y0247323D01*
X0047443Y0247387D01*
X0047456Y0247452D01*
X0047466Y0247518D01*
X0047471Y0247584D01*
X0047473Y0247650D01*
X0047473Y0253555D02*
X0047471Y0253621D01*
X0047466Y0253687D01*
X0047456Y0253753D01*
X0047443Y0253818D01*
X0047427Y0253882D01*
X0047407Y0253945D01*
X0047383Y0254007D01*
X0047356Y0254067D01*
X0047326Y0254126D01*
X0047292Y0254183D01*
X0047255Y0254238D01*
X0047215Y0254291D01*
X0047173Y0254342D01*
X0047127Y0254390D01*
X0047079Y0254436D01*
X0047028Y0254478D01*
X0046975Y0254518D01*
X0046920Y0254555D01*
X0046863Y0254589D01*
X0046804Y0254619D01*
X0046744Y0254646D01*
X0046682Y0254670D01*
X0046619Y0254690D01*
X0046555Y0254706D01*
X0046490Y0254719D01*
X0046424Y0254729D01*
X0046358Y0254734D01*
X0046292Y0254736D01*
X0079127Y0253555D02*
X0079127Y0247650D01*
X0079129Y0247584D01*
X0079134Y0247518D01*
X0079144Y0247452D01*
X0079157Y0247387D01*
X0079173Y0247323D01*
X0079193Y0247260D01*
X0079217Y0247198D01*
X0079244Y0247138D01*
X0079274Y0247079D01*
X0079308Y0247022D01*
X0079345Y0246967D01*
X0079385Y0246914D01*
X0079427Y0246863D01*
X0079473Y0246815D01*
X0079521Y0246769D01*
X0079572Y0246727D01*
X0079625Y0246687D01*
X0079680Y0246650D01*
X0079737Y0246616D01*
X0079796Y0246586D01*
X0079856Y0246559D01*
X0079918Y0246535D01*
X0079981Y0246515D01*
X0080045Y0246499D01*
X0080110Y0246486D01*
X0080176Y0246476D01*
X0080242Y0246471D01*
X0080308Y0246469D01*
X0080374Y0246471D01*
X0080440Y0246476D01*
X0080506Y0246486D01*
X0080571Y0246499D01*
X0080635Y0246515D01*
X0080698Y0246535D01*
X0080760Y0246559D01*
X0080820Y0246586D01*
X0080879Y0246616D01*
X0080936Y0246650D01*
X0080991Y0246687D01*
X0081044Y0246727D01*
X0081095Y0246769D01*
X0081143Y0246815D01*
X0081189Y0246863D01*
X0081231Y0246914D01*
X0081271Y0246967D01*
X0081308Y0247022D01*
X0081342Y0247079D01*
X0081372Y0247138D01*
X0081399Y0247198D01*
X0081423Y0247260D01*
X0081443Y0247323D01*
X0081459Y0247387D01*
X0081472Y0247452D01*
X0081482Y0247518D01*
X0081487Y0247584D01*
X0081489Y0247650D01*
X0081489Y0253555D01*
X0080308Y0254736D02*
X0080242Y0254734D01*
X0080176Y0254729D01*
X0080110Y0254719D01*
X0080045Y0254706D01*
X0079981Y0254690D01*
X0079918Y0254670D01*
X0079856Y0254646D01*
X0079796Y0254619D01*
X0079737Y0254589D01*
X0079680Y0254555D01*
X0079625Y0254518D01*
X0079572Y0254478D01*
X0079521Y0254436D01*
X0079473Y0254390D01*
X0079427Y0254342D01*
X0079385Y0254291D01*
X0079345Y0254238D01*
X0079308Y0254183D01*
X0079274Y0254126D01*
X0079244Y0254067D01*
X0079217Y0254007D01*
X0079193Y0253945D01*
X0079173Y0253882D01*
X0079157Y0253818D01*
X0079144Y0253753D01*
X0079134Y0253687D01*
X0079129Y0253621D01*
X0079127Y0253555D01*
X0080308Y0254736D02*
X0080374Y0254734D01*
X0080440Y0254729D01*
X0080506Y0254719D01*
X0080571Y0254706D01*
X0080635Y0254690D01*
X0080698Y0254670D01*
X0080760Y0254646D01*
X0080820Y0254619D01*
X0080879Y0254589D01*
X0080936Y0254555D01*
X0080991Y0254518D01*
X0081044Y0254478D01*
X0081095Y0254436D01*
X0081143Y0254390D01*
X0081189Y0254342D01*
X0081231Y0254291D01*
X0081271Y0254238D01*
X0081308Y0254183D01*
X0081342Y0254126D01*
X0081372Y0254067D01*
X0081399Y0254007D01*
X0081423Y0253945D01*
X0081443Y0253882D01*
X0081459Y0253818D01*
X0081472Y0253753D01*
X0081482Y0253687D01*
X0081487Y0253621D01*
X0081489Y0253555D01*
X0081489Y0231469D02*
X0081489Y0227531D01*
X0080308Y0226350D02*
X0080242Y0226352D01*
X0080176Y0226357D01*
X0080110Y0226367D01*
X0080045Y0226380D01*
X0079981Y0226396D01*
X0079918Y0226416D01*
X0079856Y0226440D01*
X0079796Y0226467D01*
X0079737Y0226497D01*
X0079680Y0226531D01*
X0079625Y0226568D01*
X0079572Y0226608D01*
X0079521Y0226650D01*
X0079473Y0226696D01*
X0079427Y0226744D01*
X0079385Y0226795D01*
X0079345Y0226848D01*
X0079308Y0226903D01*
X0079274Y0226960D01*
X0079244Y0227019D01*
X0079217Y0227079D01*
X0079193Y0227141D01*
X0079173Y0227204D01*
X0079157Y0227268D01*
X0079144Y0227333D01*
X0079134Y0227399D01*
X0079129Y0227465D01*
X0079127Y0227531D01*
X0079127Y0231469D01*
X0079129Y0231535D01*
X0079134Y0231601D01*
X0079144Y0231667D01*
X0079157Y0231732D01*
X0079173Y0231796D01*
X0079193Y0231859D01*
X0079217Y0231921D01*
X0079244Y0231981D01*
X0079274Y0232040D01*
X0079308Y0232097D01*
X0079345Y0232152D01*
X0079385Y0232205D01*
X0079427Y0232256D01*
X0079473Y0232304D01*
X0079521Y0232350D01*
X0079572Y0232392D01*
X0079625Y0232432D01*
X0079680Y0232469D01*
X0079737Y0232503D01*
X0079796Y0232533D01*
X0079856Y0232560D01*
X0079918Y0232584D01*
X0079981Y0232604D01*
X0080045Y0232620D01*
X0080110Y0232633D01*
X0080176Y0232643D01*
X0080242Y0232648D01*
X0080308Y0232650D01*
X0080374Y0232648D01*
X0080440Y0232643D01*
X0080506Y0232633D01*
X0080571Y0232620D01*
X0080635Y0232604D01*
X0080698Y0232584D01*
X0080760Y0232560D01*
X0080820Y0232533D01*
X0080879Y0232503D01*
X0080936Y0232469D01*
X0080991Y0232432D01*
X0081044Y0232392D01*
X0081095Y0232350D01*
X0081143Y0232304D01*
X0081189Y0232256D01*
X0081231Y0232205D01*
X0081271Y0232152D01*
X0081308Y0232097D01*
X0081342Y0232040D01*
X0081372Y0231981D01*
X0081399Y0231921D01*
X0081423Y0231859D01*
X0081443Y0231796D01*
X0081459Y0231732D01*
X0081472Y0231667D01*
X0081482Y0231601D01*
X0081487Y0231535D01*
X0081489Y0231469D01*
X0081489Y0227531D02*
X0081487Y0227465D01*
X0081482Y0227399D01*
X0081472Y0227333D01*
X0081459Y0227268D01*
X0081443Y0227204D01*
X0081423Y0227141D01*
X0081399Y0227079D01*
X0081372Y0227019D01*
X0081342Y0226960D01*
X0081308Y0226903D01*
X0081271Y0226848D01*
X0081231Y0226795D01*
X0081189Y0226744D01*
X0081143Y0226696D01*
X0081095Y0226650D01*
X0081044Y0226608D01*
X0080991Y0226568D01*
X0080936Y0226531D01*
X0080879Y0226497D01*
X0080820Y0226467D01*
X0080760Y0226440D01*
X0080698Y0226416D01*
X0080635Y0226396D01*
X0080571Y0226380D01*
X0080506Y0226367D01*
X0080440Y0226357D01*
X0080374Y0226352D01*
X0080308Y0226350D01*
M02*
