G04 This is an RS-274x file exported by *
G04 gerbv version 2.6A *
G04 More information is available about gerbv at *
G04 http://gerbv.geda-project.org/ *
G04 --End of header info--*
%MOIN*%
%FSLAX34Y34*%
%IPPOS*%
G04 --Define apertures--*
%ADD10C,0.0000*%
%ADD11C,0.0050*%
%ADD12R,0.0591X0.0118*%
%ADD13R,0.0118X0.0591*%
%ADD14R,0.2126X0.2126*%
%ADD15R,0.0197X0.0197*%
%ADD16R,0.1449X0.0500*%
%ADD17C,0.0004*%
%ADD18R,0.0236X0.0354*%
%ADD19R,0.0354X0.0236*%
%ADD20R,0.0433X0.0787*%
%ADD21R,0.1299X0.0787*%
%ADD22R,0.0787X0.0197*%
%ADD23R,0.0256X0.0335*%
%ADD24R,0.0394X0.1083*%
%ADD25R,0.0413X0.0256*%
%ADD26R,0.2000X0.0500*%
%ADD27R,0.1260X0.0630*%
%ADD28C,0.0591*%
%ADD29R,0.0433X0.0492*%
%ADD30C,0.0500*%
%ADD31C,0.0197*%
%ADD32C,0.1005*%
%ADD33R,0.0394X0.2441*%
%ADD34R,0.0630X0.1181*%
%ADD35R,0.0079X0.0079*%
%ADD36C,0.0008*%
%ADD37R,0.0197X0.0236*%
%ADD38R,0.0236X0.0197*%
%ADD39C,0.0100*%
%ADD40C,0.0317*%
%ADD41C,0.0320*%
%ADD42C,0.0160*%
%ADD43C,0.0240*%
%ADD44C,0.0356*%
G04 --Start main section--*
G54D10*
G01X0000702Y0003000D02*
G01X0000704Y0003055D01*
G01X0000704Y0003055D02*
G01X0000710Y0003109D01*
G01X0000710Y0003109D02*
G01X0000720Y0003163D01*
G01X0000720Y0003163D02*
G01X0000734Y0003215D01*
G01X0000734Y0003215D02*
G01X0000751Y0003267D01*
G01X0000751Y0003267D02*
G01X0000773Y0003317D01*
G01X0000773Y0003317D02*
G01X0000798Y0003366D01*
G01X0000798Y0003366D02*
G01X0000826Y0003413D01*
G01X0000826Y0003413D02*
G01X0000858Y0003457D01*
G01X0000858Y0003457D02*
G01X0000893Y0003499D01*
G01X0000893Y0003499D02*
G01X0000931Y0003538D01*
G01X0000931Y0003538D02*
G01X0000972Y0003575D01*
G01X0000972Y0003575D02*
G01X0001015Y0003608D01*
G01X0001015Y0003608D02*
G01X0001060Y0003638D01*
G01X0001060Y0003638D02*
G01X0001108Y0003665D01*
G01X0001108Y0003665D02*
G01X0001157Y0003688D01*
G01X0001157Y0003688D02*
G01X0001208Y0003708D01*
G01X0001208Y0003708D02*
G01X0001261Y0003724D01*
G01X0001261Y0003724D02*
G01X0001314Y0003736D01*
G01X0001314Y0003736D02*
G01X0001368Y0003744D01*
G01X0001368Y0003744D02*
G01X0001423Y0003748D01*
G01X0001423Y0003748D02*
G01X0001477Y0003748D01*
G01X0001477Y0003748D02*
G01X0001532Y0003744D01*
G01X0001532Y0003744D02*
G01X0001586Y0003736D01*
G01X0001586Y0003736D02*
G01X0001639Y0003724D01*
G01X0001639Y0003724D02*
G01X0001692Y0003708D01*
G01X0001692Y0003708D02*
G01X0001743Y0003688D01*
G01X0001743Y0003688D02*
G01X0001792Y0003665D01*
G01X0001792Y0003665D02*
G01X0001840Y0003638D01*
G01X0001840Y0003638D02*
G01X0001885Y0003608D01*
G01X0001885Y0003608D02*
G01X0001928Y0003575D01*
G01X0001928Y0003575D02*
G01X0001969Y0003538D01*
G01X0001969Y0003538D02*
G01X0002007Y0003499D01*
G01X0002007Y0003499D02*
G01X0002042Y0003457D01*
G01X0002042Y0003457D02*
G01X0002074Y0003413D01*
G01X0002074Y0003413D02*
G01X0002102Y0003366D01*
G01X0002102Y0003366D02*
G01X0002127Y0003317D01*
G01X0002127Y0003317D02*
G01X0002149Y0003267D01*
G01X0002149Y0003267D02*
G01X0002166Y0003215D01*
G01X0002166Y0003215D02*
G01X0002180Y0003163D01*
G01X0002180Y0003163D02*
G01X0002190Y0003109D01*
G01X0002190Y0003109D02*
G01X0002196Y0003055D01*
G01X0002196Y0003055D02*
G01X0002198Y0003000D01*
G01X0002198Y0003000D02*
G01X0002196Y0002945D01*
G01X0002196Y0002945D02*
G01X0002190Y0002891D01*
G01X0002190Y0002891D02*
G01X0002180Y0002837D01*
G01X0002180Y0002837D02*
G01X0002166Y0002785D01*
G01X0002166Y0002785D02*
G01X0002149Y0002733D01*
G01X0002149Y0002733D02*
G01X0002127Y0002683D01*
G01X0002127Y0002683D02*
G01X0002102Y0002634D01*
G01X0002102Y0002634D02*
G01X0002074Y0002587D01*
G01X0002074Y0002587D02*
G01X0002042Y0002543D01*
G01X0002042Y0002543D02*
G01X0002007Y0002501D01*
G01X0002007Y0002501D02*
G01X0001969Y0002462D01*
G01X0001969Y0002462D02*
G01X0001928Y0002425D01*
G01X0001928Y0002425D02*
G01X0001885Y0002392D01*
G01X0001885Y0002392D02*
G01X0001840Y0002362D01*
G01X0001840Y0002362D02*
G01X0001792Y0002335D01*
G01X0001792Y0002335D02*
G01X0001743Y0002312D01*
G01X0001743Y0002312D02*
G01X0001692Y0002292D01*
G01X0001692Y0002292D02*
G01X0001639Y0002276D01*
G01X0001639Y0002276D02*
G01X0001586Y0002264D01*
G01X0001586Y0002264D02*
G01X0001532Y0002256D01*
G01X0001532Y0002256D02*
G01X0001477Y0002252D01*
G01X0001477Y0002252D02*
G01X0001423Y0002252D01*
G01X0001423Y0002252D02*
G01X0001368Y0002256D01*
G01X0001368Y0002256D02*
G01X0001314Y0002264D01*
G01X0001314Y0002264D02*
G01X0001261Y0002276D01*
G01X0001261Y0002276D02*
G01X0001208Y0002292D01*
G01X0001208Y0002292D02*
G01X0001157Y0002312D01*
G01X0001157Y0002312D02*
G01X0001108Y0002335D01*
G01X0001108Y0002335D02*
G01X0001060Y0002362D01*
G01X0001060Y0002362D02*
G01X0001015Y0002392D01*
G01X0001015Y0002392D02*
G01X0000972Y0002425D01*
G01X0000972Y0002425D02*
G01X0000931Y0002462D01*
G01X0000931Y0002462D02*
G01X0000893Y0002501D01*
G01X0000893Y0002501D02*
G01X0000858Y0002543D01*
G01X0000858Y0002543D02*
G01X0000826Y0002587D01*
G01X0000826Y0002587D02*
G01X0000798Y0002634D01*
G01X0000798Y0002634D02*
G01X0000773Y0002683D01*
G01X0000773Y0002683D02*
G01X0000751Y0002733D01*
G01X0000751Y0002733D02*
G01X0000734Y0002785D01*
G01X0000734Y0002785D02*
G01X0000720Y0002837D01*
G01X0000720Y0002837D02*
G01X0000710Y0002891D01*
G01X0000710Y0002891D02*
G01X0000704Y0002945D01*
G01X0000704Y0002945D02*
G01X0000702Y0003000D01*
G01X0040002Y0020300D02*
G01X0040004Y0020355D01*
G01X0040004Y0020355D02*
G01X0040010Y0020409D01*
G01X0040010Y0020409D02*
G01X0040020Y0020463D01*
G01X0040020Y0020463D02*
G01X0040034Y0020515D01*
G01X0040034Y0020515D02*
G01X0040051Y0020567D01*
G01X0040051Y0020567D02*
G01X0040073Y0020617D01*
G01X0040073Y0020617D02*
G01X0040098Y0020666D01*
G01X0040098Y0020666D02*
G01X0040126Y0020713D01*
G01X0040126Y0020713D02*
G01X0040158Y0020757D01*
G01X0040158Y0020757D02*
G01X0040193Y0020799D01*
G01X0040193Y0020799D02*
G01X0040231Y0020838D01*
G01X0040231Y0020838D02*
G01X0040272Y0020875D01*
G01X0040272Y0020875D02*
G01X0040315Y0020908D01*
G01X0040315Y0020908D02*
G01X0040360Y0020938D01*
G01X0040360Y0020938D02*
G01X0040408Y0020965D01*
G01X0040408Y0020965D02*
G01X0040457Y0020988D01*
G01X0040457Y0020988D02*
G01X0040508Y0021008D01*
G01X0040508Y0021008D02*
G01X0040561Y0021024D01*
G01X0040561Y0021024D02*
G01X0040614Y0021036D01*
G01X0040614Y0021036D02*
G01X0040668Y0021044D01*
G01X0040668Y0021044D02*
G01X0040723Y0021048D01*
G01X0040723Y0021048D02*
G01X0040777Y0021048D01*
G01X0040777Y0021048D02*
G01X0040832Y0021044D01*
G01X0040832Y0021044D02*
G01X0040886Y0021036D01*
G01X0040886Y0021036D02*
G01X0040939Y0021024D01*
G01X0040939Y0021024D02*
G01X0040992Y0021008D01*
G01X0040992Y0021008D02*
G01X0041043Y0020988D01*
G01X0041043Y0020988D02*
G01X0041092Y0020965D01*
G01X0041092Y0020965D02*
G01X0041140Y0020938D01*
G01X0041140Y0020938D02*
G01X0041185Y0020908D01*
G01X0041185Y0020908D02*
G01X0041228Y0020875D01*
G01X0041228Y0020875D02*
G01X0041269Y0020838D01*
G01X0041269Y0020838D02*
G01X0041307Y0020799D01*
G01X0041307Y0020799D02*
G01X0041342Y0020757D01*
G01X0041342Y0020757D02*
G01X0041374Y0020713D01*
G01X0041374Y0020713D02*
G01X0041402Y0020666D01*
G01X0041402Y0020666D02*
G01X0041427Y0020617D01*
G01X0041427Y0020617D02*
G01X0041449Y0020567D01*
G01X0041449Y0020567D02*
G01X0041466Y0020515D01*
G01X0041466Y0020515D02*
G01X0041480Y0020463D01*
G01X0041480Y0020463D02*
G01X0041490Y0020409D01*
G01X0041490Y0020409D02*
G01X0041496Y0020355D01*
G01X0041496Y0020355D02*
G01X0041498Y0020300D01*
G01X0041498Y0020300D02*
G01X0041496Y0020245D01*
G01X0041496Y0020245D02*
G01X0041490Y0020191D01*
G01X0041490Y0020191D02*
G01X0041480Y0020137D01*
G01X0041480Y0020137D02*
G01X0041466Y0020085D01*
G01X0041466Y0020085D02*
G01X0041449Y0020033D01*
G01X0041449Y0020033D02*
G01X0041427Y0019983D01*
G01X0041427Y0019983D02*
G01X0041402Y0019934D01*
G01X0041402Y0019934D02*
G01X0041374Y0019887D01*
G01X0041374Y0019887D02*
G01X0041342Y0019843D01*
G01X0041342Y0019843D02*
G01X0041307Y0019801D01*
G01X0041307Y0019801D02*
G01X0041269Y0019762D01*
G01X0041269Y0019762D02*
G01X0041228Y0019725D01*
G01X0041228Y0019725D02*
G01X0041185Y0019692D01*
G01X0041185Y0019692D02*
G01X0041140Y0019662D01*
G01X0041140Y0019662D02*
G01X0041092Y0019635D01*
G01X0041092Y0019635D02*
G01X0041043Y0019612D01*
G01X0041043Y0019612D02*
G01X0040992Y0019592D01*
G01X0040992Y0019592D02*
G01X0040939Y0019576D01*
G01X0040939Y0019576D02*
G01X0040886Y0019564D01*
G01X0040886Y0019564D02*
G01X0040832Y0019556D01*
G01X0040832Y0019556D02*
G01X0040777Y0019552D01*
G01X0040777Y0019552D02*
G01X0040723Y0019552D01*
G01X0040723Y0019552D02*
G01X0040668Y0019556D01*
G01X0040668Y0019556D02*
G01X0040614Y0019564D01*
G01X0040614Y0019564D02*
G01X0040561Y0019576D01*
G01X0040561Y0019576D02*
G01X0040508Y0019592D01*
G01X0040508Y0019592D02*
G01X0040457Y0019612D01*
G01X0040457Y0019612D02*
G01X0040408Y0019635D01*
G01X0040408Y0019635D02*
G01X0040360Y0019662D01*
G01X0040360Y0019662D02*
G01X0040315Y0019692D01*
G01X0040315Y0019692D02*
G01X0040272Y0019725D01*
G01X0040272Y0019725D02*
G01X0040231Y0019762D01*
G01X0040231Y0019762D02*
G01X0040193Y0019801D01*
G01X0040193Y0019801D02*
G01X0040158Y0019843D01*
G01X0040158Y0019843D02*
G01X0040126Y0019887D01*
G01X0040126Y0019887D02*
G01X0040098Y0019934D01*
G01X0040098Y0019934D02*
G01X0040073Y0019983D01*
G01X0040073Y0019983D02*
G01X0040051Y0020033D01*
G01X0040051Y0020033D02*
G01X0040034Y0020085D01*
G01X0040034Y0020085D02*
G01X0040020Y0020137D01*
G01X0040020Y0020137D02*
G01X0040010Y0020191D01*
G01X0040010Y0020191D02*
G01X0040004Y0020245D01*
G01X0040004Y0020245D02*
G01X0040002Y0020300D01*
G01X0000702Y0020300D02*
G01X0000704Y0020355D01*
G01X0000704Y0020355D02*
G01X0000710Y0020409D01*
G01X0000710Y0020409D02*
G01X0000720Y0020463D01*
G01X0000720Y0020463D02*
G01X0000734Y0020515D01*
G01X0000734Y0020515D02*
G01X0000751Y0020567D01*
G01X0000751Y0020567D02*
G01X0000773Y0020617D01*
G01X0000773Y0020617D02*
G01X0000798Y0020666D01*
G01X0000798Y0020666D02*
G01X0000826Y0020713D01*
G01X0000826Y0020713D02*
G01X0000858Y0020757D01*
G01X0000858Y0020757D02*
G01X0000893Y0020799D01*
G01X0000893Y0020799D02*
G01X0000931Y0020838D01*
G01X0000931Y0020838D02*
G01X0000972Y0020875D01*
G01X0000972Y0020875D02*
G01X0001015Y0020908D01*
G01X0001015Y0020908D02*
G01X0001060Y0020938D01*
G01X0001060Y0020938D02*
G01X0001108Y0020965D01*
G01X0001108Y0020965D02*
G01X0001157Y0020988D01*
G01X0001157Y0020988D02*
G01X0001208Y0021008D01*
G01X0001208Y0021008D02*
G01X0001261Y0021024D01*
G01X0001261Y0021024D02*
G01X0001314Y0021036D01*
G01X0001314Y0021036D02*
G01X0001368Y0021044D01*
G01X0001368Y0021044D02*
G01X0001423Y0021048D01*
G01X0001423Y0021048D02*
G01X0001477Y0021048D01*
G01X0001477Y0021048D02*
G01X0001532Y0021044D01*
G01X0001532Y0021044D02*
G01X0001586Y0021036D01*
G01X0001586Y0021036D02*
G01X0001639Y0021024D01*
G01X0001639Y0021024D02*
G01X0001692Y0021008D01*
G01X0001692Y0021008D02*
G01X0001743Y0020988D01*
G01X0001743Y0020988D02*
G01X0001792Y0020965D01*
G01X0001792Y0020965D02*
G01X0001840Y0020938D01*
G01X0001840Y0020938D02*
G01X0001885Y0020908D01*
G01X0001885Y0020908D02*
G01X0001928Y0020875D01*
G01X0001928Y0020875D02*
G01X0001969Y0020838D01*
G01X0001969Y0020838D02*
G01X0002007Y0020799D01*
G01X0002007Y0020799D02*
G01X0002042Y0020757D01*
G01X0002042Y0020757D02*
G01X0002074Y0020713D01*
G01X0002074Y0020713D02*
G01X0002102Y0020666D01*
G01X0002102Y0020666D02*
G01X0002127Y0020617D01*
G01X0002127Y0020617D02*
G01X0002149Y0020567D01*
G01X0002149Y0020567D02*
G01X0002166Y0020515D01*
G01X0002166Y0020515D02*
G01X0002180Y0020463D01*
G01X0002180Y0020463D02*
G01X0002190Y0020409D01*
G01X0002190Y0020409D02*
G01X0002196Y0020355D01*
G01X0002196Y0020355D02*
G01X0002198Y0020300D01*
G01X0002198Y0020300D02*
G01X0002196Y0020245D01*
G01X0002196Y0020245D02*
G01X0002190Y0020191D01*
G01X0002190Y0020191D02*
G01X0002180Y0020137D01*
G01X0002180Y0020137D02*
G01X0002166Y0020085D01*
G01X0002166Y0020085D02*
G01X0002149Y0020033D01*
G01X0002149Y0020033D02*
G01X0002127Y0019983D01*
G01X0002127Y0019983D02*
G01X0002102Y0019934D01*
G01X0002102Y0019934D02*
G01X0002074Y0019887D01*
G01X0002074Y0019887D02*
G01X0002042Y0019843D01*
G01X0002042Y0019843D02*
G01X0002007Y0019801D01*
G01X0002007Y0019801D02*
G01X0001969Y0019762D01*
G01X0001969Y0019762D02*
G01X0001928Y0019725D01*
G01X0001928Y0019725D02*
G01X0001885Y0019692D01*
G01X0001885Y0019692D02*
G01X0001840Y0019662D01*
G01X0001840Y0019662D02*
G01X0001792Y0019635D01*
G01X0001792Y0019635D02*
G01X0001743Y0019612D01*
G01X0001743Y0019612D02*
G01X0001692Y0019592D01*
G01X0001692Y0019592D02*
G01X0001639Y0019576D01*
G01X0001639Y0019576D02*
G01X0001586Y0019564D01*
G01X0001586Y0019564D02*
G01X0001532Y0019556D01*
G01X0001532Y0019556D02*
G01X0001477Y0019552D01*
G01X0001477Y0019552D02*
G01X0001423Y0019552D01*
G01X0001423Y0019552D02*
G01X0001368Y0019556D01*
G01X0001368Y0019556D02*
G01X0001314Y0019564D01*
G01X0001314Y0019564D02*
G01X0001261Y0019576D01*
G01X0001261Y0019576D02*
G01X0001208Y0019592D01*
G01X0001208Y0019592D02*
G01X0001157Y0019612D01*
G01X0001157Y0019612D02*
G01X0001108Y0019635D01*
G01X0001108Y0019635D02*
G01X0001060Y0019662D01*
G01X0001060Y0019662D02*
G01X0001015Y0019692D01*
G01X0001015Y0019692D02*
G01X0000972Y0019725D01*
G01X0000972Y0019725D02*
G01X0000931Y0019762D01*
G01X0000931Y0019762D02*
G01X0000893Y0019801D01*
G01X0000893Y0019801D02*
G01X0000858Y0019843D01*
G01X0000858Y0019843D02*
G01X0000826Y0019887D01*
G01X0000826Y0019887D02*
G01X0000798Y0019934D01*
G01X0000798Y0019934D02*
G01X0000773Y0019983D01*
G01X0000773Y0019983D02*
G01X0000751Y0020033D01*
G01X0000751Y0020033D02*
G01X0000734Y0020085D01*
G01X0000734Y0020085D02*
G01X0000720Y0020137D01*
G01X0000720Y0020137D02*
G01X0000710Y0020191D01*
G01X0000710Y0020191D02*
G01X0000704Y0020245D01*
G01X0000704Y0020245D02*
G01X0000702Y0020300D01*
G01X0040002Y0003000D02*
G01X0040004Y0003055D01*
G01X0040004Y0003055D02*
G01X0040010Y0003109D01*
G01X0040010Y0003109D02*
G01X0040020Y0003163D01*
G01X0040020Y0003163D02*
G01X0040034Y0003215D01*
G01X0040034Y0003215D02*
G01X0040051Y0003267D01*
G01X0040051Y0003267D02*
G01X0040073Y0003317D01*
G01X0040073Y0003317D02*
G01X0040098Y0003366D01*
G01X0040098Y0003366D02*
G01X0040126Y0003413D01*
G01X0040126Y0003413D02*
G01X0040158Y0003457D01*
G01X0040158Y0003457D02*
G01X0040193Y0003499D01*
G01X0040193Y0003499D02*
G01X0040231Y0003538D01*
G01X0040231Y0003538D02*
G01X0040272Y0003575D01*
G01X0040272Y0003575D02*
G01X0040315Y0003608D01*
G01X0040315Y0003608D02*
G01X0040360Y0003638D01*
G01X0040360Y0003638D02*
G01X0040408Y0003665D01*
G01X0040408Y0003665D02*
G01X0040457Y0003688D01*
G01X0040457Y0003688D02*
G01X0040508Y0003708D01*
G01X0040508Y0003708D02*
G01X0040561Y0003724D01*
G01X0040561Y0003724D02*
G01X0040614Y0003736D01*
G01X0040614Y0003736D02*
G01X0040668Y0003744D01*
G01X0040668Y0003744D02*
G01X0040723Y0003748D01*
G01X0040723Y0003748D02*
G01X0040777Y0003748D01*
G01X0040777Y0003748D02*
G01X0040832Y0003744D01*
G01X0040832Y0003744D02*
G01X0040886Y0003736D01*
G01X0040886Y0003736D02*
G01X0040939Y0003724D01*
G01X0040939Y0003724D02*
G01X0040992Y0003708D01*
G01X0040992Y0003708D02*
G01X0041043Y0003688D01*
G01X0041043Y0003688D02*
G01X0041092Y0003665D01*
G01X0041092Y0003665D02*
G01X0041140Y0003638D01*
G01X0041140Y0003638D02*
G01X0041185Y0003608D01*
G01X0041185Y0003608D02*
G01X0041228Y0003575D01*
G01X0041228Y0003575D02*
G01X0041269Y0003538D01*
G01X0041269Y0003538D02*
G01X0041307Y0003499D01*
G01X0041307Y0003499D02*
G01X0041342Y0003457D01*
G01X0041342Y0003457D02*
G01X0041374Y0003413D01*
G01X0041374Y0003413D02*
G01X0041402Y0003366D01*
G01X0041402Y0003366D02*
G01X0041427Y0003317D01*
G01X0041427Y0003317D02*
G01X0041449Y0003267D01*
G01X0041449Y0003267D02*
G01X0041466Y0003215D01*
G01X0041466Y0003215D02*
G01X0041480Y0003163D01*
G01X0041480Y0003163D02*
G01X0041490Y0003109D01*
G01X0041490Y0003109D02*
G01X0041496Y0003055D01*
G01X0041496Y0003055D02*
G01X0041498Y0003000D01*
G01X0041498Y0003000D02*
G01X0041496Y0002945D01*
G01X0041496Y0002945D02*
G01X0041490Y0002891D01*
G01X0041490Y0002891D02*
G01X0041480Y0002837D01*
G01X0041480Y0002837D02*
G01X0041466Y0002785D01*
G01X0041466Y0002785D02*
G01X0041449Y0002733D01*
G01X0041449Y0002733D02*
G01X0041427Y0002683D01*
G01X0041427Y0002683D02*
G01X0041402Y0002634D01*
G01X0041402Y0002634D02*
G01X0041374Y0002587D01*
G01X0041374Y0002587D02*
G01X0041342Y0002543D01*
G01X0041342Y0002543D02*
G01X0041307Y0002501D01*
G01X0041307Y0002501D02*
G01X0041269Y0002462D01*
G01X0041269Y0002462D02*
G01X0041228Y0002425D01*
G01X0041228Y0002425D02*
G01X0041185Y0002392D01*
G01X0041185Y0002392D02*
G01X0041140Y0002362D01*
G01X0041140Y0002362D02*
G01X0041092Y0002335D01*
G01X0041092Y0002335D02*
G01X0041043Y0002312D01*
G01X0041043Y0002312D02*
G01X0040992Y0002292D01*
G01X0040992Y0002292D02*
G01X0040939Y0002276D01*
G01X0040939Y0002276D02*
G01X0040886Y0002264D01*
G01X0040886Y0002264D02*
G01X0040832Y0002256D01*
G01X0040832Y0002256D02*
G01X0040777Y0002252D01*
G01X0040777Y0002252D02*
G01X0040723Y0002252D01*
G01X0040723Y0002252D02*
G01X0040668Y0002256D01*
G01X0040668Y0002256D02*
G01X0040614Y0002264D01*
G01X0040614Y0002264D02*
G01X0040561Y0002276D01*
G01X0040561Y0002276D02*
G01X0040508Y0002292D01*
G01X0040508Y0002292D02*
G01X0040457Y0002312D01*
G01X0040457Y0002312D02*
G01X0040408Y0002335D01*
G01X0040408Y0002335D02*
G01X0040360Y0002362D01*
G01X0040360Y0002362D02*
G01X0040315Y0002392D01*
G01X0040315Y0002392D02*
G01X0040272Y0002425D01*
G01X0040272Y0002425D02*
G01X0040231Y0002462D01*
G01X0040231Y0002462D02*
G01X0040193Y0002501D01*
G01X0040193Y0002501D02*
G01X0040158Y0002543D01*
G01X0040158Y0002543D02*
G01X0040126Y0002587D01*
G01X0040126Y0002587D02*
G01X0040098Y0002634D01*
G01X0040098Y0002634D02*
G01X0040073Y0002683D01*
G01X0040073Y0002683D02*
G01X0040051Y0002733D01*
G01X0040051Y0002733D02*
G01X0040034Y0002785D01*
G01X0040034Y0002785D02*
G01X0040020Y0002837D01*
G01X0040020Y0002837D02*
G01X0040010Y0002891D01*
G01X0040010Y0002891D02*
G01X0040004Y0002945D01*
G01X0040004Y0002945D02*
G01X0040002Y0003000D01*
G54D11*
G01X0042150Y0001700D02*
G01X0000150Y0001700D01*
G01X0000150Y0001700D02*
G01X0000150Y0021600D01*
G01X0000150Y0021600D02*
G01X0042150Y0021600D01*
G01X0042150Y0021600D02*
G01X0042150Y0001700D01*
G54D39*
G01X0011450Y0016483D02*
G01X0011450Y0016350D01*
G01X0011450Y0016350D02*
G01X0011500Y0016300D01*
G01X0011500Y0016300D02*
G01X0018250Y0016300D01*
G01X0018250Y0016300D02*
G01X0019050Y0015500D01*
G01X0019050Y0015500D02*
G01X0019050Y0013400D01*
G01X0019050Y0013400D02*
G01X0019033Y0013383D01*
G01X0019033Y0013383D02*
G01X0019033Y0013031D01*
G01X0018850Y0015400D02*
G01X0018850Y0013500D01*
G01X0018850Y0013500D02*
G01X0018836Y0013486D01*
G01X0018836Y0013486D02*
G01X0018836Y0013031D01*
G01X0021001Y0013651D02*
G01X0021150Y0013800D01*
G01X0021150Y0013800D02*
G01X0021150Y0015400D01*
G01X0021150Y0015400D02*
G01X0019650Y0016900D01*
G01X0019650Y0016900D02*
G01X0013167Y0016900D01*
G01X0013350Y0017400D02*
G01X0013650Y0017100D01*
G01X0013650Y0017100D02*
G01X0019750Y0017100D01*
G01X0019750Y0017100D02*
G01X0021350Y0015500D01*
G01X0021350Y0015500D02*
G01X0021350Y0013700D01*
G01X0021350Y0013700D02*
G01X0021198Y0013548D01*
G01X0021198Y0013548D02*
G01X0021198Y0013031D01*
G01X0021001Y0013031D02*
G01X0021001Y0013651D01*
G01X0005150Y0005761D02*
G01X0008211Y0002700D01*
G01X0008211Y0002700D02*
G01X0016150Y0002700D01*
G01X0016150Y0002700D02*
G01X0016350Y0002900D01*
G01X0016350Y0002900D02*
G01X0016350Y0003476D01*
G01X0016350Y0003476D02*
G01X0016574Y0003700D01*
G01X0016574Y0003700D02*
G01X0016750Y0003700D01*
G01X0016750Y0003700D02*
G01X0016867Y0003817D01*
G01X0016867Y0003817D02*
G01X0016867Y0004369D01*
G01X0016670Y0004369D02*
G01X0016670Y0004020D01*
G01X0016670Y0004020D02*
G01X0016550Y0003900D01*
G01X0016550Y0003900D02*
G01X0016511Y0003900D01*
G01X0016511Y0003900D02*
G01X0016150Y0003539D01*
G01X0016150Y0003539D02*
G01X0016150Y0003000D01*
G01X0016150Y0003000D02*
G01X0016050Y0002900D01*
G01X0016050Y0002900D02*
G01X0008320Y0002900D01*
G01X0008320Y0002900D02*
G01X0005350Y0005870D01*
G01X0005350Y0005870D02*
G01X0005350Y0015600D01*
G01X0005350Y0015600D02*
G01X0004800Y0016150D01*
G01X0004800Y0016150D02*
G01X0004800Y0016483D01*
G01X0004300Y0016483D02*
G01X0004300Y0016350D01*
G01X0004300Y0016350D02*
G01X0005150Y0015500D01*
G01X0005150Y0015500D02*
G01X0005150Y0005761D01*
G01X0013619Y0009980D02*
G01X0014450Y0009980D01*
G01X0014450Y0009980D02*
G01X0014980Y0010510D01*
G01X0014980Y0010510D02*
G01X0014980Y0011570D01*
G01X0014980Y0011570D02*
G01X0013750Y0012800D01*
G01X0013750Y0012800D02*
G01X0013750Y0013800D01*
G01X0013750Y0013800D02*
G01X0013450Y0014100D01*
G01X0013450Y0014100D02*
G01X0007250Y0014100D01*
G01X0007250Y0014100D02*
G01X0005350Y0016000D01*
G01X0005350Y0016000D02*
G01X0005350Y0016483D01*
G01X0005850Y0016483D02*
G01X0005850Y0015800D01*
G01X0005850Y0015800D02*
G01X0007350Y0014300D01*
G01X0007350Y0014300D02*
G01X0013550Y0014300D01*
G01X0013550Y0014300D02*
G01X0013950Y0013900D01*
G01X0013950Y0013900D02*
G01X0013950Y0012900D01*
G01X0013950Y0012900D02*
G01X0015209Y0011641D01*
G01X0015209Y0011641D02*
G01X0015209Y0010426D01*
G01X0015209Y0010426D02*
G01X0014566Y0009783D01*
G01X0014566Y0009783D02*
G01X0013619Y0009783D01*
G01X0018442Y0013031D02*
G01X0018442Y0013392D01*
G01X0018442Y0013392D02*
G01X0018650Y0013600D01*
G01X0018650Y0013600D02*
G01X0018650Y0015300D01*
G01X0018650Y0015300D02*
G01X0018050Y0015900D01*
G01X0018050Y0015900D02*
G01X0010450Y0015900D01*
G01X0010450Y0015900D02*
G01X0010350Y0016000D01*
G01X0010350Y0016000D02*
G01X0010350Y0016483D01*
G01X0010850Y0016483D02*
G01X0010850Y0016200D01*
G01X0010850Y0016200D02*
G01X0010950Y0016100D01*
G01X0010950Y0016100D02*
G01X0018150Y0016100D01*
G01X0018150Y0016100D02*
G01X0018850Y0015400D01*
G01X0018450Y0015200D02*
G01X0018450Y0013700D01*
G01X0018450Y0013700D02*
G01X0018245Y0013495D01*
G01X0018245Y0013495D02*
G01X0018245Y0013031D01*
G01X0018048Y0013031D02*
G01X0018048Y0013598D01*
G01X0018048Y0013598D02*
G01X0018250Y0013800D01*
G01X0018250Y0013800D02*
G01X0018250Y0015100D01*
G01X0018250Y0015100D02*
G01X0017850Y0015500D01*
G01X0017850Y0015500D02*
G01X0009450Y0015500D01*
G01X0009450Y0015500D02*
G01X0009350Y0015600D01*
G01X0009350Y0015600D02*
G01X0009350Y0016483D01*
G01X0009850Y0016483D02*
G01X0009850Y0015800D01*
G01X0009850Y0015800D02*
G01X0009950Y0015700D01*
G01X0009950Y0015700D02*
G01X0017950Y0015700D01*
G01X0017950Y0015700D02*
G01X0018450Y0015200D01*
G01X0018050Y0015000D02*
G01X0018050Y0013900D01*
G01X0018050Y0013900D02*
G01X0017852Y0013702D01*
G01X0017852Y0013702D02*
G01X0017852Y0013031D01*
G01X0018050Y0015000D02*
G01X0017750Y0015300D01*
G01X0017750Y0015300D02*
G01X0008950Y0015300D01*
G01X0008950Y0015300D02*
G01X0008850Y0015400D01*
G01X0008850Y0015400D02*
G01X0008850Y0016483D01*
G01X0013167Y0017400D02*
G01X0013350Y0017400D01*
G01X0006350Y0016483D02*
G01X0006350Y0015600D01*
G01X0006350Y0015600D02*
G01X0007450Y0014500D01*
G01X0007450Y0014500D02*
G01X0013650Y0014500D01*
G01X0013650Y0014500D02*
G01X0014702Y0013448D01*
G01X0014702Y0013448D02*
G01X0014702Y0013031D01*
G01X0014899Y0013031D02*
G01X0014899Y0013551D01*
G01X0014899Y0013551D02*
G01X0013750Y0014700D01*
G01X0013750Y0014700D02*
G01X0007550Y0014700D01*
G01X0007550Y0014700D02*
G01X0006850Y0015400D01*
G01X0006850Y0015400D02*
G01X0006850Y0016483D01*
G01X0007350Y0016483D02*
G01X0007350Y0015200D01*
G01X0007350Y0015200D02*
G01X0007650Y0014900D01*
G01X0007650Y0014900D02*
G01X0016750Y0014900D01*
G01X0016750Y0014900D02*
G01X0016867Y0014783D01*
G01X0016867Y0014783D02*
G01X0016867Y0013031D01*
G01X0016850Y0015100D02*
G01X0017064Y0014886D01*
G01X0017064Y0014886D02*
G01X0017064Y0013031D01*
G01X0016850Y0015100D02*
G01X0008050Y0015100D01*
G01X0008050Y0015100D02*
G01X0007850Y0015300D01*
G01X0007850Y0015300D02*
G01X0007850Y0016483D01*
M02*
