G75*
%MOIN*%
%OFA0B0*%
%FSLAX25Y25*%
%IPPOS*%
%LPD*%
%AMOC8*
5,1,8,0,0,1.08239X$1,22.5*
%
%ADD10C,0.00800*%
%ADD11C,0.00000*%
%ADD12C,0.12998*%
%ADD13R,0.03156X0.05518*%
%ADD14R,0.03943X0.06699*%
%ADD15R,0.04534X0.02959*%
%ADD16C,0.03500*%
%ADD17C,0.04300*%
%ADD18C,0.09750*%
%ADD19R,0.05912X0.01975*%
%ADD20R,0.01975X0.05912*%
%ADD21R,0.05912X0.09061*%
%ADD22R,0.05912X0.09849*%
%ADD23C,0.06306*%
%ADD24R,0.04731X0.05321*%
%ADD25R,0.05518X0.03156*%
D10*
X0003750Y0005623D02*
X0003750Y0118377D01*
X0003752Y0118504D01*
X0003758Y0118631D01*
X0003768Y0118757D01*
X0003781Y0118884D01*
X0003799Y0119009D01*
X0003820Y0119135D01*
X0003845Y0119259D01*
X0003875Y0119383D01*
X0003907Y0119505D01*
X0003944Y0119627D01*
X0003984Y0119747D01*
X0004028Y0119866D01*
X0004076Y0119984D01*
X0004127Y0120100D01*
X0004182Y0120215D01*
X0004241Y0120328D01*
X0004302Y0120439D01*
X0004368Y0120547D01*
X0004436Y0120654D01*
X0004508Y0120759D01*
X0004583Y0120862D01*
X0004661Y0120962D01*
X0004742Y0121059D01*
X0004826Y0121155D01*
X0004913Y0121247D01*
X0005003Y0121337D01*
X0005095Y0121424D01*
X0005191Y0121508D01*
X0005288Y0121589D01*
X0005388Y0121667D01*
X0005491Y0121742D01*
X0005596Y0121814D01*
X0005703Y0121882D01*
X0005812Y0121948D01*
X0005922Y0122009D01*
X0006035Y0122068D01*
X0006150Y0122123D01*
X0006266Y0122174D01*
X0006384Y0122222D01*
X0006503Y0122266D01*
X0006623Y0122306D01*
X0006745Y0122343D01*
X0006867Y0122375D01*
X0006991Y0122405D01*
X0007115Y0122430D01*
X0007241Y0122451D01*
X0007366Y0122469D01*
X0007493Y0122482D01*
X0007619Y0122492D01*
X0007746Y0122498D01*
X0007873Y0122500D01*
X0132627Y0122500D01*
X0132754Y0122498D01*
X0132881Y0122492D01*
X0133007Y0122482D01*
X0133134Y0122469D01*
X0133259Y0122451D01*
X0133385Y0122430D01*
X0133509Y0122405D01*
X0133633Y0122375D01*
X0133755Y0122343D01*
X0133877Y0122306D01*
X0133997Y0122266D01*
X0134116Y0122222D01*
X0134234Y0122174D01*
X0134350Y0122123D01*
X0134465Y0122068D01*
X0134578Y0122009D01*
X0134689Y0121948D01*
X0134797Y0121882D01*
X0134904Y0121814D01*
X0135009Y0121742D01*
X0135112Y0121667D01*
X0135212Y0121589D01*
X0135309Y0121508D01*
X0135405Y0121424D01*
X0135497Y0121337D01*
X0135587Y0121247D01*
X0135674Y0121155D01*
X0135758Y0121059D01*
X0135839Y0120962D01*
X0135917Y0120862D01*
X0135992Y0120759D01*
X0136064Y0120654D01*
X0136132Y0120547D01*
X0136198Y0120439D01*
X0136259Y0120328D01*
X0136318Y0120215D01*
X0136373Y0120100D01*
X0136424Y0119984D01*
X0136472Y0119866D01*
X0136516Y0119747D01*
X0136556Y0119627D01*
X0136593Y0119505D01*
X0136625Y0119383D01*
X0136655Y0119259D01*
X0136680Y0119135D01*
X0136701Y0119009D01*
X0136719Y0118884D01*
X0136732Y0118757D01*
X0136742Y0118631D01*
X0136748Y0118504D01*
X0136750Y0118377D01*
X0136750Y0005623D01*
X0136748Y0005496D01*
X0136742Y0005369D01*
X0136732Y0005243D01*
X0136719Y0005116D01*
X0136701Y0004991D01*
X0136680Y0004865D01*
X0136655Y0004741D01*
X0136625Y0004617D01*
X0136593Y0004495D01*
X0136556Y0004373D01*
X0136516Y0004253D01*
X0136472Y0004134D01*
X0136424Y0004016D01*
X0136373Y0003900D01*
X0136318Y0003785D01*
X0136259Y0003672D01*
X0136198Y0003561D01*
X0136132Y0003453D01*
X0136064Y0003346D01*
X0135992Y0003241D01*
X0135917Y0003138D01*
X0135839Y0003038D01*
X0135758Y0002941D01*
X0135674Y0002845D01*
X0135587Y0002753D01*
X0135497Y0002663D01*
X0135405Y0002576D01*
X0135309Y0002492D01*
X0135212Y0002411D01*
X0135112Y0002333D01*
X0135009Y0002258D01*
X0134904Y0002186D01*
X0134797Y0002118D01*
X0134689Y0002052D01*
X0134578Y0001991D01*
X0134465Y0001932D01*
X0134350Y0001877D01*
X0134234Y0001826D01*
X0134116Y0001778D01*
X0133997Y0001734D01*
X0133877Y0001694D01*
X0133755Y0001657D01*
X0133633Y0001625D01*
X0133509Y0001595D01*
X0133385Y0001570D01*
X0133259Y0001549D01*
X0133134Y0001531D01*
X0133007Y0001518D01*
X0132881Y0001508D01*
X0132754Y0001502D01*
X0132627Y0001500D01*
X0007873Y0001500D01*
X0007746Y0001502D01*
X0007619Y0001508D01*
X0007493Y0001518D01*
X0007366Y0001531D01*
X0007241Y0001549D01*
X0007115Y0001570D01*
X0006991Y0001595D01*
X0006867Y0001625D01*
X0006745Y0001657D01*
X0006623Y0001694D01*
X0006503Y0001734D01*
X0006384Y0001778D01*
X0006266Y0001826D01*
X0006150Y0001877D01*
X0006035Y0001932D01*
X0005922Y0001991D01*
X0005811Y0002052D01*
X0005703Y0002118D01*
X0005596Y0002186D01*
X0005491Y0002258D01*
X0005388Y0002333D01*
X0005288Y0002411D01*
X0005191Y0002492D01*
X0005095Y0002576D01*
X0005003Y0002663D01*
X0004913Y0002753D01*
X0004826Y0002845D01*
X0004742Y0002941D01*
X0004661Y0003038D01*
X0004583Y0003138D01*
X0004508Y0003241D01*
X0004436Y0003346D01*
X0004368Y0003453D01*
X0004302Y0003562D01*
X0004241Y0003672D01*
X0004182Y0003785D01*
X0004127Y0003900D01*
X0004076Y0004016D01*
X0004028Y0004134D01*
X0003984Y0004253D01*
X0003944Y0004373D01*
X0003907Y0004495D01*
X0003875Y0004617D01*
X0003845Y0004741D01*
X0003820Y0004865D01*
X0003799Y0004991D01*
X0003781Y0005116D01*
X0003768Y0005243D01*
X0003758Y0005369D01*
X0003752Y0005496D01*
X0003750Y0005623D01*
D11*
X0007451Y0011500D02*
X0007453Y0011658D01*
X0007459Y0011816D01*
X0007469Y0011974D01*
X0007483Y0012132D01*
X0007501Y0012289D01*
X0007522Y0012446D01*
X0007548Y0012602D01*
X0007578Y0012758D01*
X0007611Y0012913D01*
X0007649Y0013066D01*
X0007690Y0013219D01*
X0007735Y0013371D01*
X0007784Y0013522D01*
X0007837Y0013671D01*
X0007893Y0013819D01*
X0007953Y0013965D01*
X0008017Y0014110D01*
X0008085Y0014253D01*
X0008156Y0014395D01*
X0008230Y0014535D01*
X0008308Y0014672D01*
X0008390Y0014808D01*
X0008474Y0014942D01*
X0008563Y0015073D01*
X0008654Y0015202D01*
X0008749Y0015329D01*
X0008846Y0015454D01*
X0008947Y0015576D01*
X0009051Y0015695D01*
X0009158Y0015812D01*
X0009268Y0015926D01*
X0009381Y0016037D01*
X0009496Y0016146D01*
X0009614Y0016251D01*
X0009735Y0016353D01*
X0009858Y0016453D01*
X0009984Y0016549D01*
X0010112Y0016642D01*
X0010242Y0016732D01*
X0010375Y0016818D01*
X0010510Y0016902D01*
X0010646Y0016981D01*
X0010785Y0017058D01*
X0010926Y0017130D01*
X0011068Y0017200D01*
X0011212Y0017265D01*
X0011358Y0017327D01*
X0011505Y0017385D01*
X0011654Y0017440D01*
X0011804Y0017491D01*
X0011955Y0017538D01*
X0012107Y0017581D01*
X0012260Y0017620D01*
X0012415Y0017656D01*
X0012570Y0017687D01*
X0012726Y0017715D01*
X0012882Y0017739D01*
X0013039Y0017759D01*
X0013197Y0017775D01*
X0013354Y0017787D01*
X0013513Y0017795D01*
X0013671Y0017799D01*
X0013829Y0017799D01*
X0013987Y0017795D01*
X0014146Y0017787D01*
X0014303Y0017775D01*
X0014461Y0017759D01*
X0014618Y0017739D01*
X0014774Y0017715D01*
X0014930Y0017687D01*
X0015085Y0017656D01*
X0015240Y0017620D01*
X0015393Y0017581D01*
X0015545Y0017538D01*
X0015696Y0017491D01*
X0015846Y0017440D01*
X0015995Y0017385D01*
X0016142Y0017327D01*
X0016288Y0017265D01*
X0016432Y0017200D01*
X0016574Y0017130D01*
X0016715Y0017058D01*
X0016854Y0016981D01*
X0016990Y0016902D01*
X0017125Y0016818D01*
X0017258Y0016732D01*
X0017388Y0016642D01*
X0017516Y0016549D01*
X0017642Y0016453D01*
X0017765Y0016353D01*
X0017886Y0016251D01*
X0018004Y0016146D01*
X0018119Y0016037D01*
X0018232Y0015926D01*
X0018342Y0015812D01*
X0018449Y0015695D01*
X0018553Y0015576D01*
X0018654Y0015454D01*
X0018751Y0015329D01*
X0018846Y0015202D01*
X0018937Y0015073D01*
X0019026Y0014942D01*
X0019110Y0014808D01*
X0019192Y0014672D01*
X0019270Y0014535D01*
X0019344Y0014395D01*
X0019415Y0014253D01*
X0019483Y0014110D01*
X0019547Y0013965D01*
X0019607Y0013819D01*
X0019663Y0013671D01*
X0019716Y0013522D01*
X0019765Y0013371D01*
X0019810Y0013219D01*
X0019851Y0013066D01*
X0019889Y0012913D01*
X0019922Y0012758D01*
X0019952Y0012602D01*
X0019978Y0012446D01*
X0019999Y0012289D01*
X0020017Y0012132D01*
X0020031Y0011974D01*
X0020041Y0011816D01*
X0020047Y0011658D01*
X0020049Y0011500D01*
X0020047Y0011342D01*
X0020041Y0011184D01*
X0020031Y0011026D01*
X0020017Y0010868D01*
X0019999Y0010711D01*
X0019978Y0010554D01*
X0019952Y0010398D01*
X0019922Y0010242D01*
X0019889Y0010087D01*
X0019851Y0009934D01*
X0019810Y0009781D01*
X0019765Y0009629D01*
X0019716Y0009478D01*
X0019663Y0009329D01*
X0019607Y0009181D01*
X0019547Y0009035D01*
X0019483Y0008890D01*
X0019415Y0008747D01*
X0019344Y0008605D01*
X0019270Y0008465D01*
X0019192Y0008328D01*
X0019110Y0008192D01*
X0019026Y0008058D01*
X0018937Y0007927D01*
X0018846Y0007798D01*
X0018751Y0007671D01*
X0018654Y0007546D01*
X0018553Y0007424D01*
X0018449Y0007305D01*
X0018342Y0007188D01*
X0018232Y0007074D01*
X0018119Y0006963D01*
X0018004Y0006854D01*
X0017886Y0006749D01*
X0017765Y0006647D01*
X0017642Y0006547D01*
X0017516Y0006451D01*
X0017388Y0006358D01*
X0017258Y0006268D01*
X0017125Y0006182D01*
X0016990Y0006098D01*
X0016854Y0006019D01*
X0016715Y0005942D01*
X0016574Y0005870D01*
X0016432Y0005800D01*
X0016288Y0005735D01*
X0016142Y0005673D01*
X0015995Y0005615D01*
X0015846Y0005560D01*
X0015696Y0005509D01*
X0015545Y0005462D01*
X0015393Y0005419D01*
X0015240Y0005380D01*
X0015085Y0005344D01*
X0014930Y0005313D01*
X0014774Y0005285D01*
X0014618Y0005261D01*
X0014461Y0005241D01*
X0014303Y0005225D01*
X0014146Y0005213D01*
X0013987Y0005205D01*
X0013829Y0005201D01*
X0013671Y0005201D01*
X0013513Y0005205D01*
X0013354Y0005213D01*
X0013197Y0005225D01*
X0013039Y0005241D01*
X0012882Y0005261D01*
X0012726Y0005285D01*
X0012570Y0005313D01*
X0012415Y0005344D01*
X0012260Y0005380D01*
X0012107Y0005419D01*
X0011955Y0005462D01*
X0011804Y0005509D01*
X0011654Y0005560D01*
X0011505Y0005615D01*
X0011358Y0005673D01*
X0011212Y0005735D01*
X0011068Y0005800D01*
X0010926Y0005870D01*
X0010785Y0005942D01*
X0010646Y0006019D01*
X0010510Y0006098D01*
X0010375Y0006182D01*
X0010242Y0006268D01*
X0010112Y0006358D01*
X0009984Y0006451D01*
X0009858Y0006547D01*
X0009735Y0006647D01*
X0009614Y0006749D01*
X0009496Y0006854D01*
X0009381Y0006963D01*
X0009268Y0007074D01*
X0009158Y0007188D01*
X0009051Y0007305D01*
X0008947Y0007424D01*
X0008846Y0007546D01*
X0008749Y0007671D01*
X0008654Y0007798D01*
X0008563Y0007927D01*
X0008474Y0008058D01*
X0008390Y0008192D01*
X0008308Y0008328D01*
X0008230Y0008465D01*
X0008156Y0008605D01*
X0008085Y0008747D01*
X0008017Y0008890D01*
X0007953Y0009035D01*
X0007893Y0009181D01*
X0007837Y0009329D01*
X0007784Y0009478D01*
X0007735Y0009629D01*
X0007690Y0009781D01*
X0007649Y0009934D01*
X0007611Y0010087D01*
X0007578Y0010242D01*
X0007548Y0010398D01*
X0007522Y0010554D01*
X0007501Y0010711D01*
X0007483Y0010868D01*
X0007469Y0011026D01*
X0007459Y0011184D01*
X0007453Y0011342D01*
X0007451Y0011500D01*
X0063075Y0015500D02*
X0063077Y0015637D01*
X0063083Y0015773D01*
X0063093Y0015909D01*
X0063107Y0016045D01*
X0063125Y0016181D01*
X0063147Y0016316D01*
X0063172Y0016450D01*
X0063202Y0016583D01*
X0063236Y0016715D01*
X0063273Y0016847D01*
X0063314Y0016977D01*
X0063360Y0017106D01*
X0063408Y0017234D01*
X0063461Y0017360D01*
X0063517Y0017484D01*
X0063577Y0017607D01*
X0063640Y0017728D01*
X0063707Y0017847D01*
X0063777Y0017964D01*
X0063851Y0018080D01*
X0063928Y0018192D01*
X0064008Y0018303D01*
X0064092Y0018411D01*
X0064179Y0018517D01*
X0064268Y0018620D01*
X0064361Y0018720D01*
X0064456Y0018818D01*
X0064555Y0018913D01*
X0064656Y0019005D01*
X0064760Y0019093D01*
X0064866Y0019179D01*
X0064975Y0019262D01*
X0065086Y0019341D01*
X0065199Y0019418D01*
X0065315Y0019491D01*
X0065432Y0019560D01*
X0065552Y0019626D01*
X0065673Y0019688D01*
X0065797Y0019747D01*
X0065922Y0019803D01*
X0066048Y0019854D01*
X0066176Y0019902D01*
X0066305Y0019946D01*
X0066436Y0019987D01*
X0066568Y0020023D01*
X0066700Y0020056D01*
X0066834Y0020084D01*
X0066968Y0020109D01*
X0067103Y0020130D01*
X0067239Y0020147D01*
X0067375Y0020160D01*
X0067511Y0020169D01*
X0067648Y0020174D01*
X0067784Y0020175D01*
X0067921Y0020172D01*
X0068057Y0020165D01*
X0068193Y0020154D01*
X0068329Y0020139D01*
X0068464Y0020120D01*
X0068599Y0020097D01*
X0068733Y0020070D01*
X0068866Y0020040D01*
X0068998Y0020005D01*
X0069130Y0019967D01*
X0069259Y0019925D01*
X0069388Y0019879D01*
X0069515Y0019829D01*
X0069641Y0019775D01*
X0069765Y0019718D01*
X0069888Y0019658D01*
X0070008Y0019593D01*
X0070127Y0019526D01*
X0070243Y0019455D01*
X0070358Y0019380D01*
X0070470Y0019302D01*
X0070580Y0019221D01*
X0070688Y0019137D01*
X0070793Y0019049D01*
X0070895Y0018959D01*
X0070995Y0018866D01*
X0071092Y0018769D01*
X0071186Y0018670D01*
X0071277Y0018569D01*
X0071365Y0018464D01*
X0071450Y0018357D01*
X0071532Y0018248D01*
X0071611Y0018136D01*
X0071686Y0018022D01*
X0071758Y0017906D01*
X0071827Y0017788D01*
X0071892Y0017668D01*
X0071954Y0017546D01*
X0072012Y0017422D01*
X0072066Y0017297D01*
X0072117Y0017170D01*
X0072163Y0017042D01*
X0072207Y0016912D01*
X0072246Y0016781D01*
X0072282Y0016649D01*
X0072313Y0016516D01*
X0072341Y0016383D01*
X0072365Y0016248D01*
X0072385Y0016113D01*
X0072401Y0015977D01*
X0072413Y0015841D01*
X0072421Y0015705D01*
X0072425Y0015568D01*
X0072425Y0015432D01*
X0072421Y0015295D01*
X0072413Y0015159D01*
X0072401Y0015023D01*
X0072385Y0014887D01*
X0072365Y0014752D01*
X0072341Y0014617D01*
X0072313Y0014484D01*
X0072282Y0014351D01*
X0072246Y0014219D01*
X0072207Y0014088D01*
X0072163Y0013958D01*
X0072117Y0013830D01*
X0072066Y0013703D01*
X0072012Y0013578D01*
X0071954Y0013454D01*
X0071892Y0013332D01*
X0071827Y0013212D01*
X0071758Y0013094D01*
X0071686Y0012978D01*
X0071611Y0012864D01*
X0071532Y0012752D01*
X0071450Y0012643D01*
X0071365Y0012536D01*
X0071277Y0012431D01*
X0071186Y0012330D01*
X0071092Y0012231D01*
X0070995Y0012134D01*
X0070895Y0012041D01*
X0070793Y0011951D01*
X0070688Y0011863D01*
X0070580Y0011779D01*
X0070470Y0011698D01*
X0070358Y0011620D01*
X0070243Y0011545D01*
X0070127Y0011474D01*
X0070008Y0011407D01*
X0069888Y0011342D01*
X0069765Y0011282D01*
X0069641Y0011225D01*
X0069515Y0011171D01*
X0069388Y0011121D01*
X0069259Y0011075D01*
X0069130Y0011033D01*
X0068998Y0010995D01*
X0068866Y0010960D01*
X0068733Y0010930D01*
X0068599Y0010903D01*
X0068464Y0010880D01*
X0068329Y0010861D01*
X0068193Y0010846D01*
X0068057Y0010835D01*
X0067921Y0010828D01*
X0067784Y0010825D01*
X0067648Y0010826D01*
X0067511Y0010831D01*
X0067375Y0010840D01*
X0067239Y0010853D01*
X0067103Y0010870D01*
X0066968Y0010891D01*
X0066834Y0010916D01*
X0066700Y0010944D01*
X0066568Y0010977D01*
X0066436Y0011013D01*
X0066305Y0011054D01*
X0066176Y0011098D01*
X0066048Y0011146D01*
X0065922Y0011197D01*
X0065797Y0011253D01*
X0065673Y0011312D01*
X0065552Y0011374D01*
X0065432Y0011440D01*
X0065315Y0011509D01*
X0065199Y0011582D01*
X0065086Y0011659D01*
X0064975Y0011738D01*
X0064866Y0011821D01*
X0064760Y0011907D01*
X0064656Y0011995D01*
X0064555Y0012087D01*
X0064456Y0012182D01*
X0064361Y0012280D01*
X0064268Y0012380D01*
X0064179Y0012483D01*
X0064092Y0012589D01*
X0064008Y0012697D01*
X0063928Y0012808D01*
X0063851Y0012920D01*
X0063777Y0013036D01*
X0063707Y0013153D01*
X0063640Y0013272D01*
X0063577Y0013393D01*
X0063517Y0013516D01*
X0063461Y0013640D01*
X0063408Y0013766D01*
X0063360Y0013894D01*
X0063314Y0014023D01*
X0063273Y0014153D01*
X0063236Y0014285D01*
X0063202Y0014417D01*
X0063172Y0014550D01*
X0063147Y0014684D01*
X0063125Y0014819D01*
X0063107Y0014955D01*
X0063093Y0015091D01*
X0063083Y0015227D01*
X0063077Y0015363D01*
X0063075Y0015500D01*
X0065800Y0025500D02*
X0065802Y0025588D01*
X0065808Y0025676D01*
X0065818Y0025764D01*
X0065832Y0025851D01*
X0065850Y0025937D01*
X0065871Y0026022D01*
X0065897Y0026107D01*
X0065926Y0026190D01*
X0065959Y0026272D01*
X0065996Y0026352D01*
X0066036Y0026430D01*
X0066080Y0026507D01*
X0066127Y0026581D01*
X0066178Y0026653D01*
X0066231Y0026723D01*
X0066288Y0026791D01*
X0066348Y0026855D01*
X0066411Y0026917D01*
X0066476Y0026976D01*
X0066544Y0027032D01*
X0066615Y0027085D01*
X0066687Y0027135D01*
X0066762Y0027181D01*
X0066839Y0027224D01*
X0066918Y0027264D01*
X0066999Y0027299D01*
X0067081Y0027332D01*
X0067164Y0027360D01*
X0067249Y0027385D01*
X0067335Y0027405D01*
X0067421Y0027422D01*
X0067508Y0027435D01*
X0067596Y0027444D01*
X0067684Y0027449D01*
X0067772Y0027450D01*
X0067860Y0027447D01*
X0067948Y0027440D01*
X0068035Y0027429D01*
X0068122Y0027414D01*
X0068208Y0027395D01*
X0068294Y0027373D01*
X0068378Y0027346D01*
X0068460Y0027316D01*
X0068542Y0027282D01*
X0068622Y0027244D01*
X0068699Y0027203D01*
X0068775Y0027159D01*
X0068849Y0027111D01*
X0068921Y0027059D01*
X0068990Y0027005D01*
X0069057Y0026947D01*
X0069121Y0026887D01*
X0069182Y0026823D01*
X0069241Y0026757D01*
X0069296Y0026689D01*
X0069348Y0026617D01*
X0069397Y0026544D01*
X0069442Y0026469D01*
X0069484Y0026391D01*
X0069523Y0026312D01*
X0069558Y0026231D01*
X0069589Y0026148D01*
X0069616Y0026065D01*
X0069640Y0025980D01*
X0069660Y0025894D01*
X0069676Y0025807D01*
X0069688Y0025720D01*
X0069696Y0025632D01*
X0069700Y0025544D01*
X0069700Y0025456D01*
X0069696Y0025368D01*
X0069688Y0025280D01*
X0069676Y0025193D01*
X0069660Y0025106D01*
X0069640Y0025020D01*
X0069616Y0024935D01*
X0069589Y0024852D01*
X0069558Y0024769D01*
X0069523Y0024688D01*
X0069484Y0024609D01*
X0069442Y0024531D01*
X0069397Y0024456D01*
X0069348Y0024383D01*
X0069296Y0024311D01*
X0069241Y0024243D01*
X0069182Y0024177D01*
X0069121Y0024113D01*
X0069057Y0024053D01*
X0068990Y0023995D01*
X0068921Y0023941D01*
X0068849Y0023889D01*
X0068775Y0023841D01*
X0068699Y0023797D01*
X0068622Y0023756D01*
X0068542Y0023718D01*
X0068460Y0023684D01*
X0068378Y0023654D01*
X0068294Y0023627D01*
X0068208Y0023605D01*
X0068122Y0023586D01*
X0068035Y0023571D01*
X0067948Y0023560D01*
X0067860Y0023553D01*
X0067772Y0023550D01*
X0067684Y0023551D01*
X0067596Y0023556D01*
X0067508Y0023565D01*
X0067421Y0023578D01*
X0067335Y0023595D01*
X0067249Y0023615D01*
X0067164Y0023640D01*
X0067081Y0023668D01*
X0066999Y0023701D01*
X0066918Y0023736D01*
X0066839Y0023776D01*
X0066762Y0023819D01*
X0066687Y0023865D01*
X0066615Y0023915D01*
X0066544Y0023968D01*
X0066476Y0024024D01*
X0066411Y0024083D01*
X0066348Y0024145D01*
X0066288Y0024209D01*
X0066231Y0024277D01*
X0066178Y0024347D01*
X0066127Y0024419D01*
X0066080Y0024493D01*
X0066036Y0024570D01*
X0065996Y0024648D01*
X0065959Y0024728D01*
X0065926Y0024810D01*
X0065897Y0024893D01*
X0065871Y0024978D01*
X0065850Y0025063D01*
X0065832Y0025149D01*
X0065818Y0025236D01*
X0065808Y0025324D01*
X0065802Y0025412D01*
X0065800Y0025500D01*
X0063075Y0035500D02*
X0063077Y0035637D01*
X0063083Y0035773D01*
X0063093Y0035909D01*
X0063107Y0036045D01*
X0063125Y0036181D01*
X0063147Y0036316D01*
X0063172Y0036450D01*
X0063202Y0036583D01*
X0063236Y0036715D01*
X0063273Y0036847D01*
X0063314Y0036977D01*
X0063360Y0037106D01*
X0063408Y0037234D01*
X0063461Y0037360D01*
X0063517Y0037484D01*
X0063577Y0037607D01*
X0063640Y0037728D01*
X0063707Y0037847D01*
X0063777Y0037964D01*
X0063851Y0038080D01*
X0063928Y0038192D01*
X0064008Y0038303D01*
X0064092Y0038411D01*
X0064179Y0038517D01*
X0064268Y0038620D01*
X0064361Y0038720D01*
X0064456Y0038818D01*
X0064555Y0038913D01*
X0064656Y0039005D01*
X0064760Y0039093D01*
X0064866Y0039179D01*
X0064975Y0039262D01*
X0065086Y0039341D01*
X0065199Y0039418D01*
X0065315Y0039491D01*
X0065432Y0039560D01*
X0065552Y0039626D01*
X0065673Y0039688D01*
X0065797Y0039747D01*
X0065922Y0039803D01*
X0066048Y0039854D01*
X0066176Y0039902D01*
X0066305Y0039946D01*
X0066436Y0039987D01*
X0066568Y0040023D01*
X0066700Y0040056D01*
X0066834Y0040084D01*
X0066968Y0040109D01*
X0067103Y0040130D01*
X0067239Y0040147D01*
X0067375Y0040160D01*
X0067511Y0040169D01*
X0067648Y0040174D01*
X0067784Y0040175D01*
X0067921Y0040172D01*
X0068057Y0040165D01*
X0068193Y0040154D01*
X0068329Y0040139D01*
X0068464Y0040120D01*
X0068599Y0040097D01*
X0068733Y0040070D01*
X0068866Y0040040D01*
X0068998Y0040005D01*
X0069130Y0039967D01*
X0069259Y0039925D01*
X0069388Y0039879D01*
X0069515Y0039829D01*
X0069641Y0039775D01*
X0069765Y0039718D01*
X0069888Y0039658D01*
X0070008Y0039593D01*
X0070127Y0039526D01*
X0070243Y0039455D01*
X0070358Y0039380D01*
X0070470Y0039302D01*
X0070580Y0039221D01*
X0070688Y0039137D01*
X0070793Y0039049D01*
X0070895Y0038959D01*
X0070995Y0038866D01*
X0071092Y0038769D01*
X0071186Y0038670D01*
X0071277Y0038569D01*
X0071365Y0038464D01*
X0071450Y0038357D01*
X0071532Y0038248D01*
X0071611Y0038136D01*
X0071686Y0038022D01*
X0071758Y0037906D01*
X0071827Y0037788D01*
X0071892Y0037668D01*
X0071954Y0037546D01*
X0072012Y0037422D01*
X0072066Y0037297D01*
X0072117Y0037170D01*
X0072163Y0037042D01*
X0072207Y0036912D01*
X0072246Y0036781D01*
X0072282Y0036649D01*
X0072313Y0036516D01*
X0072341Y0036383D01*
X0072365Y0036248D01*
X0072385Y0036113D01*
X0072401Y0035977D01*
X0072413Y0035841D01*
X0072421Y0035705D01*
X0072425Y0035568D01*
X0072425Y0035432D01*
X0072421Y0035295D01*
X0072413Y0035159D01*
X0072401Y0035023D01*
X0072385Y0034887D01*
X0072365Y0034752D01*
X0072341Y0034617D01*
X0072313Y0034484D01*
X0072282Y0034351D01*
X0072246Y0034219D01*
X0072207Y0034088D01*
X0072163Y0033958D01*
X0072117Y0033830D01*
X0072066Y0033703D01*
X0072012Y0033578D01*
X0071954Y0033454D01*
X0071892Y0033332D01*
X0071827Y0033212D01*
X0071758Y0033094D01*
X0071686Y0032978D01*
X0071611Y0032864D01*
X0071532Y0032752D01*
X0071450Y0032643D01*
X0071365Y0032536D01*
X0071277Y0032431D01*
X0071186Y0032330D01*
X0071092Y0032231D01*
X0070995Y0032134D01*
X0070895Y0032041D01*
X0070793Y0031951D01*
X0070688Y0031863D01*
X0070580Y0031779D01*
X0070470Y0031698D01*
X0070358Y0031620D01*
X0070243Y0031545D01*
X0070127Y0031474D01*
X0070008Y0031407D01*
X0069888Y0031342D01*
X0069765Y0031282D01*
X0069641Y0031225D01*
X0069515Y0031171D01*
X0069388Y0031121D01*
X0069259Y0031075D01*
X0069130Y0031033D01*
X0068998Y0030995D01*
X0068866Y0030960D01*
X0068733Y0030930D01*
X0068599Y0030903D01*
X0068464Y0030880D01*
X0068329Y0030861D01*
X0068193Y0030846D01*
X0068057Y0030835D01*
X0067921Y0030828D01*
X0067784Y0030825D01*
X0067648Y0030826D01*
X0067511Y0030831D01*
X0067375Y0030840D01*
X0067239Y0030853D01*
X0067103Y0030870D01*
X0066968Y0030891D01*
X0066834Y0030916D01*
X0066700Y0030944D01*
X0066568Y0030977D01*
X0066436Y0031013D01*
X0066305Y0031054D01*
X0066176Y0031098D01*
X0066048Y0031146D01*
X0065922Y0031197D01*
X0065797Y0031253D01*
X0065673Y0031312D01*
X0065552Y0031374D01*
X0065432Y0031440D01*
X0065315Y0031509D01*
X0065199Y0031582D01*
X0065086Y0031659D01*
X0064975Y0031738D01*
X0064866Y0031821D01*
X0064760Y0031907D01*
X0064656Y0031995D01*
X0064555Y0032087D01*
X0064456Y0032182D01*
X0064361Y0032280D01*
X0064268Y0032380D01*
X0064179Y0032483D01*
X0064092Y0032589D01*
X0064008Y0032697D01*
X0063928Y0032808D01*
X0063851Y0032920D01*
X0063777Y0033036D01*
X0063707Y0033153D01*
X0063640Y0033272D01*
X0063577Y0033393D01*
X0063517Y0033516D01*
X0063461Y0033640D01*
X0063408Y0033766D01*
X0063360Y0033894D01*
X0063314Y0034023D01*
X0063273Y0034153D01*
X0063236Y0034285D01*
X0063202Y0034417D01*
X0063172Y0034550D01*
X0063147Y0034684D01*
X0063125Y0034819D01*
X0063107Y0034955D01*
X0063093Y0035091D01*
X0063083Y0035227D01*
X0063077Y0035363D01*
X0063075Y0035500D01*
X0075575Y0035500D02*
X0075577Y0035637D01*
X0075583Y0035773D01*
X0075593Y0035909D01*
X0075607Y0036045D01*
X0075625Y0036181D01*
X0075647Y0036316D01*
X0075672Y0036450D01*
X0075702Y0036583D01*
X0075736Y0036715D01*
X0075773Y0036847D01*
X0075814Y0036977D01*
X0075860Y0037106D01*
X0075908Y0037234D01*
X0075961Y0037360D01*
X0076017Y0037484D01*
X0076077Y0037607D01*
X0076140Y0037728D01*
X0076207Y0037847D01*
X0076277Y0037964D01*
X0076351Y0038080D01*
X0076428Y0038192D01*
X0076508Y0038303D01*
X0076592Y0038411D01*
X0076679Y0038517D01*
X0076768Y0038620D01*
X0076861Y0038720D01*
X0076956Y0038818D01*
X0077055Y0038913D01*
X0077156Y0039005D01*
X0077260Y0039093D01*
X0077366Y0039179D01*
X0077475Y0039262D01*
X0077586Y0039341D01*
X0077699Y0039418D01*
X0077815Y0039491D01*
X0077932Y0039560D01*
X0078052Y0039626D01*
X0078173Y0039688D01*
X0078297Y0039747D01*
X0078422Y0039803D01*
X0078548Y0039854D01*
X0078676Y0039902D01*
X0078805Y0039946D01*
X0078936Y0039987D01*
X0079068Y0040023D01*
X0079200Y0040056D01*
X0079334Y0040084D01*
X0079468Y0040109D01*
X0079603Y0040130D01*
X0079739Y0040147D01*
X0079875Y0040160D01*
X0080011Y0040169D01*
X0080148Y0040174D01*
X0080284Y0040175D01*
X0080421Y0040172D01*
X0080557Y0040165D01*
X0080693Y0040154D01*
X0080829Y0040139D01*
X0080964Y0040120D01*
X0081099Y0040097D01*
X0081233Y0040070D01*
X0081366Y0040040D01*
X0081498Y0040005D01*
X0081630Y0039967D01*
X0081759Y0039925D01*
X0081888Y0039879D01*
X0082015Y0039829D01*
X0082141Y0039775D01*
X0082265Y0039718D01*
X0082388Y0039658D01*
X0082508Y0039593D01*
X0082627Y0039526D01*
X0082743Y0039455D01*
X0082858Y0039380D01*
X0082970Y0039302D01*
X0083080Y0039221D01*
X0083188Y0039137D01*
X0083293Y0039049D01*
X0083395Y0038959D01*
X0083495Y0038866D01*
X0083592Y0038769D01*
X0083686Y0038670D01*
X0083777Y0038569D01*
X0083865Y0038464D01*
X0083950Y0038357D01*
X0084032Y0038248D01*
X0084111Y0038136D01*
X0084186Y0038022D01*
X0084258Y0037906D01*
X0084327Y0037788D01*
X0084392Y0037668D01*
X0084454Y0037546D01*
X0084512Y0037422D01*
X0084566Y0037297D01*
X0084617Y0037170D01*
X0084663Y0037042D01*
X0084707Y0036912D01*
X0084746Y0036781D01*
X0084782Y0036649D01*
X0084813Y0036516D01*
X0084841Y0036383D01*
X0084865Y0036248D01*
X0084885Y0036113D01*
X0084901Y0035977D01*
X0084913Y0035841D01*
X0084921Y0035705D01*
X0084925Y0035568D01*
X0084925Y0035432D01*
X0084921Y0035295D01*
X0084913Y0035159D01*
X0084901Y0035023D01*
X0084885Y0034887D01*
X0084865Y0034752D01*
X0084841Y0034617D01*
X0084813Y0034484D01*
X0084782Y0034351D01*
X0084746Y0034219D01*
X0084707Y0034088D01*
X0084663Y0033958D01*
X0084617Y0033830D01*
X0084566Y0033703D01*
X0084512Y0033578D01*
X0084454Y0033454D01*
X0084392Y0033332D01*
X0084327Y0033212D01*
X0084258Y0033094D01*
X0084186Y0032978D01*
X0084111Y0032864D01*
X0084032Y0032752D01*
X0083950Y0032643D01*
X0083865Y0032536D01*
X0083777Y0032431D01*
X0083686Y0032330D01*
X0083592Y0032231D01*
X0083495Y0032134D01*
X0083395Y0032041D01*
X0083293Y0031951D01*
X0083188Y0031863D01*
X0083080Y0031779D01*
X0082970Y0031698D01*
X0082858Y0031620D01*
X0082743Y0031545D01*
X0082627Y0031474D01*
X0082508Y0031407D01*
X0082388Y0031342D01*
X0082265Y0031282D01*
X0082141Y0031225D01*
X0082015Y0031171D01*
X0081888Y0031121D01*
X0081759Y0031075D01*
X0081630Y0031033D01*
X0081498Y0030995D01*
X0081366Y0030960D01*
X0081233Y0030930D01*
X0081099Y0030903D01*
X0080964Y0030880D01*
X0080829Y0030861D01*
X0080693Y0030846D01*
X0080557Y0030835D01*
X0080421Y0030828D01*
X0080284Y0030825D01*
X0080148Y0030826D01*
X0080011Y0030831D01*
X0079875Y0030840D01*
X0079739Y0030853D01*
X0079603Y0030870D01*
X0079468Y0030891D01*
X0079334Y0030916D01*
X0079200Y0030944D01*
X0079068Y0030977D01*
X0078936Y0031013D01*
X0078805Y0031054D01*
X0078676Y0031098D01*
X0078548Y0031146D01*
X0078422Y0031197D01*
X0078297Y0031253D01*
X0078173Y0031312D01*
X0078052Y0031374D01*
X0077932Y0031440D01*
X0077815Y0031509D01*
X0077699Y0031582D01*
X0077586Y0031659D01*
X0077475Y0031738D01*
X0077366Y0031821D01*
X0077260Y0031907D01*
X0077156Y0031995D01*
X0077055Y0032087D01*
X0076956Y0032182D01*
X0076861Y0032280D01*
X0076768Y0032380D01*
X0076679Y0032483D01*
X0076592Y0032589D01*
X0076508Y0032697D01*
X0076428Y0032808D01*
X0076351Y0032920D01*
X0076277Y0033036D01*
X0076207Y0033153D01*
X0076140Y0033272D01*
X0076077Y0033393D01*
X0076017Y0033516D01*
X0075961Y0033640D01*
X0075908Y0033766D01*
X0075860Y0033894D01*
X0075814Y0034023D01*
X0075773Y0034153D01*
X0075736Y0034285D01*
X0075702Y0034417D01*
X0075672Y0034550D01*
X0075647Y0034684D01*
X0075625Y0034819D01*
X0075607Y0034955D01*
X0075593Y0035091D01*
X0075583Y0035227D01*
X0075577Y0035363D01*
X0075575Y0035500D01*
X0085800Y0029500D02*
X0085802Y0029588D01*
X0085808Y0029676D01*
X0085818Y0029764D01*
X0085832Y0029851D01*
X0085850Y0029937D01*
X0085871Y0030022D01*
X0085897Y0030107D01*
X0085926Y0030190D01*
X0085959Y0030272D01*
X0085996Y0030352D01*
X0086036Y0030430D01*
X0086080Y0030507D01*
X0086127Y0030581D01*
X0086178Y0030653D01*
X0086231Y0030723D01*
X0086288Y0030791D01*
X0086348Y0030855D01*
X0086411Y0030917D01*
X0086476Y0030976D01*
X0086544Y0031032D01*
X0086615Y0031085D01*
X0086687Y0031135D01*
X0086762Y0031181D01*
X0086839Y0031224D01*
X0086918Y0031264D01*
X0086999Y0031299D01*
X0087081Y0031332D01*
X0087164Y0031360D01*
X0087249Y0031385D01*
X0087335Y0031405D01*
X0087421Y0031422D01*
X0087508Y0031435D01*
X0087596Y0031444D01*
X0087684Y0031449D01*
X0087772Y0031450D01*
X0087860Y0031447D01*
X0087948Y0031440D01*
X0088035Y0031429D01*
X0088122Y0031414D01*
X0088208Y0031395D01*
X0088294Y0031373D01*
X0088378Y0031346D01*
X0088460Y0031316D01*
X0088542Y0031282D01*
X0088622Y0031244D01*
X0088699Y0031203D01*
X0088775Y0031159D01*
X0088849Y0031111D01*
X0088921Y0031059D01*
X0088990Y0031005D01*
X0089057Y0030947D01*
X0089121Y0030887D01*
X0089182Y0030823D01*
X0089241Y0030757D01*
X0089296Y0030689D01*
X0089348Y0030617D01*
X0089397Y0030544D01*
X0089442Y0030469D01*
X0089484Y0030391D01*
X0089523Y0030312D01*
X0089558Y0030231D01*
X0089589Y0030148D01*
X0089616Y0030065D01*
X0089640Y0029980D01*
X0089660Y0029894D01*
X0089676Y0029807D01*
X0089688Y0029720D01*
X0089696Y0029632D01*
X0089700Y0029544D01*
X0089700Y0029456D01*
X0089696Y0029368D01*
X0089688Y0029280D01*
X0089676Y0029193D01*
X0089660Y0029106D01*
X0089640Y0029020D01*
X0089616Y0028935D01*
X0089589Y0028852D01*
X0089558Y0028769D01*
X0089523Y0028688D01*
X0089484Y0028609D01*
X0089442Y0028531D01*
X0089397Y0028456D01*
X0089348Y0028383D01*
X0089296Y0028311D01*
X0089241Y0028243D01*
X0089182Y0028177D01*
X0089121Y0028113D01*
X0089057Y0028053D01*
X0088990Y0027995D01*
X0088921Y0027941D01*
X0088849Y0027889D01*
X0088775Y0027841D01*
X0088699Y0027797D01*
X0088622Y0027756D01*
X0088542Y0027718D01*
X0088460Y0027684D01*
X0088378Y0027654D01*
X0088294Y0027627D01*
X0088208Y0027605D01*
X0088122Y0027586D01*
X0088035Y0027571D01*
X0087948Y0027560D01*
X0087860Y0027553D01*
X0087772Y0027550D01*
X0087684Y0027551D01*
X0087596Y0027556D01*
X0087508Y0027565D01*
X0087421Y0027578D01*
X0087335Y0027595D01*
X0087249Y0027615D01*
X0087164Y0027640D01*
X0087081Y0027668D01*
X0086999Y0027701D01*
X0086918Y0027736D01*
X0086839Y0027776D01*
X0086762Y0027819D01*
X0086687Y0027865D01*
X0086615Y0027915D01*
X0086544Y0027968D01*
X0086476Y0028024D01*
X0086411Y0028083D01*
X0086348Y0028145D01*
X0086288Y0028209D01*
X0086231Y0028277D01*
X0086178Y0028347D01*
X0086127Y0028419D01*
X0086080Y0028493D01*
X0086036Y0028570D01*
X0085996Y0028648D01*
X0085959Y0028728D01*
X0085926Y0028810D01*
X0085897Y0028893D01*
X0085871Y0028978D01*
X0085850Y0029063D01*
X0085832Y0029149D01*
X0085818Y0029236D01*
X0085808Y0029324D01*
X0085802Y0029412D01*
X0085800Y0029500D01*
X0085800Y0021500D02*
X0085802Y0021588D01*
X0085808Y0021676D01*
X0085818Y0021764D01*
X0085832Y0021851D01*
X0085850Y0021937D01*
X0085871Y0022022D01*
X0085897Y0022107D01*
X0085926Y0022190D01*
X0085959Y0022272D01*
X0085996Y0022352D01*
X0086036Y0022430D01*
X0086080Y0022507D01*
X0086127Y0022581D01*
X0086178Y0022653D01*
X0086231Y0022723D01*
X0086288Y0022791D01*
X0086348Y0022855D01*
X0086411Y0022917D01*
X0086476Y0022976D01*
X0086544Y0023032D01*
X0086615Y0023085D01*
X0086687Y0023135D01*
X0086762Y0023181D01*
X0086839Y0023224D01*
X0086918Y0023264D01*
X0086999Y0023299D01*
X0087081Y0023332D01*
X0087164Y0023360D01*
X0087249Y0023385D01*
X0087335Y0023405D01*
X0087421Y0023422D01*
X0087508Y0023435D01*
X0087596Y0023444D01*
X0087684Y0023449D01*
X0087772Y0023450D01*
X0087860Y0023447D01*
X0087948Y0023440D01*
X0088035Y0023429D01*
X0088122Y0023414D01*
X0088208Y0023395D01*
X0088294Y0023373D01*
X0088378Y0023346D01*
X0088460Y0023316D01*
X0088542Y0023282D01*
X0088622Y0023244D01*
X0088699Y0023203D01*
X0088775Y0023159D01*
X0088849Y0023111D01*
X0088921Y0023059D01*
X0088990Y0023005D01*
X0089057Y0022947D01*
X0089121Y0022887D01*
X0089182Y0022823D01*
X0089241Y0022757D01*
X0089296Y0022689D01*
X0089348Y0022617D01*
X0089397Y0022544D01*
X0089442Y0022469D01*
X0089484Y0022391D01*
X0089523Y0022312D01*
X0089558Y0022231D01*
X0089589Y0022148D01*
X0089616Y0022065D01*
X0089640Y0021980D01*
X0089660Y0021894D01*
X0089676Y0021807D01*
X0089688Y0021720D01*
X0089696Y0021632D01*
X0089700Y0021544D01*
X0089700Y0021456D01*
X0089696Y0021368D01*
X0089688Y0021280D01*
X0089676Y0021193D01*
X0089660Y0021106D01*
X0089640Y0021020D01*
X0089616Y0020935D01*
X0089589Y0020852D01*
X0089558Y0020769D01*
X0089523Y0020688D01*
X0089484Y0020609D01*
X0089442Y0020531D01*
X0089397Y0020456D01*
X0089348Y0020383D01*
X0089296Y0020311D01*
X0089241Y0020243D01*
X0089182Y0020177D01*
X0089121Y0020113D01*
X0089057Y0020053D01*
X0088990Y0019995D01*
X0088921Y0019941D01*
X0088849Y0019889D01*
X0088775Y0019841D01*
X0088699Y0019797D01*
X0088622Y0019756D01*
X0088542Y0019718D01*
X0088460Y0019684D01*
X0088378Y0019654D01*
X0088294Y0019627D01*
X0088208Y0019605D01*
X0088122Y0019586D01*
X0088035Y0019571D01*
X0087948Y0019560D01*
X0087860Y0019553D01*
X0087772Y0019550D01*
X0087684Y0019551D01*
X0087596Y0019556D01*
X0087508Y0019565D01*
X0087421Y0019578D01*
X0087335Y0019595D01*
X0087249Y0019615D01*
X0087164Y0019640D01*
X0087081Y0019668D01*
X0086999Y0019701D01*
X0086918Y0019736D01*
X0086839Y0019776D01*
X0086762Y0019819D01*
X0086687Y0019865D01*
X0086615Y0019915D01*
X0086544Y0019968D01*
X0086476Y0020024D01*
X0086411Y0020083D01*
X0086348Y0020145D01*
X0086288Y0020209D01*
X0086231Y0020277D01*
X0086178Y0020347D01*
X0086127Y0020419D01*
X0086080Y0020493D01*
X0086036Y0020570D01*
X0085996Y0020648D01*
X0085959Y0020728D01*
X0085926Y0020810D01*
X0085897Y0020893D01*
X0085871Y0020978D01*
X0085850Y0021063D01*
X0085832Y0021149D01*
X0085818Y0021236D01*
X0085808Y0021324D01*
X0085802Y0021412D01*
X0085800Y0021500D01*
X0075575Y0015500D02*
X0075577Y0015637D01*
X0075583Y0015773D01*
X0075593Y0015909D01*
X0075607Y0016045D01*
X0075625Y0016181D01*
X0075647Y0016316D01*
X0075672Y0016450D01*
X0075702Y0016583D01*
X0075736Y0016715D01*
X0075773Y0016847D01*
X0075814Y0016977D01*
X0075860Y0017106D01*
X0075908Y0017234D01*
X0075961Y0017360D01*
X0076017Y0017484D01*
X0076077Y0017607D01*
X0076140Y0017728D01*
X0076207Y0017847D01*
X0076277Y0017964D01*
X0076351Y0018080D01*
X0076428Y0018192D01*
X0076508Y0018303D01*
X0076592Y0018411D01*
X0076679Y0018517D01*
X0076768Y0018620D01*
X0076861Y0018720D01*
X0076956Y0018818D01*
X0077055Y0018913D01*
X0077156Y0019005D01*
X0077260Y0019093D01*
X0077366Y0019179D01*
X0077475Y0019262D01*
X0077586Y0019341D01*
X0077699Y0019418D01*
X0077815Y0019491D01*
X0077932Y0019560D01*
X0078052Y0019626D01*
X0078173Y0019688D01*
X0078297Y0019747D01*
X0078422Y0019803D01*
X0078548Y0019854D01*
X0078676Y0019902D01*
X0078805Y0019946D01*
X0078936Y0019987D01*
X0079068Y0020023D01*
X0079200Y0020056D01*
X0079334Y0020084D01*
X0079468Y0020109D01*
X0079603Y0020130D01*
X0079739Y0020147D01*
X0079875Y0020160D01*
X0080011Y0020169D01*
X0080148Y0020174D01*
X0080284Y0020175D01*
X0080421Y0020172D01*
X0080557Y0020165D01*
X0080693Y0020154D01*
X0080829Y0020139D01*
X0080964Y0020120D01*
X0081099Y0020097D01*
X0081233Y0020070D01*
X0081366Y0020040D01*
X0081498Y0020005D01*
X0081630Y0019967D01*
X0081759Y0019925D01*
X0081888Y0019879D01*
X0082015Y0019829D01*
X0082141Y0019775D01*
X0082265Y0019718D01*
X0082388Y0019658D01*
X0082508Y0019593D01*
X0082627Y0019526D01*
X0082743Y0019455D01*
X0082858Y0019380D01*
X0082970Y0019302D01*
X0083080Y0019221D01*
X0083188Y0019137D01*
X0083293Y0019049D01*
X0083395Y0018959D01*
X0083495Y0018866D01*
X0083592Y0018769D01*
X0083686Y0018670D01*
X0083777Y0018569D01*
X0083865Y0018464D01*
X0083950Y0018357D01*
X0084032Y0018248D01*
X0084111Y0018136D01*
X0084186Y0018022D01*
X0084258Y0017906D01*
X0084327Y0017788D01*
X0084392Y0017668D01*
X0084454Y0017546D01*
X0084512Y0017422D01*
X0084566Y0017297D01*
X0084617Y0017170D01*
X0084663Y0017042D01*
X0084707Y0016912D01*
X0084746Y0016781D01*
X0084782Y0016649D01*
X0084813Y0016516D01*
X0084841Y0016383D01*
X0084865Y0016248D01*
X0084885Y0016113D01*
X0084901Y0015977D01*
X0084913Y0015841D01*
X0084921Y0015705D01*
X0084925Y0015568D01*
X0084925Y0015432D01*
X0084921Y0015295D01*
X0084913Y0015159D01*
X0084901Y0015023D01*
X0084885Y0014887D01*
X0084865Y0014752D01*
X0084841Y0014617D01*
X0084813Y0014484D01*
X0084782Y0014351D01*
X0084746Y0014219D01*
X0084707Y0014088D01*
X0084663Y0013958D01*
X0084617Y0013830D01*
X0084566Y0013703D01*
X0084512Y0013578D01*
X0084454Y0013454D01*
X0084392Y0013332D01*
X0084327Y0013212D01*
X0084258Y0013094D01*
X0084186Y0012978D01*
X0084111Y0012864D01*
X0084032Y0012752D01*
X0083950Y0012643D01*
X0083865Y0012536D01*
X0083777Y0012431D01*
X0083686Y0012330D01*
X0083592Y0012231D01*
X0083495Y0012134D01*
X0083395Y0012041D01*
X0083293Y0011951D01*
X0083188Y0011863D01*
X0083080Y0011779D01*
X0082970Y0011698D01*
X0082858Y0011620D01*
X0082743Y0011545D01*
X0082627Y0011474D01*
X0082508Y0011407D01*
X0082388Y0011342D01*
X0082265Y0011282D01*
X0082141Y0011225D01*
X0082015Y0011171D01*
X0081888Y0011121D01*
X0081759Y0011075D01*
X0081630Y0011033D01*
X0081498Y0010995D01*
X0081366Y0010960D01*
X0081233Y0010930D01*
X0081099Y0010903D01*
X0080964Y0010880D01*
X0080829Y0010861D01*
X0080693Y0010846D01*
X0080557Y0010835D01*
X0080421Y0010828D01*
X0080284Y0010825D01*
X0080148Y0010826D01*
X0080011Y0010831D01*
X0079875Y0010840D01*
X0079739Y0010853D01*
X0079603Y0010870D01*
X0079468Y0010891D01*
X0079334Y0010916D01*
X0079200Y0010944D01*
X0079068Y0010977D01*
X0078936Y0011013D01*
X0078805Y0011054D01*
X0078676Y0011098D01*
X0078548Y0011146D01*
X0078422Y0011197D01*
X0078297Y0011253D01*
X0078173Y0011312D01*
X0078052Y0011374D01*
X0077932Y0011440D01*
X0077815Y0011509D01*
X0077699Y0011582D01*
X0077586Y0011659D01*
X0077475Y0011738D01*
X0077366Y0011821D01*
X0077260Y0011907D01*
X0077156Y0011995D01*
X0077055Y0012087D01*
X0076956Y0012182D01*
X0076861Y0012280D01*
X0076768Y0012380D01*
X0076679Y0012483D01*
X0076592Y0012589D01*
X0076508Y0012697D01*
X0076428Y0012808D01*
X0076351Y0012920D01*
X0076277Y0013036D01*
X0076207Y0013153D01*
X0076140Y0013272D01*
X0076077Y0013393D01*
X0076017Y0013516D01*
X0075961Y0013640D01*
X0075908Y0013766D01*
X0075860Y0013894D01*
X0075814Y0014023D01*
X0075773Y0014153D01*
X0075736Y0014285D01*
X0075702Y0014417D01*
X0075672Y0014550D01*
X0075647Y0014684D01*
X0075625Y0014819D01*
X0075607Y0014955D01*
X0075593Y0015091D01*
X0075583Y0015227D01*
X0075577Y0015363D01*
X0075575Y0015500D01*
X0120451Y0011500D02*
X0120453Y0011658D01*
X0120459Y0011816D01*
X0120469Y0011974D01*
X0120483Y0012132D01*
X0120501Y0012289D01*
X0120522Y0012446D01*
X0120548Y0012602D01*
X0120578Y0012758D01*
X0120611Y0012913D01*
X0120649Y0013066D01*
X0120690Y0013219D01*
X0120735Y0013371D01*
X0120784Y0013522D01*
X0120837Y0013671D01*
X0120893Y0013819D01*
X0120953Y0013965D01*
X0121017Y0014110D01*
X0121085Y0014253D01*
X0121156Y0014395D01*
X0121230Y0014535D01*
X0121308Y0014672D01*
X0121390Y0014808D01*
X0121474Y0014942D01*
X0121563Y0015073D01*
X0121654Y0015202D01*
X0121749Y0015329D01*
X0121846Y0015454D01*
X0121947Y0015576D01*
X0122051Y0015695D01*
X0122158Y0015812D01*
X0122268Y0015926D01*
X0122381Y0016037D01*
X0122496Y0016146D01*
X0122614Y0016251D01*
X0122735Y0016353D01*
X0122858Y0016453D01*
X0122984Y0016549D01*
X0123112Y0016642D01*
X0123242Y0016732D01*
X0123375Y0016818D01*
X0123510Y0016902D01*
X0123646Y0016981D01*
X0123785Y0017058D01*
X0123926Y0017130D01*
X0124068Y0017200D01*
X0124212Y0017265D01*
X0124358Y0017327D01*
X0124505Y0017385D01*
X0124654Y0017440D01*
X0124804Y0017491D01*
X0124955Y0017538D01*
X0125107Y0017581D01*
X0125260Y0017620D01*
X0125415Y0017656D01*
X0125570Y0017687D01*
X0125726Y0017715D01*
X0125882Y0017739D01*
X0126039Y0017759D01*
X0126197Y0017775D01*
X0126354Y0017787D01*
X0126513Y0017795D01*
X0126671Y0017799D01*
X0126829Y0017799D01*
X0126987Y0017795D01*
X0127146Y0017787D01*
X0127303Y0017775D01*
X0127461Y0017759D01*
X0127618Y0017739D01*
X0127774Y0017715D01*
X0127930Y0017687D01*
X0128085Y0017656D01*
X0128240Y0017620D01*
X0128393Y0017581D01*
X0128545Y0017538D01*
X0128696Y0017491D01*
X0128846Y0017440D01*
X0128995Y0017385D01*
X0129142Y0017327D01*
X0129288Y0017265D01*
X0129432Y0017200D01*
X0129574Y0017130D01*
X0129715Y0017058D01*
X0129854Y0016981D01*
X0129990Y0016902D01*
X0130125Y0016818D01*
X0130258Y0016732D01*
X0130388Y0016642D01*
X0130516Y0016549D01*
X0130642Y0016453D01*
X0130765Y0016353D01*
X0130886Y0016251D01*
X0131004Y0016146D01*
X0131119Y0016037D01*
X0131232Y0015926D01*
X0131342Y0015812D01*
X0131449Y0015695D01*
X0131553Y0015576D01*
X0131654Y0015454D01*
X0131751Y0015329D01*
X0131846Y0015202D01*
X0131937Y0015073D01*
X0132026Y0014942D01*
X0132110Y0014808D01*
X0132192Y0014672D01*
X0132270Y0014535D01*
X0132344Y0014395D01*
X0132415Y0014253D01*
X0132483Y0014110D01*
X0132547Y0013965D01*
X0132607Y0013819D01*
X0132663Y0013671D01*
X0132716Y0013522D01*
X0132765Y0013371D01*
X0132810Y0013219D01*
X0132851Y0013066D01*
X0132889Y0012913D01*
X0132922Y0012758D01*
X0132952Y0012602D01*
X0132978Y0012446D01*
X0132999Y0012289D01*
X0133017Y0012132D01*
X0133031Y0011974D01*
X0133041Y0011816D01*
X0133047Y0011658D01*
X0133049Y0011500D01*
X0133047Y0011342D01*
X0133041Y0011184D01*
X0133031Y0011026D01*
X0133017Y0010868D01*
X0132999Y0010711D01*
X0132978Y0010554D01*
X0132952Y0010398D01*
X0132922Y0010242D01*
X0132889Y0010087D01*
X0132851Y0009934D01*
X0132810Y0009781D01*
X0132765Y0009629D01*
X0132716Y0009478D01*
X0132663Y0009329D01*
X0132607Y0009181D01*
X0132547Y0009035D01*
X0132483Y0008890D01*
X0132415Y0008747D01*
X0132344Y0008605D01*
X0132270Y0008465D01*
X0132192Y0008328D01*
X0132110Y0008192D01*
X0132026Y0008058D01*
X0131937Y0007927D01*
X0131846Y0007798D01*
X0131751Y0007671D01*
X0131654Y0007546D01*
X0131553Y0007424D01*
X0131449Y0007305D01*
X0131342Y0007188D01*
X0131232Y0007074D01*
X0131119Y0006963D01*
X0131004Y0006854D01*
X0130886Y0006749D01*
X0130765Y0006647D01*
X0130642Y0006547D01*
X0130516Y0006451D01*
X0130388Y0006358D01*
X0130258Y0006268D01*
X0130125Y0006182D01*
X0129990Y0006098D01*
X0129854Y0006019D01*
X0129715Y0005942D01*
X0129574Y0005870D01*
X0129432Y0005800D01*
X0129288Y0005735D01*
X0129142Y0005673D01*
X0128995Y0005615D01*
X0128846Y0005560D01*
X0128696Y0005509D01*
X0128545Y0005462D01*
X0128393Y0005419D01*
X0128240Y0005380D01*
X0128085Y0005344D01*
X0127930Y0005313D01*
X0127774Y0005285D01*
X0127618Y0005261D01*
X0127461Y0005241D01*
X0127303Y0005225D01*
X0127146Y0005213D01*
X0126987Y0005205D01*
X0126829Y0005201D01*
X0126671Y0005201D01*
X0126513Y0005205D01*
X0126354Y0005213D01*
X0126197Y0005225D01*
X0126039Y0005241D01*
X0125882Y0005261D01*
X0125726Y0005285D01*
X0125570Y0005313D01*
X0125415Y0005344D01*
X0125260Y0005380D01*
X0125107Y0005419D01*
X0124955Y0005462D01*
X0124804Y0005509D01*
X0124654Y0005560D01*
X0124505Y0005615D01*
X0124358Y0005673D01*
X0124212Y0005735D01*
X0124068Y0005800D01*
X0123926Y0005870D01*
X0123785Y0005942D01*
X0123646Y0006019D01*
X0123510Y0006098D01*
X0123375Y0006182D01*
X0123242Y0006268D01*
X0123112Y0006358D01*
X0122984Y0006451D01*
X0122858Y0006547D01*
X0122735Y0006647D01*
X0122614Y0006749D01*
X0122496Y0006854D01*
X0122381Y0006963D01*
X0122268Y0007074D01*
X0122158Y0007188D01*
X0122051Y0007305D01*
X0121947Y0007424D01*
X0121846Y0007546D01*
X0121749Y0007671D01*
X0121654Y0007798D01*
X0121563Y0007927D01*
X0121474Y0008058D01*
X0121390Y0008192D01*
X0121308Y0008328D01*
X0121230Y0008465D01*
X0121156Y0008605D01*
X0121085Y0008747D01*
X0121017Y0008890D01*
X0120953Y0009035D01*
X0120893Y0009181D01*
X0120837Y0009329D01*
X0120784Y0009478D01*
X0120735Y0009629D01*
X0120690Y0009781D01*
X0120649Y0009934D01*
X0120611Y0010087D01*
X0120578Y0010242D01*
X0120548Y0010398D01*
X0120522Y0010554D01*
X0120501Y0010711D01*
X0120483Y0010868D01*
X0120469Y0011026D01*
X0120459Y0011184D01*
X0120453Y0011342D01*
X0120451Y0011500D01*
X0100451Y0112500D02*
X0100453Y0112658D01*
X0100459Y0112816D01*
X0100469Y0112974D01*
X0100483Y0113132D01*
X0100501Y0113289D01*
X0100522Y0113446D01*
X0100548Y0113602D01*
X0100578Y0113758D01*
X0100611Y0113913D01*
X0100649Y0114066D01*
X0100690Y0114219D01*
X0100735Y0114371D01*
X0100784Y0114522D01*
X0100837Y0114671D01*
X0100893Y0114819D01*
X0100953Y0114965D01*
X0101017Y0115110D01*
X0101085Y0115253D01*
X0101156Y0115395D01*
X0101230Y0115535D01*
X0101308Y0115672D01*
X0101390Y0115808D01*
X0101474Y0115942D01*
X0101563Y0116073D01*
X0101654Y0116202D01*
X0101749Y0116329D01*
X0101846Y0116454D01*
X0101947Y0116576D01*
X0102051Y0116695D01*
X0102158Y0116812D01*
X0102268Y0116926D01*
X0102381Y0117037D01*
X0102496Y0117146D01*
X0102614Y0117251D01*
X0102735Y0117353D01*
X0102858Y0117453D01*
X0102984Y0117549D01*
X0103112Y0117642D01*
X0103242Y0117732D01*
X0103375Y0117818D01*
X0103510Y0117902D01*
X0103646Y0117981D01*
X0103785Y0118058D01*
X0103926Y0118130D01*
X0104068Y0118200D01*
X0104212Y0118265D01*
X0104358Y0118327D01*
X0104505Y0118385D01*
X0104654Y0118440D01*
X0104804Y0118491D01*
X0104955Y0118538D01*
X0105107Y0118581D01*
X0105260Y0118620D01*
X0105415Y0118656D01*
X0105570Y0118687D01*
X0105726Y0118715D01*
X0105882Y0118739D01*
X0106039Y0118759D01*
X0106197Y0118775D01*
X0106354Y0118787D01*
X0106513Y0118795D01*
X0106671Y0118799D01*
X0106829Y0118799D01*
X0106987Y0118795D01*
X0107146Y0118787D01*
X0107303Y0118775D01*
X0107461Y0118759D01*
X0107618Y0118739D01*
X0107774Y0118715D01*
X0107930Y0118687D01*
X0108085Y0118656D01*
X0108240Y0118620D01*
X0108393Y0118581D01*
X0108545Y0118538D01*
X0108696Y0118491D01*
X0108846Y0118440D01*
X0108995Y0118385D01*
X0109142Y0118327D01*
X0109288Y0118265D01*
X0109432Y0118200D01*
X0109574Y0118130D01*
X0109715Y0118058D01*
X0109854Y0117981D01*
X0109990Y0117902D01*
X0110125Y0117818D01*
X0110258Y0117732D01*
X0110388Y0117642D01*
X0110516Y0117549D01*
X0110642Y0117453D01*
X0110765Y0117353D01*
X0110886Y0117251D01*
X0111004Y0117146D01*
X0111119Y0117037D01*
X0111232Y0116926D01*
X0111342Y0116812D01*
X0111449Y0116695D01*
X0111553Y0116576D01*
X0111654Y0116454D01*
X0111751Y0116329D01*
X0111846Y0116202D01*
X0111937Y0116073D01*
X0112026Y0115942D01*
X0112110Y0115808D01*
X0112192Y0115672D01*
X0112270Y0115535D01*
X0112344Y0115395D01*
X0112415Y0115253D01*
X0112483Y0115110D01*
X0112547Y0114965D01*
X0112607Y0114819D01*
X0112663Y0114671D01*
X0112716Y0114522D01*
X0112765Y0114371D01*
X0112810Y0114219D01*
X0112851Y0114066D01*
X0112889Y0113913D01*
X0112922Y0113758D01*
X0112952Y0113602D01*
X0112978Y0113446D01*
X0112999Y0113289D01*
X0113017Y0113132D01*
X0113031Y0112974D01*
X0113041Y0112816D01*
X0113047Y0112658D01*
X0113049Y0112500D01*
X0113047Y0112342D01*
X0113041Y0112184D01*
X0113031Y0112026D01*
X0113017Y0111868D01*
X0112999Y0111711D01*
X0112978Y0111554D01*
X0112952Y0111398D01*
X0112922Y0111242D01*
X0112889Y0111087D01*
X0112851Y0110934D01*
X0112810Y0110781D01*
X0112765Y0110629D01*
X0112716Y0110478D01*
X0112663Y0110329D01*
X0112607Y0110181D01*
X0112547Y0110035D01*
X0112483Y0109890D01*
X0112415Y0109747D01*
X0112344Y0109605D01*
X0112270Y0109465D01*
X0112192Y0109328D01*
X0112110Y0109192D01*
X0112026Y0109058D01*
X0111937Y0108927D01*
X0111846Y0108798D01*
X0111751Y0108671D01*
X0111654Y0108546D01*
X0111553Y0108424D01*
X0111449Y0108305D01*
X0111342Y0108188D01*
X0111232Y0108074D01*
X0111119Y0107963D01*
X0111004Y0107854D01*
X0110886Y0107749D01*
X0110765Y0107647D01*
X0110642Y0107547D01*
X0110516Y0107451D01*
X0110388Y0107358D01*
X0110258Y0107268D01*
X0110125Y0107182D01*
X0109990Y0107098D01*
X0109854Y0107019D01*
X0109715Y0106942D01*
X0109574Y0106870D01*
X0109432Y0106800D01*
X0109288Y0106735D01*
X0109142Y0106673D01*
X0108995Y0106615D01*
X0108846Y0106560D01*
X0108696Y0106509D01*
X0108545Y0106462D01*
X0108393Y0106419D01*
X0108240Y0106380D01*
X0108085Y0106344D01*
X0107930Y0106313D01*
X0107774Y0106285D01*
X0107618Y0106261D01*
X0107461Y0106241D01*
X0107303Y0106225D01*
X0107146Y0106213D01*
X0106987Y0106205D01*
X0106829Y0106201D01*
X0106671Y0106201D01*
X0106513Y0106205D01*
X0106354Y0106213D01*
X0106197Y0106225D01*
X0106039Y0106241D01*
X0105882Y0106261D01*
X0105726Y0106285D01*
X0105570Y0106313D01*
X0105415Y0106344D01*
X0105260Y0106380D01*
X0105107Y0106419D01*
X0104955Y0106462D01*
X0104804Y0106509D01*
X0104654Y0106560D01*
X0104505Y0106615D01*
X0104358Y0106673D01*
X0104212Y0106735D01*
X0104068Y0106800D01*
X0103926Y0106870D01*
X0103785Y0106942D01*
X0103646Y0107019D01*
X0103510Y0107098D01*
X0103375Y0107182D01*
X0103242Y0107268D01*
X0103112Y0107358D01*
X0102984Y0107451D01*
X0102858Y0107547D01*
X0102735Y0107647D01*
X0102614Y0107749D01*
X0102496Y0107854D01*
X0102381Y0107963D01*
X0102268Y0108074D01*
X0102158Y0108188D01*
X0102051Y0108305D01*
X0101947Y0108424D01*
X0101846Y0108546D01*
X0101749Y0108671D01*
X0101654Y0108798D01*
X0101563Y0108927D01*
X0101474Y0109058D01*
X0101390Y0109192D01*
X0101308Y0109328D01*
X0101230Y0109465D01*
X0101156Y0109605D01*
X0101085Y0109747D01*
X0101017Y0109890D01*
X0100953Y0110035D01*
X0100893Y0110181D01*
X0100837Y0110329D01*
X0100784Y0110478D01*
X0100735Y0110629D01*
X0100690Y0110781D01*
X0100649Y0110934D01*
X0100611Y0111087D01*
X0100578Y0111242D01*
X0100548Y0111398D01*
X0100522Y0111554D01*
X0100501Y0111711D01*
X0100483Y0111868D01*
X0100469Y0112026D01*
X0100459Y0112184D01*
X0100453Y0112342D01*
X0100451Y0112500D01*
X0027451Y0112500D02*
X0027453Y0112658D01*
X0027459Y0112816D01*
X0027469Y0112974D01*
X0027483Y0113132D01*
X0027501Y0113289D01*
X0027522Y0113446D01*
X0027548Y0113602D01*
X0027578Y0113758D01*
X0027611Y0113913D01*
X0027649Y0114066D01*
X0027690Y0114219D01*
X0027735Y0114371D01*
X0027784Y0114522D01*
X0027837Y0114671D01*
X0027893Y0114819D01*
X0027953Y0114965D01*
X0028017Y0115110D01*
X0028085Y0115253D01*
X0028156Y0115395D01*
X0028230Y0115535D01*
X0028308Y0115672D01*
X0028390Y0115808D01*
X0028474Y0115942D01*
X0028563Y0116073D01*
X0028654Y0116202D01*
X0028749Y0116329D01*
X0028846Y0116454D01*
X0028947Y0116576D01*
X0029051Y0116695D01*
X0029158Y0116812D01*
X0029268Y0116926D01*
X0029381Y0117037D01*
X0029496Y0117146D01*
X0029614Y0117251D01*
X0029735Y0117353D01*
X0029858Y0117453D01*
X0029984Y0117549D01*
X0030112Y0117642D01*
X0030242Y0117732D01*
X0030375Y0117818D01*
X0030510Y0117902D01*
X0030646Y0117981D01*
X0030785Y0118058D01*
X0030926Y0118130D01*
X0031068Y0118200D01*
X0031212Y0118265D01*
X0031358Y0118327D01*
X0031505Y0118385D01*
X0031654Y0118440D01*
X0031804Y0118491D01*
X0031955Y0118538D01*
X0032107Y0118581D01*
X0032260Y0118620D01*
X0032415Y0118656D01*
X0032570Y0118687D01*
X0032726Y0118715D01*
X0032882Y0118739D01*
X0033039Y0118759D01*
X0033197Y0118775D01*
X0033354Y0118787D01*
X0033513Y0118795D01*
X0033671Y0118799D01*
X0033829Y0118799D01*
X0033987Y0118795D01*
X0034146Y0118787D01*
X0034303Y0118775D01*
X0034461Y0118759D01*
X0034618Y0118739D01*
X0034774Y0118715D01*
X0034930Y0118687D01*
X0035085Y0118656D01*
X0035240Y0118620D01*
X0035393Y0118581D01*
X0035545Y0118538D01*
X0035696Y0118491D01*
X0035846Y0118440D01*
X0035995Y0118385D01*
X0036142Y0118327D01*
X0036288Y0118265D01*
X0036432Y0118200D01*
X0036574Y0118130D01*
X0036715Y0118058D01*
X0036854Y0117981D01*
X0036990Y0117902D01*
X0037125Y0117818D01*
X0037258Y0117732D01*
X0037388Y0117642D01*
X0037516Y0117549D01*
X0037642Y0117453D01*
X0037765Y0117353D01*
X0037886Y0117251D01*
X0038004Y0117146D01*
X0038119Y0117037D01*
X0038232Y0116926D01*
X0038342Y0116812D01*
X0038449Y0116695D01*
X0038553Y0116576D01*
X0038654Y0116454D01*
X0038751Y0116329D01*
X0038846Y0116202D01*
X0038937Y0116073D01*
X0039026Y0115942D01*
X0039110Y0115808D01*
X0039192Y0115672D01*
X0039270Y0115535D01*
X0039344Y0115395D01*
X0039415Y0115253D01*
X0039483Y0115110D01*
X0039547Y0114965D01*
X0039607Y0114819D01*
X0039663Y0114671D01*
X0039716Y0114522D01*
X0039765Y0114371D01*
X0039810Y0114219D01*
X0039851Y0114066D01*
X0039889Y0113913D01*
X0039922Y0113758D01*
X0039952Y0113602D01*
X0039978Y0113446D01*
X0039999Y0113289D01*
X0040017Y0113132D01*
X0040031Y0112974D01*
X0040041Y0112816D01*
X0040047Y0112658D01*
X0040049Y0112500D01*
X0040047Y0112342D01*
X0040041Y0112184D01*
X0040031Y0112026D01*
X0040017Y0111868D01*
X0039999Y0111711D01*
X0039978Y0111554D01*
X0039952Y0111398D01*
X0039922Y0111242D01*
X0039889Y0111087D01*
X0039851Y0110934D01*
X0039810Y0110781D01*
X0039765Y0110629D01*
X0039716Y0110478D01*
X0039663Y0110329D01*
X0039607Y0110181D01*
X0039547Y0110035D01*
X0039483Y0109890D01*
X0039415Y0109747D01*
X0039344Y0109605D01*
X0039270Y0109465D01*
X0039192Y0109328D01*
X0039110Y0109192D01*
X0039026Y0109058D01*
X0038937Y0108927D01*
X0038846Y0108798D01*
X0038751Y0108671D01*
X0038654Y0108546D01*
X0038553Y0108424D01*
X0038449Y0108305D01*
X0038342Y0108188D01*
X0038232Y0108074D01*
X0038119Y0107963D01*
X0038004Y0107854D01*
X0037886Y0107749D01*
X0037765Y0107647D01*
X0037642Y0107547D01*
X0037516Y0107451D01*
X0037388Y0107358D01*
X0037258Y0107268D01*
X0037125Y0107182D01*
X0036990Y0107098D01*
X0036854Y0107019D01*
X0036715Y0106942D01*
X0036574Y0106870D01*
X0036432Y0106800D01*
X0036288Y0106735D01*
X0036142Y0106673D01*
X0035995Y0106615D01*
X0035846Y0106560D01*
X0035696Y0106509D01*
X0035545Y0106462D01*
X0035393Y0106419D01*
X0035240Y0106380D01*
X0035085Y0106344D01*
X0034930Y0106313D01*
X0034774Y0106285D01*
X0034618Y0106261D01*
X0034461Y0106241D01*
X0034303Y0106225D01*
X0034146Y0106213D01*
X0033987Y0106205D01*
X0033829Y0106201D01*
X0033671Y0106201D01*
X0033513Y0106205D01*
X0033354Y0106213D01*
X0033197Y0106225D01*
X0033039Y0106241D01*
X0032882Y0106261D01*
X0032726Y0106285D01*
X0032570Y0106313D01*
X0032415Y0106344D01*
X0032260Y0106380D01*
X0032107Y0106419D01*
X0031955Y0106462D01*
X0031804Y0106509D01*
X0031654Y0106560D01*
X0031505Y0106615D01*
X0031358Y0106673D01*
X0031212Y0106735D01*
X0031068Y0106800D01*
X0030926Y0106870D01*
X0030785Y0106942D01*
X0030646Y0107019D01*
X0030510Y0107098D01*
X0030375Y0107182D01*
X0030242Y0107268D01*
X0030112Y0107358D01*
X0029984Y0107451D01*
X0029858Y0107547D01*
X0029735Y0107647D01*
X0029614Y0107749D01*
X0029496Y0107854D01*
X0029381Y0107963D01*
X0029268Y0108074D01*
X0029158Y0108188D01*
X0029051Y0108305D01*
X0028947Y0108424D01*
X0028846Y0108546D01*
X0028749Y0108671D01*
X0028654Y0108798D01*
X0028563Y0108927D01*
X0028474Y0109058D01*
X0028390Y0109192D01*
X0028308Y0109328D01*
X0028230Y0109465D01*
X0028156Y0109605D01*
X0028085Y0109747D01*
X0028017Y0109890D01*
X0027953Y0110035D01*
X0027893Y0110181D01*
X0027837Y0110329D01*
X0027784Y0110478D01*
X0027735Y0110629D01*
X0027690Y0110781D01*
X0027649Y0110934D01*
X0027611Y0111087D01*
X0027578Y0111242D01*
X0027548Y0111398D01*
X0027522Y0111554D01*
X0027501Y0111711D01*
X0027483Y0111868D01*
X0027469Y0112026D01*
X0027459Y0112184D01*
X0027453Y0112342D01*
X0027451Y0112500D01*
D12*
X0033750Y0112500D03*
X0106750Y0112500D03*
X0126750Y0011500D03*
X0013750Y0011500D03*
D13*
X0024010Y0041500D03*
X0031490Y0041500D03*
X0042010Y0069500D03*
X0049490Y0069500D03*
X0049490Y0077500D03*
X0042010Y0077500D03*
X0031490Y0083500D03*
X0024010Y0083500D03*
G36*
X0106671Y0039020D02*
X0104440Y0036789D01*
X0100539Y0040690D01*
X0102770Y0042921D01*
X0106671Y0039020D01*
G37*
G36*
X0111961Y0044310D02*
X0109730Y0042079D01*
X0105829Y0045980D01*
X0108060Y0048211D01*
X0111961Y0044310D01*
G37*
X0111490Y0064000D03*
X0104010Y0064000D03*
X0104010Y0071500D03*
X0111490Y0071500D03*
D14*
X0041459Y0022500D03*
X0030041Y0022500D03*
D15*
X0056581Y0107268D03*
X0056581Y0115732D03*
X0072919Y0115732D03*
X0072919Y0107268D03*
D16*
X0072750Y0028000D03*
X0072750Y0023000D03*
X0077750Y0023000D03*
X0082750Y0023000D03*
X0082750Y0028000D03*
X0077750Y0028000D03*
D17*
X0087750Y0029500D03*
X0087750Y0021500D03*
X0067750Y0025500D03*
D18*
X0067750Y0015500D03*
X0080250Y0015500D03*
X0080250Y0035500D03*
X0067750Y0035500D03*
D19*
X0060033Y0061476D03*
X0060033Y0064626D03*
X0060033Y0067776D03*
X0060033Y0070925D03*
X0060033Y0074075D03*
X0060033Y0077224D03*
X0060033Y0080374D03*
X0060033Y0083524D03*
X0095467Y0083524D03*
X0095467Y0080374D03*
X0095467Y0077224D03*
X0095467Y0074075D03*
X0095467Y0070925D03*
X0095467Y0067776D03*
X0095467Y0064626D03*
X0095467Y0061476D03*
D20*
X0088774Y0054783D03*
X0085624Y0054783D03*
X0082474Y0054783D03*
X0079325Y0054783D03*
X0076175Y0054783D03*
X0073026Y0054783D03*
X0069876Y0054783D03*
X0066726Y0054783D03*
X0066726Y0090217D03*
X0069876Y0090217D03*
X0073026Y0090217D03*
X0076175Y0090217D03*
X0079325Y0090217D03*
X0082474Y0090217D03*
X0085624Y0090217D03*
X0088774Y0090217D03*
D21*
X0032750Y0050098D03*
X0022750Y0050098D03*
X0022750Y0074902D03*
D22*
X0032750Y0074508D03*
D23*
X0008750Y0077500D03*
X0008750Y0067500D03*
X0008750Y0057500D03*
X0008750Y0047500D03*
X0008750Y0037500D03*
X0008750Y0027500D03*
X0008750Y0087500D03*
X0008750Y0097500D03*
X0008750Y0107500D03*
X0008750Y0117500D03*
X0131750Y0117500D03*
X0131750Y0107500D03*
X0131750Y0097500D03*
X0131750Y0087500D03*
X0131750Y0077500D03*
X0131750Y0067500D03*
X0131750Y0057500D03*
X0131750Y0047500D03*
X0131750Y0037500D03*
X0131750Y0027500D03*
D24*
X0049671Y0007500D03*
X0039829Y0007500D03*
D25*
X0030750Y0006760D03*
X0030750Y0014240D03*
M02*
