%
M48
M72
T01C0.0197
T02C0.0390
T03C0.0394
T04C0.0935
T05C0.1260
%
T01
X3575Y2250
X4575Y2750
X5875Y2750
X9155Y2560
X9575Y3200
X9575Y3950
X10275Y4650
X10625Y4250
X10775Y6400
X10775Y7150
X11625Y7150
X11625Y6400
X7615Y10070
X6475Y11150
X3825Y7750
X4575Y7750
X4575Y6950
X3825Y6950
X3275Y6750
X2275Y5700
T02
X6775Y2550
X8775Y2950
X8775Y2150
T03
X875Y2750
X875Y3750
X875Y4750
X875Y5750
X875Y6750
X875Y7750
X875Y8750
X875Y9750
X875Y10750
X875Y11750
X13175Y10750
X13175Y9750
X13175Y8750
X13175Y7750
X13175Y6750
X13175Y5750
X13175Y4750
X13175Y3750
X13175Y2750
X13175Y11750
T04
X6775Y1550
X6775Y3550
X8025Y3550
X8025Y1550
T05
X1375Y1150
X12675Y1150
X10675Y11250
X3375Y11250
M30
